if (_typeface_js && _typeface_js.loadFace) _typeface_js.loadFace({"glyphs":{"0":{"ha":738,"x_min":110,"x_max":883,"o":"m 883 622 q 858 472 883 551 q 788 317 832 393 q 686 171 744 240 q 562 49 628 101 q 426 -35 496 -4 q 290 -67 357 -67 q 153 -15 196 -67 q 110 129 110 38 q 148 320 110 225 q 241 497 186 415 q 358 640 296 579 q 467 728 419 701 q 474 731 469 729 q 486 733 482 733 q 494 729 493 733 q 493 725 494 728 q 481 711 490 719 q 446 682 464 699 q 411 645 431 667 q 371 593 392 624 l 371 592 q 370 590 371 590 q 369 588 369 589 q 372 583 369 583 q 379 588 375 583 q 494 683 433 640 q 613 750 547 719 q 750 782 679 781 q 817 767 790 782 q 858 730 843 753 q 878 678 872 707 q 883 622 883 650 m 821 622 q 801 713 821 679 q 728 747 781 747 q 617 721 678 747 q 494 648 557 694 q 371 539 431 601 q 265 405 311 476 q 191 256 219 333 q 163 100 163 178 q 192 -1 163 40 q 296 -42 221 -42 q 408 -11 349 -42 q 526 71 468 19 q 638 190 585 122 q 732 332 692 258 q 797 481 772 406 q 821 622 821 556 z "},"1":{"ha":346,"x_min":32,"x_max":713,"o":"m 713 835 q 703 808 713 826 q 667 756 694 790 q 583 655 631 713 q 494 544 536 597 q 396 419 446 483 q 272 251 324 329 q 188 115 221 174 q 124 -10 149 47 q 100 -55 111 -39 q 79 -78 89 -71 q 63 -88 69 -86 q 53 -90 56 -90 q 36 -81 40 -90 q 32 -61 32 -72 q 35 -40 32 -51 q 36 -32 36 -35 q 69 36 47 -3 q 119 119 90 75 q 182 211 149 164 q 249 303 215 258 q 419 522 326 408 q 558 706 503 643 q 613 778 613 768 l 613 781 l 611 781 q 608 782 611 782 q 578 771 601 782 q 531 746 554 760 q 468 708 503 731 q 315 642 369 657 q 239 626 261 626 q 208 634 221 626 q 196 651 196 642 q 199 663 196 657 q 201 667 200 665 q 210 672 204 669 q 243 676 218 676 q 274 679 247 676 q 347 696 300 682 q 458 739 393 710 q 607 819 524 768 l 638 835 q 665 846 650 842 q 692 850 681 850 q 706 848 700 850 q 713 835 713 846 z "},"2":{"ha":629,"x_min":28,"x_max":851,"o":"m 851 740 q 805 622 851 682 q 690 503 758 563 q 545 387 622 444 q 407 275 468 329 q 285 175 340 222 q 193 94 236 135 q 136 32 150 54 q 135 26 136 31 q 132 11 132 18 q 133 8 132 10 q 147 6 136 6 q 161 7 153 6 q 183 11 169 8 q 326 39 256 26 q 453 58 388 50 q 568 67 519 67 q 622 60 599 65 q 658 44 642 54 q 675 13 675 33 q 663 0 672 3 q 640 -3 653 -3 q 583 4 615 -3 q 515 11 551 11 q 333 3 411 11 q 203 -17 256 -6 q 97 -44 140 -29 q 74 -51 83 -50 q 57 -53 64 -53 q 33 -46 38 -53 q 28 -28 28 -39 q 32 -11 28 -18 q 36 -4 35 -7 q 71 38 47 14 q 126 91 94 63 q 192 149 157 119 q 264 208 228 179 q 447 350 349 275 q 701 581 615 494 q 786 715 786 667 q 763 763 786 751 q 707 774 739 774 q 560 743 638 774 q 418 669 483 713 q 310 581 353 626 q 268 504 268 535 q 274 489 268 494 q 286 481 279 483 q 300 478 293 479 q 311 478 307 478 q 410 505 369 482 q 481 555 451 528 q 531 603 510 582 q 574 625 553 625 q 582 622 578 625 q 586 608 586 619 q 560 562 586 592 q 494 502 535 532 q 406 450 454 472 q 311 428 357 428 q 278 429 296 428 q 247 437 261 431 q 222 454 232 443 q 213 483 213 465 q 237 553 213 517 q 301 626 261 590 q 394 696 342 663 q 502 754 446 729 q 614 794 558 779 q 717 810 669 810 q 759 808 736 810 q 803 799 782 806 q 838 778 824 792 q 851 740 851 764 z "},"3":{"ha":561,"x_min":-46,"x_max":776,"o":"m 776 738 q 749 669 776 701 q 673 609 721 638 q 560 553 625 581 q 419 499 494 526 q 413 494 417 497 q 404 486 404 489 q 410 482 404 483 q 508 454 464 475 q 576 402 546 436 q 607 308 607 368 q 578 187 607 244 q 503 80 550 129 q 397 -10 457 31 q 274 -78 338 -50 q 149 -121 211 -106 q 36 -136 88 -136 q -8 -132 8 -136 q -32 -122 -24 -128 q -43 -110 -40 -117 q -46 -99 -46 -103 l -46 -93 q -44 -90 -46 -92 q -37 -85 -42 -86 q -25 -83 -32 -83 q -4 -86 -15 -83 q 6 -87 1 -87 q 37 -92 21 -90 q 68 -93 53 -93 q 257 -53 171 -93 q 406 44 343 -14 q 503 167 468 101 q 538 286 538 233 q 521 351 538 324 q 479 396 504 378 q 424 424 454 414 q 367 440 394 435 q 319 446 340 444 q 293 447 299 447 q 268 463 272 450 q 264 482 264 475 q 272 494 264 489 q 279 499 276 497 q 433 541 354 515 q 577 598 513 567 q 683 665 642 629 q 724 735 724 700 q 703 771 724 758 q 656 790 682 783 q 607 799 631 797 q 576 800 583 800 q 466 785 508 800 q 397 751 424 769 q 351 717 369 732 q 313 701 333 701 q 301 706 310 701 q 292 726 292 711 q 306 760 292 740 q 352 797 321 779 q 433 826 383 814 q 551 839 482 839 q 603 837 567 839 q 679 826 640 835 q 747 796 718 817 q 776 738 776 775 z "},"4":{"ha":664,"x_min":78,"x_max":958,"o":"m 958 893 q 952 881 958 888 q 925 868 946 874 q 831 829 885 856 q 718 766 785 806 q 564 660 651 726 q 418 539 489 604 q 293 413 357 483 q 185 267 229 343 l 182 261 q 179 249 179 256 q 185 236 179 240 q 207 231 189 231 q 260 236 224 231 q 342 249 297 242 q 434 264 388 257 q 515 275 481 271 q 612 408 564 346 q 699 515 660 469 q 786 613 744 569 q 794 621 789 617 q 817 628 804 628 q 831 625 825 628 q 833 624 832 625 q 836 617 836 621 q 831 604 836 611 q 683 421 743 501 q 583 282 624 340 q 713 290 653 290 q 739 290 726 290 q 763 288 751 289 q 808 279 788 285 q 841 265 826 274 q 857 240 856 256 q 855 232 857 236 q 842 228 853 228 q 807 238 831 228 q 768 247 790 243 q 721 253 749 250 q 657 256 693 256 q 610 254 633 256 q 563 250 588 253 q 534 203 546 224 q 515 169 522 183 q 500 143 507 154 q 447 42 467 85 q 417 -31 428 -1 q 401 -87 404 -65 q 390 -127 397 -114 q 376 -147 383 -140 q 360 -154 369 -154 l 357 -154 q 333 -142 339 -154 q 328 -117 328 -131 q 329 -101 328 -106 q 331 -94 331 -97 q 397 75 353 -11 q 493 242 440 161 q 376 225 436 235 q 267 207 317 215 q 153 188 208 197 q 138 185 144 186 q 124 185 131 185 q 87 196 96 185 q 78 219 78 207 q 83 244 78 231 q 88 256 86 250 q 202 394 138 326 q 337 524 267 463 q 479 640 407 586 q 618 740 551 694 q 731 810 679 781 q 821 858 782 839 q 903 896 867 881 q 915 901 910 899 q 939 906 926 906 q 956 900 950 906 q 958 893 958 897 z "},"5":{"ha":535,"x_min":-68,"x_max":818,"o":"m 818 801 q 807 785 818 800 q 772 753 796 771 q 713 720 749 736 q 625 700 676 704 l 547 700 q 479 701 515 700 q 415 704 443 703 q 406 703 411 704 q 397 699 401 703 q 358 654 378 678 q 324 610 342 635 q 293 560 307 585 q 295 550 293 553 q 308 546 297 547 q 446 513 385 539 q 497 485 472 501 q 540 444 521 468 q 572 388 560 419 q 583 315 583 357 q 534 136 583 219 q 410 -8 485 53 q 249 -105 336 -69 q 86 -140 161 -140 q -31 -110 6 -140 q -68 -47 -68 -81 q -39 1 -68 1 q -26 -6 -31 1 q -22 -12 -24 -10 q 8 -63 -11 -44 q 47 -92 26 -82 q 85 -103 67 -101 q 113 -106 103 -106 q 270 -65 196 -106 q 399 35 344 -25 q 486 163 454 94 q 518 286 518 231 q 499 366 518 333 q 451 420 481 399 q 388 453 422 442 q 322 472 353 465 q 265 479 290 478 q 232 481 240 481 q 210 486 214 481 q 207 494 207 492 q 215 515 207 501 q 235 542 224 528 q 261 576 247 557 q 310 638 285 604 q 357 701 335 671 q 406 771 382 738 q 410 775 407 774 q 415 778 413 776 q 421 778 417 779 q 483 772 450 775 q 547 767 511 769 q 619 765 583 765 q 692 768 657 765 q 756 778 728 771 q 781 789 772 782 q 797 803 790 796 l 800 806 q 810 807 801 807 q 818 801 818 807 z "},"6":{"ha":617,"x_min":82,"x_max":838,"o":"m 838 858 q 833 854 838 857 q 826 850 831 851 q 811 847 821 849 q 691 806 761 842 q 545 714 621 771 q 394 583 469 657 q 260 428 319 510 q 165 262 201 346 q 128 100 128 178 q 133 56 128 81 q 152 9 138 31 q 194 -28 167 -12 q 267 -43 221 -43 q 306 -39 279 -43 q 370 -19 333 -35 q 451 28 407 -3 q 542 115 496 60 q 596 190 571 151 q 633 263 617 224 q 650 343 650 303 q 647 380 650 361 q 633 413 643 399 q 603 437 622 428 q 551 446 583 446 q 510 439 546 446 q 431 406 475 432 q 342 327 386 379 q 275 185 299 275 q 272 175 275 181 q 260 165 268 165 q 246 172 251 167 q 236 184 240 176 q 232 206 232 192 q 263 297 232 250 q 342 384 293 344 q 452 449 390 424 q 576 474 514 474 q 651 456 625 474 q 690 415 678 438 q 707 356 706 390 q 683 248 707 299 q 632 157 660 197 q 556 69 599 111 q 462 -3 507 24 q 378 -44 417 -29 q 310 -62 340 -58 q 261 -67 281 -67 q 158 -42 194 -67 q 105 15 122 -17 q 85 76 88 47 q 82 113 82 106 q 122 306 82 211 q 227 484 163 400 q 373 639 292 568 q 535 761 454 710 q 692 841 617 813 q 821 869 768 869 q 829 868 825 869 q 838 860 838 865 l 838 858 l 838 858 z "},"7":{"ha":449,"x_min":13,"x_max":819,"o":"m 819 763 q 814 749 819 756 q 790 726 806 740 q 757 698 778 715 q 704 656 736 681 q 538 507 622 589 q 380 342 465 436 q 218 135 294 247 q 165 51 190 94 q 122 -29 143 15 q 88 -117 100 -74 q 65 -158 78 -150 q 46 -165 51 -165 q 19 -153 26 -165 q 13 -126 13 -140 q 15 -106 13 -117 q 21 -87 18 -96 q 29 -69 25 -78 q 97 47 57 -14 q 183 166 136 107 q 281 283 231 225 q 382 392 332 340 q 626 628 499 513 q 682 678 668 664 q 696 699 696 693 q 669 711 696 708 q 610 714 642 714 q 379 702 474 714 q 240 663 285 690 q 228 653 232 657 q 219 649 224 649 q 214 650 215 649 l 213 651 q 210 656 210 653 q 214 665 210 661 q 218 671 217 668 q 258 711 236 693 q 303 742 278 726 q 358 763 328 757 q 440 772 394 768 q 531 778 479 775 q 644 781 583 781 q 724 778 683 781 q 808 774 765 776 q 814 772 811 774 q 819 763 819 769 z "},"8":{"ha":694,"x_min":31,"x_max":939,"o":"m 939 585 q 932 571 939 578 q 925 567 931 569 q 888 561 917 563 q 793 549 846 558 q 686 524 749 540 q 549 478 624 507 q 596 407 572 442 q 640 338 619 372 q 672 270 660 304 q 685 200 685 236 q 649 86 685 139 q 558 -6 614 33 q 432 -67 501 -44 q 293 -89 363 -89 q 149 -67 201 -89 q 70 -13 96 -44 q 38 51 44 18 q 31 103 31 83 q 49 177 31 140 q 99 247 68 214 q 170 310 131 281 q 251 365 210 340 q 472 475 349 425 q 436 549 443 519 q 429 599 429 579 q 453 671 429 632 q 522 744 478 710 q 630 801 567 778 q 771 824 693 824 q 816 820 792 824 q 860 806 840 817 q 894 777 881 796 q 908 728 907 758 q 899 686 907 708 q 877 644 892 667 q 835 599 863 622 q 839 592 835 592 q 866 597 842 592 q 910 603 890 603 q 926 600 921 603 q 935 594 932 597 q 939 585 939 590 m 847 718 q 838 753 847 739 q 813 774 828 767 q 780 785 799 782 q 743 789 761 789 q 667 777 711 789 q 583 742 622 765 q 515 688 543 719 q 488 614 488 656 q 496 572 488 600 q 535 500 504 544 q 614 530 576 517 q 679 553 651 543 q 740 572 713 564 q 798 605 776 585 q 831 646 819 625 q 844 686 842 667 q 847 718 847 706 m 622 186 q 601 271 622 225 q 556 357 581 317 q 488 453 526 404 q 293 349 379 406 q 222 294 257 324 q 158 232 186 265 q 114 162 131 199 q 97 85 97 125 q 149 -26 97 11 q 301 -62 201 -62 q 349 -57 319 -62 q 415 -40 379 -51 q 488 -8 451 -28 q 555 39 525 11 q 603 103 585 67 q 622 186 622 140 z "},"9":{"ha":676,"x_min":43,"x_max":846,"o":"m 846 678 q 815 519 846 604 q 733 352 785 435 q 613 194 682 269 q 468 60 544 118 q 313 -33 392 1 q 161 -68 235 -68 q 136 -67 147 -68 q 118 -65 125 -67 q 103 -61 110 -64 q 55 -28 67 -49 q 43 11 43 -7 q 46 32 43 21 q 49 40 47 38 q 54 48 51 43 q 63 53 57 53 q 72 47 69 53 q 74 42 74 44 q 94 -3 76 13 q 133 -26 113 -19 q 188 -36 158 -35 q 327 5 256 -36 q 466 112 399 46 q 594 259 533 178 q 699 422 654 340 q 769 575 743 503 q 796 694 796 647 q 781 765 796 739 q 746 803 765 790 q 706 819 726 815 q 676 822 686 822 q 556 794 621 822 q 438 717 492 765 q 347 606 383 669 q 311 469 311 542 q 329 410 311 438 q 396 383 347 383 q 483 402 436 383 q 572 456 531 421 q 640 540 613 490 q 668 651 668 590 q 668 662 668 657 q 667 674 668 667 q 668 683 667 678 q 682 693 671 693 q 699 686 692 692 q 710 673 706 682 q 715 646 715 664 q 685 538 715 590 q 608 446 656 486 q 506 381 561 406 q 397 356 450 356 q 332 367 358 356 q 290 397 306 378 q 268 440 275 415 q 261 493 261 465 q 292 613 261 550 q 378 727 322 675 q 511 813 433 779 q 685 847 589 847 q 765 826 729 844 q 821 776 796 811 q 846 678 846 742 z "}," ":{"ha":278,"x_min":0,"x_max":0,"o":""},"Š":{"ha":1510,"x_min":39,"x_max":1472,"o":"m 1144 1142 q 1128 1126 1144 1132 q 1086 1106 1106 1119 q 1051 1080 1067 1093 q 1024 1057 1036 1067 q 1003 1047 1011 1047 q 988 1056 990 1047 q 985 1079 986 1065 q 980 1110 985 1093 q 957 1146 975 1128 q 947 1161 947 1156 q 951 1168 947 1168 q 967 1163 957 1168 q 989 1147 978 1157 q 1011 1125 1000 1138 q 1028 1100 1022 1113 q 1056 1119 1040 1111 q 1087 1134 1072 1128 q 1113 1144 1101 1140 q 1128 1147 1125 1147 q 1139 1147 1133 1147 q 1144 1142 1144 1146 m 1472 13 q 1468 -1 1472 7 q 1457 -15 1464 -8 q 1442 -27 1450 -22 q 1426 -32 1435 -32 l 69 -32 q 39 -21 39 -32 q 61 10 39 -8 q 115 29 83 29 q 177 29 119 29 q 321 30 235 29 q 508 31 407 31 q 699 33 608 32 q 857 33 790 33 q 942 33 924 33 q 1014 41 971 33 q 1097 67 1057 49 q 1166 116 1138 86 q 1194 189 1194 146 q 1147 283 1194 240 q 1022 362 1100 326 q 845 428 944 397 q 642 485 746 458 q 440 538 539 513 q 263 588 340 563 q 138 642 185 614 q 90 701 90 669 q 112 742 90 717 q 185 797 133 768 q 321 856 236 826 q 531 910 406 886 q 826 949 656 933 q 1218 964 996 964 q 1323 958 1282 964 q 1388 942 1364 951 q 1422 923 1413 933 q 1431 906 1431 913 q 1418 890 1431 896 q 1389 880 1406 883 q 1356 876 1372 876 q 1332 875 1340 875 q 1321 877 1325 875 q 1317 888 1317 879 q 1306 899 1317 894 q 1270 908 1296 904 q 1201 913 1244 911 q 1089 915 1157 915 q 667 896 843 915 q 376 849 490 876 q 207 792 261 822 q 153 740 153 761 q 200 685 153 711 q 325 634 247 660 q 501 582 403 608 q 703 528 600 556 q 906 468 807 500 q 1082 399 1004 436 q 1207 317 1160 361 q 1254 219 1254 272 q 1233 147 1254 178 q 1181 92 1211 115 q 1115 53 1150 68 q 1054 26 1081 38 q 1167 25 1111 26 q 1269 24 1215 24 q 1365 24 1322 24 q 1416 24 1394 24 q 1444 25 1438 25 q 1472 13 1472 25 z "},"š":{"ha":361,"x_min":-10,"x_max":415,"o":"m 415 368 q 399 353 415 358 q 357 333 376 346 q 322 306 338 319 q 294 283 307 293 q 274 274 282 274 q 259 283 261 274 q 256 306 257 292 q 251 337 256 319 q 228 372 246 354 q 218 388 218 382 q 222 394 218 394 q 238 389 228 394 q 260 374 249 383 q 282 351 271 364 q 299 326 293 339 q 327 346 311 338 q 358 360 343 354 q 384 370 372 367 q 399 374 396 374 q 410 373 404 374 q 415 368 415 372 m 336 181 q 318 123 336 156 q 269 60 300 90 q 199 10 239 31 q 113 -10 158 -10 q 73 0 89 -10 q 57 28 57 10 q 58 33 57 32 q 70 47 61 39 q 89 56 79 56 q 97 53 92 56 q 126 33 108 46 q 164 19 143 19 q 213 33 189 19 q 253 68 236 47 q 282 113 271 89 q 293 154 293 136 q 285 178 293 169 q 258 188 276 188 q 215 173 242 188 q 158 139 189 158 q 97 101 128 119 q 42 72 65 82 q 21 64 32 68 q -3 54 10 60 q -8 58 -6 54 q -10 64 -10 61 q -6 71 -10 69 q 15 80 6 75 q 33 88 25 85 q 83 113 54 96 q 141 149 113 131 q 192 181 169 167 q 221 199 214 194 q 249 213 231 204 q 292 221 268 221 q 326 210 315 221 q 336 181 336 199 z "},"Ý":{"ha":1224,"x_min":-140,"x_max":1482,"o":"m 1239 976 q 1221 943 1239 958 q 1181 917 1203 928 q 1138 899 1158 906 q 1114 893 1118 893 q 1103 894 1108 893 q 1097 899 1097 894 q 1114 914 1097 908 q 1153 935 1138 921 q 1182 962 1169 949 q 1204 985 1194 975 q 1222 994 1214 994 q 1239 976 1239 994 m 1482 -129 q 1475 -154 1482 -143 q 1453 -165 1468 -165 q 1374 -161 1425 -164 q 1253 -158 1324 -158 q 989 -168 1111 -158 q 760 -197 867 -178 q 542 -451 651 -329 q 331 -667 433 -574 q 138 -815 229 -760 q -25 -871 47 -871 q -114 -830 -87 -871 q -124 -724 -140 -789 q -49 -576 -108 -658 q 118 -414 10 -494 q 385 -262 226 -333 q 756 -144 543 -190 q 898 39 829 -51 q 1027 210 967 129 q 1138 356 1088 290 q 1226 463 1189 421 q 1234 472 1229 465 q 1239 481 1239 478 q 1236 482 1239 482 q 1222 471 1233 482 q 1105 376 1171 429 q 963 267 1039 322 q 806 160 888 213 q 640 67 724 108 q 474 1 556 26 q 317 -24 392 -24 q 223 -6 265 -24 q 149 42 181 13 q 101 110 118 72 q 83 190 83 149 q 128 390 83 289 q 258 585 174 490 q 465 764 343 679 q 738 917 586 849 q 747 919 743 919 q 760 908 760 919 q 754 900 760 904 q 650 847 711 882 q 524 763 589 813 q 394 653 458 714 q 278 524 329 593 q 194 381 226 456 q 163 231 163 307 q 179 144 163 183 q 225 76 196 104 q 294 33 254 49 q 378 18 333 18 q 497 41 431 18 q 638 102 564 64 q 792 190 713 140 q 947 294 871 240 q 1094 404 1024 349 q 1222 510 1164 460 q 1322 599 1279 560 q 1383 661 1364 639 q 1404 678 1394 678 q 1417 669 1407 678 q 1426 650 1426 660 q 1424 640 1426 646 q 1413 624 1421 633 q 1300 489 1365 571 q 1157 307 1235 407 q 992 94 1079 207 q 814 -132 906 -18 q 1067 -97 933 -108 q 1356 -85 1201 -85 q 1409 -86 1383 -85 q 1460 -90 1435 -87 q 1476 -103 1469 -92 q 1482 -129 1482 -115 m 704 -208 q 376 -308 513 -247 q 149 -438 239 -369 q 13 -576 60 -507 q -47 -701 -35 -646 q -40 -792 -58 -757 q 22 -828 -21 -828 q 158 -776 81 -828 q 326 -637 236 -724 q 512 -440 415 -551 q 704 -208 608 -328 z "},"ý":{"ha":404,"x_min":-474,"x_max":446,"o":"m 414 400 q 396 367 414 382 q 356 340 378 351 q 313 323 333 329 q 289 317 293 317 q 278 317 283 317 q 272 322 272 318 q 289 338 272 332 q 328 358 313 344 q 357 385 344 372 q 379 408 369 399 q 397 418 389 418 q 414 400 414 418 m 446 -89 q 417 -107 446 -107 q 369 -102 403 -104 q 293 -100 335 -100 q 218 -102 254 -100 q 146 -110 182 -104 q -13 -322 67 -218 q -166 -508 -93 -426 q -302 -639 -239 -589 q -411 -689 -365 -689 q -459 -662 -444 -689 q -474 -604 -474 -636 q -422 -428 -474 -511 q -284 -276 -369 -344 q -89 -158 -199 -207 q 135 -83 21 -108 q 201 9 171 -35 q 254 89 231 53 q 256 92 256 90 q 253 96 256 96 q 249 93 251 96 q 210 68 235 82 q 160 42 186 54 q 108 22 133 31 q 65 14 82 14 q 22 54 22 14 q 38 96 22 71 q 76 146 54 121 q 117 191 97 171 q 146 217 138 211 q 147 218 146 218 l 153 218 q 164 214 160 218 q 165 210 165 213 q 100 130 117 161 q 83 82 83 99 q 90 64 83 71 q 103 54 96 57 q 121 50 111 50 q 190 74 150 50 q 268 126 231 97 q 333 181 306 156 q 364 210 361 206 q 371 214 368 214 q 375 208 375 214 q 367 189 375 199 q 270 60 319 126 q 171 -76 221 -7 q 250 -66 211 -69 q 328 -62 289 -62 q 381 -63 358 -62 q 418 -64 403 -64 q 442 -71 438 -64 q 446 -89 446 -78 m 113 -117 q -110 -190 -11 -140 q -278 -306 -210 -240 q -384 -445 -347 -371 q -421 -590 -421 -519 q -410 -631 -421 -610 q -375 -651 -399 -651 q -324 -628 -356 -651 q -253 -567 -293 -606 q -168 -475 -214 -528 q -74 -362 -122 -422 q 22 -240 -26 -303 q 113 -117 69 -178 z "},"Þ":{"ha":1147,"x_min":-64,"x_max":1429,"o":"m 1429 967 q 1413 950 1429 963 q 1295 841 1354 907 q 1174 696 1236 775 q 1283 601 1243 660 q 1324 460 1324 543 q 1291 347 1324 401 q 1203 251 1258 293 q 1078 185 1149 210 q 933 160 1008 160 q 850 173 889 160 q 783 206 811 186 q 658 82 722 139 q 525 -17 593 25 q 385 -83 457 -60 q 238 -107 313 -107 q 114 -85 169 -107 q 19 -24 58 -62 q -42 69 -21 15 q -64 185 -64 122 q -24 350 -64 274 q 85 491 17 426 q 244 606 153 556 q 437 690 335 656 q 647 743 539 725 q 854 761 754 761 q 1008 749 936 761 q 1142 711 1081 736 q 1269 857 1206 790 q 1396 968 1332 924 q 1417 972 1404 972 q 1429 967 1429 972 m 1263 425 q 1227 551 1263 499 q 1131 640 1192 604 q 979 442 1057 544 q 818 244 901 340 q 894 203 854 213 q 972 193 933 193 q 1090 210 1038 192 q 1182 260 1143 228 q 1242 335 1221 292 q 1263 425 1263 378 m 1099 657 q 965 698 1039 685 q 810 711 892 711 q 625 696 719 711 q 442 651 531 681 q 274 579 353 622 q 135 481 194 536 q 42 360 76 426 q 7 217 7 293 q 28 100 7 151 q 88 13 50 49 q 178 -42 126 -24 q 292 -61 231 -61 q 416 -40 356 -61 q 535 20 476 -18 q 649 110 593 58 q 758 224 704 163 q 724 281 724 254 q 733 303 724 293 q 753 313 742 313 q 767 305 761 313 q 781 286 774 297 q 788 276 785 281 q 796 267 792 271 q 949 460 875 358 q 1099 657 1024 561 z "},"þ":{"ha":454,"x_min":-656,"x_max":611,"o":"m 611 833 q 422 518 529 689 q 193 174 314 347 q 301 217 253 201 q 382 232 350 232 q 421 219 401 232 q 440 188 440 206 q 410 129 440 158 q 340 77 381 100 q 256 39 299 54 q 186 24 213 24 q 154 34 161 24 q 142 50 147 44 q 140 56 140 51 q 145 69 140 63 q 157 81 150 75 q 170 90 164 86 q 181 93 176 93 q 194 88 190 93 q 200 75 197 82 q 212 63 203 69 q 239 56 221 56 q 287 65 263 56 q 331 91 311 75 q 365 126 351 107 q 378 163 378 144 q 365 187 378 181 q 336 193 351 193 q 267 178 310 193 q 168 138 224 164 q -58 -170 56 -22 q -273 -431 -171 -318 q -458 -612 -375 -544 q -593 -681 -542 -681 q -637 -667 -619 -681 q -656 -624 -656 -653 q -619 -499 -656 -567 q -522 -359 -583 -431 q -381 -215 -461 -287 q -212 -77 -300 -143 q -35 46 -125 -11 q 135 144 54 103 q 360 489 251 313 q 561 836 469 665 q 570 843 564 842 q 582 844 576 844 q 601 842 590 844 q 611 833 611 840 m 110 108 q -41 19 39 71 q -199 -92 -121 -32 q -349 -216 -278 -151 q -474 -347 -419 -281 q -561 -476 -529 -412 q -593 -596 -593 -539 q -585 -622 -593 -607 q -554 -637 -578 -637 q -453 -579 -521 -637 q -297 -419 -386 -521 q -103 -182 -207 -318 q 110 108 1 -46 z "},"Ž":{"ha":893,"x_min":-350,"x_max":1499,"o":"m 1124 1101 q 1107 1086 1124 1092 q 1065 1066 1085 1079 q 1031 1040 1046 1053 q 1003 1017 1015 1026 q 982 1007 990 1007 q 967 1016 969 1007 q 965 1039 965 1025 q 959 1070 964 1053 q 936 1106 954 1088 q 926 1121 926 1115 q 931 1128 926 1128 q 947 1122 936 1128 q 968 1107 957 1117 q 990 1085 979 1097 q 1007 1060 1001 1072 q 1035 1079 1019 1071 q 1066 1094 1051 1088 q 1092 1103 1081 1100 q 1107 1107 1104 1107 q 1118 1106 1113 1107 q 1124 1101 1124 1106 m 1499 649 q 1442 536 1499 578 q 1294 472 1386 494 q 1082 442 1201 449 q 836 435 963 435 q 634 437 733 435 q 444 439 535 439 q 389 436 408 439 q 369 424 369 433 q 390 385 369 403 q 442 347 411 367 q 510 303 474 328 q 578 245 547 279 q 631 165 610 211 q 651 54 651 118 q 619 -100 651 -12 q 820 -76 715 -85 q 1042 -67 925 -67 q 1276 -72 1179 -67 q 1439 -81 1374 -78 q 1458 -87 1450 -82 q 1465 -101 1465 -93 q 1444 -131 1465 -117 q 1399 -146 1422 -146 q 1319 -144 1379 -146 q 1178 -141 1260 -143 q 1005 -137 1097 -139 q 829 -136 913 -136 q 711 -140 768 -136 q 600 -151 654 -144 q 514 -312 567 -229 q 396 -475 461 -396 q 255 -625 331 -554 q 98 -749 179 -696 q -67 -834 17 -803 q -229 -865 -150 -865 q -319 -835 -289 -865 q -350 -753 -350 -804 q -294 -592 -350 -685 q -124 -405 -239 -499 q 166 -231 -10 -311 q 582 -106 342 -150 q 597 4 597 -47 q 575 122 597 72 q 519 210 553 172 q 447 274 486 247 q 374 320 407 300 q 318 357 340 340 q 296 392 296 374 q 322 433 296 418 q 375 453 347 447 q 395 455 382 454 q 425 456 408 456 q 658 453 575 454 q 783 453 742 453 q 838 453 825 453 q 856 453 850 453 q 1074 459 969 453 q 1257 483 1178 465 q 1383 531 1336 500 q 1429 611 1429 561 q 1378 716 1429 672 q 1249 790 1328 760 q 1072 838 1169 821 q 881 865 974 856 q 708 878 788 875 q 588 881 629 881 q 464 874 535 881 q 319 853 393 867 q 172 819 244 839 q 43 772 100 799 q -49 714 -14 746 q -83 644 -83 682 q -66 603 -83 619 q -32 588 -49 588 q -26 574 -26 582 q -35 563 -26 563 q -76 581 -58 569 q -105 606 -92 590 q -118 646 -118 622 q -86 736 -118 694 q 2 812 -54 778 q 133 872 58 846 q 294 915 208 897 q 472 941 381 932 q 654 950 564 950 q 867 940 763 950 q 1065 910 971 929 q 1238 863 1158 890 q 1376 803 1318 836 q 1466 731 1433 769 q 1499 649 1499 692 m 567 -156 q 317 -215 433 -176 q 106 -303 201 -254 q -62 -410 11 -353 q -186 -523 -136 -467 q -262 -632 -236 -579 q -289 -725 -289 -685 q -258 -797 -289 -769 q -161 -822 -226 -824 q -56 -794 -118 -821 q 76 -720 6 -767 q 222 -610 147 -674 q 363 -474 296 -547 q 483 -319 429 -400 q 567 -156 538 -237 z "},"ž":{"ha":413,"x_min":-399,"x_max":444,"o":"m 428 389 q 411 374 428 379 q 369 353 389 367 q 335 327 350 340 q 307 304 319 314 q 286 294 294 294 q 272 303 274 294 q 269 326 269 313 q 263 358 268 340 q 240 393 258 375 q 231 408 231 403 q 235 415 231 415 q 251 410 240 415 q 272 394 261 404 q 294 372 283 385 q 311 347 306 360 q 340 367 324 358 q 370 381 356 375 q 397 391 385 388 q 411 394 408 394 q 422 394 417 394 q 428 389 428 393 m 444 -87 q 435 -107 444 -97 q 404 -117 425 -117 q 349 -115 390 -117 q 264 -112 307 -112 q 251 -112 257 -112 q 239 -114 246 -112 q 190 -228 225 -167 q 107 -351 156 -290 q 1 -467 58 -411 q -116 -566 -57 -524 q -231 -634 -175 -608 q -333 -660 -287 -660 q -381 -644 -364 -660 q -399 -597 -399 -628 q -347 -453 -399 -529 q -211 -308 -296 -378 q -16 -181 -126 -237 q 211 -93 94 -124 l 211 -85 q 199 -29 211 -54 q 158 14 186 -4 q 135 24 147 17 q 124 39 124 32 q 135 50 125 44 q 156 58 146 56 q 202 81 175 64 q 256 120 229 99 q 300 164 282 142 q 318 201 318 186 q 282 221 318 221 q 235 201 265 221 q 169 156 204 182 q 100 106 135 131 q 42 72 65 82 q 21 64 32 68 q -3 54 10 60 q -8 58 -6 54 q -10 64 -10 61 q -6 71 -10 69 q 15 80 6 75 q 33 88 25 85 q 88 119 54 96 q 153 165 121 142 q 212 208 186 189 q 244 232 238 228 q 273 246 254 238 q 315 254 292 254 q 347 242 332 254 q 361 210 361 231 q 341 159 361 183 q 293 114 321 135 q 238 77 265 93 q 196 53 211 61 q 192 49 192 51 q 201 38 192 43 q 220 21 210 32 q 239 -10 231 10 q 247 -60 247 -29 q 247 -72 247 -67 q 244 -85 246 -78 q 328 -72 286 -76 q 411 -67 371 -67 q 433 -72 422 -68 q 444 -87 444 -76 m 207 -118 q 94 -149 154 -126 q -27 -206 33 -172 q -144 -283 -87 -240 q -243 -373 -200 -325 q -312 -473 -286 -421 q -337 -576 -337 -525 q -331 -612 -337 -597 q -301 -628 -325 -628 q -222 -604 -269 -628 q -120 -540 -174 -581 q -12 -448 -67 -500 q 88 -339 42 -396 q 166 -225 133 -282 q 207 -118 199 -168 z "},"−":{"ha":617,"x_min":206,"x_max":643,"o":"m 643 383 q 635 361 643 365 q 551 369 596 365 q 467 374 514 372 q 375 376 421 376 q 282 372 325 376 q 214 358 239 368 q 206 378 206 364 q 235 400 206 392 q 306 413 264 408 q 393 418 347 417 q 472 419 439 419 q 563 417 521 419 q 632 410 604 414 q 640 401 638 408 q 643 383 643 393 z "},"ł":{"ha":272,"x_min":-60,"x_max":846,"o":"m 846 861 q 803 746 846 813 q 691 604 760 679 q 537 452 622 529 q 366 305 451 375 q 203 178 281 235 q 76 89 126 122 q 51 -75 51 -1 l 51 -93 q 48 -110 51 -103 q 31 -121 44 -118 q 19 -122 26 -122 q -2 -113 4 -122 q -8 -93 -8 -104 q 38 126 -6 6 q 153 368 82 246 q 131 369 142 369 q 110 369 121 369 q 17 365 60 369 q -51 351 -26 361 q -60 371 -60 357 q -35 391 -60 383 q 24 403 -11 399 q 102 410 60 408 q 179 413 144 413 q 320 613 243 517 q 477 781 397 708 q 634 898 557 854 q 776 942 711 942 q 829 926 813 942 q 846 861 846 911 m 790 857 q 780 890 790 875 q 743 904 769 904 q 615 863 683 904 q 476 754 546 822 q 340 597 406 686 q 218 413 274 508 q 301 409 263 411 q 367 403 339 407 q 375 394 372 401 q 378 376 378 386 q 369 354 378 358 q 317 358 344 356 q 261 363 293 361 q 193 367 229 365 q 131 238 158 301 q 83 111 103 174 q 206 199 133 143 q 356 322 278 254 q 513 466 435 390 q 652 615 590 542 q 752 751 714 688 q 790 857 790 814 z "},"!":{"ha":625,"x_min":103,"x_max":794,"o":"m 794 815 q 783 793 794 806 q 597 588 692 694 q 513 489 557 542 q 423 380 468 436 q 333 264 378 324 q 247 146 288 204 q 238 133 243 139 q 225 128 232 128 q 213 135 215 128 q 211 153 211 142 q 306 289 264 229 q 387 399 349 349 q 460 494 425 449 q 537 588 496 539 q 627 692 578 636 q 739 817 676 747 q 756 829 750 826 q 768 832 763 832 q 785 828 775 832 q 794 815 794 825 m 199 15 q 176 -29 197 -11 q 138 -47 156 -47 q 112 -37 121 -47 q 103 -18 103 -28 q 122 25 103 6 q 164 44 140 44 q 184 41 176 46 q 194 31 192 36 q 199 15 199 25 z "},"\"":{"ha":567,"x_min":392,"x_max":722,"o":"m 722 726 q 718 715 722 722 l 551 540 q 532 531 542 531 q 521 540 521 531 l 522 544 l 661 736 q 690 747 672 747 q 713 742 703 747 q 722 726 722 736 m 593 726 q 589 715 593 722 l 422 540 q 403 531 413 531 q 392 540 392 531 l 393 544 l 532 736 q 561 747 543 747 q 583 742 574 747 q 593 726 593 736 z "},"#":{"ha":629,"x_min":160,"x_max":796,"o":"m 796 525 q 788 503 796 507 q 742 507 767 504 q 694 512 721 510 q 635 515 667 514 l 600 426 q 678 422 642 425 q 739 417 714 419 q 747 408 744 415 q 750 390 750 400 q 742 368 750 372 q 694 372 719 369 q 643 377 672 375 q 582 381 614 379 l 513 200 q 506 187 510 193 q 492 178 501 181 q 476 197 476 178 l 542 382 q 512 383 526 383 q 482 383 497 383 q 442 383 467 383 q 388 381 417 382 l 318 203 q 311 190 315 196 q 297 181 307 183 q 282 200 282 181 l 344 378 q 287 374 315 376 q 235 369 258 371 q 193 364 211 367 q 168 358 175 361 q 160 378 160 364 q 176 391 160 385 q 221 402 193 397 q 284 410 249 407 q 358 417 319 414 l 392 513 q 334 508 363 511 q 281 503 306 506 q 239 499 257 501 q 214 493 221 496 q 206 513 206 499 q 222 526 206 519 q 267 537 239 532 q 331 546 294 542 q 406 553 367 550 l 460 706 q 467 718 461 713 q 497 729 478 729 q 515 714 515 729 q 510 694 515 708 l 456 556 q 538 559 499 558 q 604 561 576 560 l 654 703 q 661 715 656 710 q 692 726 672 726 q 710 711 710 726 q 704 692 710 706 l 653 561 q 727 557 693 560 q 785 551 761 554 q 793 542 790 550 q 796 525 796 535 m 589 517 q 558 518 574 518 q 528 518 543 518 q 490 517 513 518 q 439 515 467 517 l 403 421 q 488 424 447 424 q 557 426 529 425 l 589 517 l 589 517 z "},"$":{"ha":751,"x_min":31,"x_max":956,"o":"m 956 913 q 944 890 956 903 q 925 865 936 881 q 902 836 915 853 q 874 799 889 819 q 899 770 889 788 q 908 728 908 753 q 897 680 908 706 q 866 631 885 654 q 825 592 847 608 q 782 572 803 576 q 778 571 781 572 q 767 569 775 569 q 751 579 751 569 q 766 594 757 589 q 785 606 775 600 q 804 617 794 611 q 819 633 814 624 q 842 681 838 658 q 847 718 847 703 q 838 753 847 739 q 723 603 788 688 q 585 422 658 518 q 655 310 625 361 q 685 200 685 258 q 671 128 685 169 q 613 39 657 86 q 515 -34 569 -8 q 411 -72 460 -60 q 328 -87 363 -85 q 293 -89 294 -89 q 249 -87 269 -89 q 208 -82 228 -85 q 156 -154 181 -119 q 113 -218 132 -189 q 103 -231 108 -225 q 90 -236 97 -236 q 78 -229 81 -236 q 76 -211 76 -222 q 123 -144 99 -179 q 174 -74 147 -110 q 95 -37 124 -60 q 52 12 67 -14 q 34 62 38 38 q 31 103 31 86 q 61 138 39 138 q 86 123 75 138 q 97 85 97 108 q 100 53 97 71 q 113 17 103 35 q 142 -18 124 -1 q 193 -46 161 -35 q 353 170 268 57 q 525 401 438 283 q 504 431 514 418 q 488 454 494 444 q 472 475 479 465 q 435 549 442 518 q 429 599 429 579 q 453 671 429 632 q 522 744 478 710 q 630 801 567 778 q 771 824 693 824 q 800 822 785 824 q 831 817 815 821 q 866 866 849 842 q 900 914 883 890 q 917 926 911 924 q 929 929 924 929 q 946 926 936 929 q 956 913 956 922 m 803 778 q 743 789 774 789 q 667 777 711 789 q 583 742 622 765 q 515 688 543 719 q 488 614 488 656 q 496 572 488 600 q 535 500 504 544 q 564 454 554 471 q 686 618 626 538 q 803 778 746 699 m 622 186 q 615 228 622 206 q 598 275 608 251 q 574 323 588 299 q 546 369 560 347 q 381 150 463 260 q 228 -56 299 40 q 261 -60 243 -58 q 301 -62 279 -62 q 399 -47 351 -60 q 483 -16 439 -36 q 561 42 528 4 q 610 119 597 82 q 622 186 622 156 z "},"%":{"ha":1043,"x_min":233,"x_max":1047,"o":"m 1047 303 q 1019 188 1047 249 q 949 77 992 128 q 853 -8 906 26 q 750 -42 800 -42 q 681 -15 703 -42 q 660 56 660 11 q 678 152 660 104 q 725 241 697 200 q 784 313 753 282 q 839 356 815 343 q 842 357 840 356 q 849 358 843 358 q 853 357 851 358 q 851 354 853 356 q 849 351 850 353 q 846 347 849 350 q 829 333 839 342 q 790 289 810 317 l 790 286 q 792 283 790 285 l 794 286 q 853 335 822 314 q 913 368 879 353 q 981 383 946 383 q 1014 376 1001 383 q 1034 358 1026 369 q 1044 331 1042 346 q 1047 303 1047 317 m 635 700 q 607 585 635 646 q 536 474 579 525 q 440 390 493 424 q 338 356 388 356 q 269 382 290 356 q 247 453 247 408 q 266 549 247 501 q 313 638 285 597 q 372 710 340 679 q 426 753 403 740 q 429 754 428 753 q 436 756 431 756 q 440 754 439 756 q 439 751 440 753 q 437 749 438 750 q 433 744 436 747 q 417 731 426 739 q 378 686 397 714 l 378 683 q 379 681 378 682 l 382 683 q 440 732 410 711 q 500 765 467 750 q 568 781 533 781 q 601 774 589 781 q 622 755 614 767 q 632 728 629 743 q 635 700 635 714 m 994 760 q 983 738 994 750 q 708 421 842 578 q 591 282 651 354 q 473 138 531 210 q 363 -3 415 65 q 269 -131 310 -72 q 260 -143 265 -137 q 247 -149 254 -149 q 235 -142 238 -149 q 233 -124 233 -135 q 572 328 394 107 q 939 761 749 550 q 956 774 950 771 q 968 776 963 776 q 985 773 975 776 q 994 760 994 769 m 1000 289 q 991 331 1000 315 q 958 346 982 346 q 908 334 936 346 q 852 301 881 322 q 797 252 824 281 q 749 192 771 224 q 715 124 728 160 q 703 54 703 89 q 716 8 703 26 q 763 -10 729 -10 q 840 20 799 -10 q 917 95 882 50 q 976 192 953 140 q 1000 289 1000 244 m 588 686 q 578 728 588 713 q 546 743 569 743 q 496 731 524 743 q 440 699 468 719 q 385 649 411 678 q 337 589 358 621 q 303 522 315 557 q 290 451 290 486 q 303 406 290 424 q 350 388 317 388 q 428 417 386 388 q 505 492 469 447 q 564 590 540 538 q 588 686 588 642 z "},"&":{"ha":868,"x_min":24,"x_max":982,"o":"m 982 344 q 967 330 982 335 q 932 322 953 325 q 888 317 911 318 q 850 313 865 315 q 828 290 839 300 q 810 271 818 279 l 793 254 q 744 173 754 214 q 735 104 735 132 q 735 87 735 94 q 738 72 736 79 q 740 60 739 65 q 742 56 742 58 q 735 51 742 51 q 713 74 722 51 q 704 114 704 96 q 708 153 704 136 q 713 174 713 171 q 711 176 713 176 q 707 175 708 176 q 704 174 706 174 q 549 60 621 107 q 413 -15 476 14 q 293 -58 349 -44 q 185 -71 238 -71 q 100 -57 132 -71 q 51 -24 68 -43 q 29 19 35 -4 q 24 61 24 43 q 63 181 24 126 q 160 280 101 236 q 288 357 218 324 q 421 413 358 390 q 529 446 483 435 q 585 457 575 457 q 596 463 596 458 q 590 469 596 467 q 583 472 588 471 q 556 476 575 475 q 513 478 538 478 q 462 479 489 479 q 411 479 435 479 q 349 484 374 479 q 310 497 324 489 q 290 515 296 506 q 285 535 285 525 q 314 596 285 564 q 390 658 343 628 q 497 714 438 688 q 619 760 557 740 q 741 792 682 781 q 844 804 800 804 q 885 800 871 804 q 908 790 900 796 q 917 780 915 785 q 918 774 918 775 q 910 755 918 767 q 871 743 903 743 q 857 745 868 743 q 832 749 846 747 q 804 753 818 751 q 779 754 790 754 q 699 745 744 754 q 608 722 654 736 q 517 686 561 707 q 438 642 472 665 q 381 594 403 619 q 360 546 360 569 q 364 535 360 542 q 382 522 368 528 q 423 511 396 515 q 496 507 450 507 q 535 506 507 507 q 594 503 563 506 q 656 497 626 501 q 696 483 685 492 q 701 476 699 481 q 706 463 706 471 q 693 449 706 454 q 622 438 674 449 q 504 406 571 426 q 366 352 438 385 q 235 276 294 319 q 136 176 175 232 q 97 53 97 121 q 99 29 97 44 q 113 -2 101 14 q 147 -30 124 -18 q 213 -42 169 -42 q 319 -24 257 -42 q 453 33 382 -6 q 601 129 525 71 q 750 267 678 188 q 757 278 753 272 q 765 291 760 283 q 776 307 769 299 q 708 303 736 304 q 669 303 681 303 q 647 306 650 303 q 643 313 643 310 q 651 322 646 317 q 699 335 663 331 q 731 339 714 336 q 765 343 746 342 q 807 347 785 344 q 843 388 824 368 q 883 424 863 408 q 910 438 900 435 q 924 440 921 440 q 932 431 932 439 q 925 410 932 424 q 910 385 918 397 q 888 354 900 369 q 917 356 903 356 q 942 356 931 356 q 965 354 957 356 q 976 350 972 353 q 982 344 982 347 z "},"'":{"ha":438,"x_min":392,"x_max":593,"o":"m 593 726 q 589 715 593 722 l 422 540 q 403 531 413 531 q 392 540 392 531 l 393 544 l 532 736 q 561 747 543 747 q 583 742 574 747 q 593 726 593 736 z "},"(":{"ha":425,"x_min":171,"x_max":656,"o":"m 656 1093 q 649 1078 656 1085 q 476 792 557 935 q 337 494 396 650 q 243 165 278 339 q 208 -212 208 -8 l 208 -257 q 197 -274 208 -274 q 184 -255 189 -274 q 176 -207 179 -236 q 172 -142 172 -178 q 171 -74 171 -107 q 197 238 171 96 q 277 512 224 381 q 410 772 331 643 q 596 1044 490 901 q 649 1100 638 1100 q 656 1093 656 1100 z "},")":{"ha":360,"x_min":42,"x_max":526,"o":"m 526 901 q 500 590 526 732 q 420 316 474 447 q 288 56 367 185 q 101 -217 208 -74 q 49 -272 60 -272 q 42 -265 42 -272 q 49 -250 42 -257 q 221 36 140 -107 q 360 334 301 179 q 454 663 419 489 q 489 1040 489 836 l 489 1085 q 500 1101 489 1101 q 513 1083 508 1101 q 522 1035 518 1064 q 526 970 525 1006 q 526 901 526 935 z "},"*":{"ha":438,"x_min":265,"x_max":476,"o":"m 476 517 q 458 501 476 501 l 396 525 l 418 475 q 419 469 419 472 q 411 449 419 458 q 396 439 403 439 q 388 442 390 439 q 383 450 386 444 l 364 517 l 336 468 q 314 460 329 460 q 299 464 306 460 q 292 475 292 468 q 292 479 292 478 q 294 483 293 481 l 347 538 l 286 546 q 271 560 276 551 q 265 576 265 569 q 283 590 265 590 l 347 565 q 333 597 339 586 q 326 614 328 608 q 323 622 324 619 q 322 624 322 624 q 331 643 322 633 q 346 653 339 653 q 353 650 351 653 q 358 642 356 647 l 376 575 l 406 624 q 428 632 413 632 q 443 628 436 632 q 450 617 450 624 q 449 610 450 613 q 442 603 447 608 q 426 586 438 597 q 394 553 415 575 l 456 546 q 472 532 467 540 q 476 517 476 524 z "},"+":{"ha":592,"x_min":206,"x_max":643,"o":"m 643 383 q 635 361 643 365 q 574 367 606 364 q 511 372 546 369 q 438 375 476 374 l 364 203 q 357 190 361 196 q 343 181 353 183 q 328 200 328 181 l 393 376 l 375 376 q 282 372 325 376 q 214 358 239 368 q 206 378 206 364 q 224 396 206 389 q 273 408 243 403 q 339 415 303 413 q 410 418 375 417 l 475 593 q 482 606 476 600 q 513 617 493 617 q 531 601 531 617 q 525 582 531 596 l 456 419 l 472 419 q 563 417 521 419 q 632 410 604 414 q 640 401 638 408 q 643 383 643 393 z "},",":{"ha":367,"x_min":47,"x_max":178,"o":"m 178 46 q 167 8 178 28 q 140 -28 157 -11 q 103 -57 124 -44 q 61 -72 82 -69 q 47 -67 47 -72 q 58 -58 47 -58 q 71 -55 60 -58 q 95 -44 82 -51 q 119 -26 108 -36 q 129 -6 129 -17 q 124 1 129 -1 q 111 6 118 3 q 99 16 104 8 q 93 38 93 24 q 108 68 93 53 q 138 83 124 83 q 167 71 157 83 q 178 46 178 58 z "},"-":{"ha":617,"x_min":206,"x_max":643,"o":"m 643 383 q 635 361 643 365 q 551 369 596 365 q 467 374 514 372 q 375 376 421 376 q 282 372 325 376 q 214 358 239 368 q 206 378 206 364 q 235 400 206 392 q 306 413 264 408 q 393 418 347 417 q 472 419 439 419 q 563 417 521 419 q 632 410 604 414 q 640 401 638 408 q 643 383 643 393 z "},".":{"ha":374,"x_min":100,"x_max":185,"o":"m 185 60 q 179 38 185 50 q 165 16 174 26 q 147 -1 157 6 q 125 -8 136 -8 q 100 14 100 -8 q 106 35 100 24 q 119 58 111 47 q 139 75 128 68 q 160 82 150 82 q 185 60 185 82 z "},"/":{"ha":694,"x_min":-40,"x_max":1088,"o":"m 1088 1118 q 1076 1096 1088 1108 q 618 569 832 819 q 433 353 526 464 q 256 141 340 243 q 104 -48 172 39 q -4 -193 36 -135 q -14 -206 -8 -200 q -26 -211 -19 -211 q -38 -204 -36 -211 q -40 -186 -40 -197 q 57 -54 0 -129 q 182 107 114 21 q 326 287 250 193 q 481 476 403 381 q 638 664 560 571 q 788 840 717 757 q 922 995 860 924 q 1032 1119 985 1067 q 1049 1132 1043 1129 q 1061 1135 1056 1135 q 1078 1131 1068 1135 q 1088 1118 1088 1128 z "},":":{"ha":374,"x_min":100,"x_max":288,"o":"m 288 242 q 282 220 288 232 q 268 198 276 208 q 249 181 260 188 q 228 174 239 174 q 203 196 203 174 q 208 217 203 206 q 222 240 214 229 q 242 257 231 250 q 263 264 253 264 q 288 242 288 264 m 185 60 q 179 38 185 50 q 165 16 174 26 q 147 -1 157 6 q 125 -8 136 -8 q 100 14 100 -8 q 106 35 100 24 q 119 58 111 47 q 139 75 128 68 q 160 82 150 82 q 185 60 185 82 z "},";":{"ha":367,"x_min":47,"x_max":246,"o":"m 246 242 q 240 220 246 232 q 226 198 235 208 q 208 181 218 188 q 186 174 197 174 q 161 196 161 174 q 167 217 161 206 q 181 240 172 229 q 200 257 189 250 q 221 264 211 264 q 246 242 246 264 m 178 46 q 167 8 178 28 q 140 -28 157 -11 q 103 -57 124 -44 q 61 -72 82 -69 q 47 -67 47 -72 q 58 -58 47 -58 q 71 -55 60 -58 q 95 -44 82 -51 q 119 -26 108 -36 q 129 -6 129 -17 q 124 1 129 -1 q 111 6 118 3 q 99 16 104 8 q 93 38 93 24 q 108 68 93 53 q 138 83 124 83 q 167 71 157 83 q 178 46 178 58 z "},"<":{"ha":796,"x_min":265,"x_max":939,"o":"m 939 554 q 928 540 939 547 q 903 528 918 532 l 363 378 l 783 226 q 800 211 800 222 q 781 196 800 196 q 775 197 779 196 q 756 202 771 197 q 710 217 740 207 q 624 247 679 228 q 486 294 569 265 q 282 364 403 322 q 274 368 278 365 q 265 378 265 374 q 272 387 265 382 q 294 396 278 392 l 890 556 q 924 563 914 563 q 939 554 939 563 z "},"=":{"ha":715,"x_min":261,"x_max":828,"o":"m 828 457 q 819 435 828 439 q 736 443 781 439 q 652 448 699 446 q 560 450 606 450 q 498 448 535 450 q 425 442 461 446 q 358 434 389 439 q 315 425 328 429 q 307 444 307 431 q 326 460 307 453 q 378 474 346 468 q 449 483 410 479 q 526 488 488 486 q 600 492 565 490 q 657 493 635 493 q 747 490 706 493 q 817 483 789 488 q 825 474 822 482 q 828 457 828 467 m 782 322 q 774 300 782 304 q 690 308 735 304 q 606 313 653 311 q 514 315 560 315 q 452 313 489 315 q 379 308 415 311 q 313 299 343 304 q 269 290 282 294 q 261 310 261 296 q 281 326 261 318 q 332 339 300 333 q 403 348 364 344 q 481 353 442 351 q 554 357 519 356 q 611 358 589 358 q 701 356 660 358 q 771 349 743 353 q 779 340 776 347 q 782 322 782 332 z "},">":{"ha":796,"x_min":183,"x_max":857,"o":"m 857 381 q 851 372 857 376 q 828 363 844 367 l 232 203 q 199 196 208 196 q 183 204 183 196 q 194 219 183 211 q 219 231 204 226 l 760 381 l 339 532 q 322 547 322 536 q 342 563 322 563 q 347 562 343 563 q 367 556 351 561 q 413 541 382 551 q 498 512 443 531 q 636 465 553 493 q 840 394 719 436 q 849 390 844 393 q 857 381 857 385 z "},"?":{"ha":656,"x_min":132,"x_max":886,"o":"m 886 725 q 865 658 886 692 q 805 592 843 625 q 715 523 767 558 q 603 450 663 488 q 482 369 539 413 q 432 331 457 351 q 385 288 407 310 q 344 244 363 267 q 314 199 325 221 q 307 178 313 188 q 296 163 303 169 q 278 157 289 157 q 261 165 265 157 q 257 185 257 174 q 258 200 257 196 q 260 206 260 204 q 317 283 271 240 q 415 363 363 325 q 549 451 476 407 q 645 516 597 482 q 733 585 693 550 q 797 656 772 621 q 821 721 821 690 q 811 753 821 740 q 785 773 801 765 q 751 783 769 781 q 717 786 733 786 q 601 768 657 786 q 503 723 546 750 q 433 665 460 696 q 407 611 407 635 q 418 594 407 599 q 444 590 429 590 q 500 597 472 590 l 528 604 q 542 608 536 608 q 550 599 550 608 l 550 596 q 528 564 546 575 q 489 547 511 553 q 447 539 467 540 q 419 538 428 538 q 374 544 390 538 q 351 560 358 551 q 342 578 343 569 q 340 589 340 586 q 378 673 340 632 q 476 745 417 714 q 605 795 535 776 q 739 814 675 814 q 787 810 761 814 q 835 797 813 807 q 872 770 857 788 q 886 725 886 753 m 228 15 q 206 -29 226 -11 q 167 -47 185 -47 q 141 -37 150 -47 q 132 -18 132 -28 q 151 25 132 6 q 193 44 169 44 q 213 41 206 46 q 224 31 221 36 q 228 15 228 25 z "},"@":{"ha":650,"x_min":78,"x_max":649,"o":"m 649 239 q 628 152 649 196 q 576 73 607 108 q 507 15 544 38 q 436 -8 469 -8 q 388 35 388 -8 q 391 58 388 46 q 397 79 394 69 q 406 100 401 90 q 403 104 406 104 q 400 103 401 104 q 343 65 367 78 q 303 45 319 51 q 276 38 286 39 q 257 36 265 36 q 237 40 244 36 q 226 51 229 44 q 222 63 222 57 q 221 72 221 69 q 247 142 221 107 q 308 206 272 178 q 382 251 343 233 q 446 269 421 269 q 468 263 457 269 q 479 242 479 256 q 462 206 479 221 q 429 190 444 190 q 424 191 426 190 q 421 192 422 192 l 418 192 q 415 194 415 192 q 417 199 415 197 q 418 201 418 200 q 433 219 429 213 q 436 232 436 226 q 435 239 436 238 l 433 240 q 421 243 428 243 q 385 228 410 243 q 335 191 360 214 q 291 142 310 168 q 272 93 272 117 q 276 76 272 82 q 293 71 281 71 q 421 142 335 71 q 424 143 422 142 q 429 144 425 144 q 439 142 431 144 q 447 133 447 140 q 444 128 447 133 q 432 96 438 111 q 422 67 426 82 q 418 38 418 51 q 444 10 418 10 q 494 27 465 10 q 550 75 524 44 q 594 145 576 106 q 613 231 613 185 q 573 313 613 279 q 463 347 533 347 q 408 341 442 347 q 335 320 374 335 q 259 281 297 306 q 190 222 221 257 q 139 138 158 186 q 119 26 119 89 q 143 -44 119 -14 q 219 -74 167 -74 q 265 -65 239 -74 q 317 -28 292 -57 l 318 -28 q 319 -27 319 -28 q 321 -26 319 -26 q 328 -31 326 -26 q 329 -33 328 -31 q 322 -44 329 -37 q 260 -87 290 -76 q 203 -99 229 -99 q 106 -62 135 -99 q 78 26 78 -25 q 98 127 78 81 q 151 212 118 174 q 226 280 183 250 q 313 330 268 310 q 401 360 357 350 q 479 371 444 371 q 560 358 528 371 q 613 327 593 346 q 640 285 632 308 q 649 239 649 261 z "},"A":{"ha":1458,"x_min":74,"x_max":1500,"o":"m 1500 140 q 1417 78 1465 110 q 1316 19 1369 46 q 1206 -26 1263 -8 q 1094 -43 1149 -43 q 993 -9 1033 -43 q 953 78 953 25 q 963 138 953 110 q 975 176 972 167 q 976 181 976 178 q 975 182 976 181 l 974 182 q 775 56 878 111 q 683 9 732 32 q 581 -32 633 -14 q 476 -60 529 -50 q 371 -71 422 -71 q 238 -52 294 -71 q 146 0 182 -33 q 92 79 110 33 q 74 179 74 125 q 108 344 74 256 q 206 521 142 433 q 363 690 269 608 q 572 833 456 771 q 829 933 689 896 q 1128 969 969 969 q 1260 950 1194 969 q 1378 894 1326 931 q 1463 806 1431 857 q 1496 693 1496 756 q 1483 600 1496 644 q 1451 516 1471 556 q 1405 442 1431 476 q 1351 379 1379 407 q 1207 261 1288 313 l 1204 261 q 1201 260 1203 261 q 1197 260 1200 260 q 1186 261 1194 260 q 1169 265 1178 263 q 1155 272 1161 267 q 1149 282 1149 276 q 1163 299 1149 289 q 1297 419 1239 353 q 1347 481 1322 447 q 1390 551 1371 514 q 1419 629 1408 589 q 1431 713 1431 669 q 1410 799 1431 757 q 1347 874 1389 842 q 1243 925 1306 906 q 1097 944 1181 944 q 836 910 960 944 q 607 819 713 876 q 417 685 501 761 q 274 528 333 610 q 183 365 215 447 q 151 210 151 282 q 169 115 151 158 q 222 39 186 71 q 315 -11 258 7 q 447 -29 371 -29 q 564 -12 503 -29 q 685 31 625 4 q 803 93 746 58 q 911 163 861 128 q 1002 233 961 199 q 1068 292 1043 267 q 1077 301 1074 296 q 1088 307 1081 307 q 1096 304 1090 307 q 1106 292 1106 299 q 1094 272 1106 283 q 1064 233 1078 251 q 1040 197 1050 215 q 1025 156 1031 178 q 1019 106 1019 135 q 1047 19 1019 43 q 1115 -6 1075 -6 q 1256 20 1189 -6 q 1374 76 1322 46 q 1485 157 1433 113 l 1488 157 q 1497 151 1493 157 q 1500 142 1500 146 l 1500 140 l 1500 140 z "},"B":{"ha":1079,"x_min":-429,"x_max":1186,"o":"m 1186 -68 q 1175 -94 1186 -78 q 1147 -111 1164 -111 q 1097 -111 1143 -111 q 980 -110 1051 -111 q 817 -110 908 -110 q 633 -109 726 -110 q 449 -108 539 -108 q 287 -108 358 -108 q 169 -106 215 -107 q 119 -104 124 -106 q 97 -89 97 -100 q 110 -69 97 -82 q 122 -58 117 -62 q 134 -51 128 -53 q 149 -48 140 -49 q 174 -47 158 -47 q 224 -48 182 -47 q 324 -49 265 -49 q 451 -50 382 -49 q 585 -51 521 -51 q 700 -52 649 -51 q 775 -53 751 -53 l 776 -53 q 884 49 851 1 q 917 136 917 96 q 874 223 917 185 q 760 291 832 261 q 594 341 689 321 q 396 374 500 361 q 264 208 329 290 q 145 60 199 126 q 58 -49 92 -7 q 21 -94 24 -92 l 14 -101 q 1 -108 7 -108 q -14 -94 -14 -108 q -4 -74 -14 -83 q 29 -32 -3 -72 q 112 72 61 8 q 226 217 163 136 q 353 379 289 297 q 209 390 281 386 q 67 393 138 393 q 49 410 49 393 q 49 419 49 414 q 56 432 50 425 q 83 447 65 444 q 107 449 100 449 q 142 449 111 449 q 218 448 174 449 q 313 447 263 447 q 406 447 364 447 q 497 564 454 508 q 573 661 540 619 q 625 727 606 703 q 646 753 644 751 q 660 768 649 757 q 683 779 672 779 q 701 764 701 779 q 686 736 701 749 q 665 710 685 735 q 615 647 646 686 q 542 557 583 608 q 454 447 500 506 l 458 447 q 706 467 599 447 q 887 518 814 486 q 997 591 960 550 q 1035 675 1035 632 q 994 763 1035 719 q 869 841 953 807 q 658 896 785 875 q 358 917 531 917 q 80 900 217 917 q -164 850 -57 883 q -337 768 -271 817 q -403 656 -403 719 q -392 619 -403 632 q -367 597 -381 606 q -343 585 -354 589 q -332 576 -332 581 q -350 563 -332 563 q -372 568 -358 563 q -399 585 -386 574 q -420 613 -411 596 q -429 653 -429 629 q -358 788 -429 729 q -172 885 -287 846 q 91 945 -56 925 q 389 965 238 965 q 711 943 575 965 q 935 883 847 921 q 1066 799 1024 846 q 1108 701 1108 751 q 1063 598 1108 649 q 931 507 1018 547 q 718 442 844 467 q 431 417 592 417 q 424 408 425 411 q 476 402 432 408 q 581 383 519 396 q 713 350 643 371 q 843 299 783 329 q 942 228 903 269 q 981 133 981 188 q 957 49 981 94 q 876 -50 933 3 q 874 -53 874 -53 q 878 -55 874 -54 q 886 -56 882 -56 q 907 -56 888 -56 q 955 -56 926 -56 q 1017 -56 983 -56 q 1081 -56 1050 -56 q 1135 -58 1111 -57 q 1167 -58 1158 -58 q 1180 -61 1174 -60 q 1186 -68 1186 -62 z "},"C":{"ha":1296,"x_min":3,"x_max":1314,"o":"m 1314 883 q 1299 846 1314 861 q 1265 819 1285 831 q 1215 800 1243 807 q 1206 807 1206 800 q 1215 822 1206 814 q 1235 835 1224 829 q 1246 850 1246 842 q 1237 860 1246 857 q 1218 867 1228 864 q 1123 881 1169 876 q 1032 885 1076 885 q 815 862 928 885 q 596 797 703 839 q 392 694 489 754 q 222 561 294 635 q 107 403 150 488 q 64 226 64 319 q 92 112 64 156 q 164 44 119 68 q 267 11 208 19 q 385 3 325 3 q 534 6 471 3 q 656 11 597 8 q 778 17 714 14 q 931 19 842 19 q 1097 12 1028 19 q 1183 1 1165 4 q 1247 -28 1231 -8 q 1264 -71 1264 -47 q 1253 -83 1264 -83 q 1247 -83 1250 -83 q 1240 -81 1244 -82 q 1182 -67 1218 -74 q 1101 -57 1146 -61 q 1005 -50 1057 -53 q 899 -47 953 -47 q 747 -51 817 -47 q 617 -58 678 -54 q 503 -65 557 -61 q 397 -68 449 -68 q 253 -53 324 -68 q 126 -3 182 -37 q 37 87 71 31 q 3 225 3 143 q 56 411 3 321 q 196 581 108 501 q 398 728 283 661 q 637 842 513 794 q 886 917 761 890 q 1121 944 1011 944 q 1182 943 1149 944 q 1244 936 1215 942 q 1294 918 1274 931 q 1314 883 1314 906 z "},"D":{"ha":1185,"x_min":-82,"x_max":1388,"o":"m 1388 688 q 1359 519 1388 607 q 1278 345 1331 431 q 1149 183 1225 260 q 977 49 1072 107 q 769 -42 882 -8 q 531 -76 657 -76 q 371 -53 436 -76 q 264 -1 306 -29 q 185 75 215 32 q 85 8 132 38 q 44 -17 64 -4 q 5 -38 24 -29 q -29 -53 -14 -47 q -54 -60 -44 -60 q -74 -53 -65 -60 q -82 -36 -82 -47 q -53 17 -82 -24 q 23 117 -24 58 q 130 247 69 176 q 253 390 190 318 l 253 407 q 287 590 253 506 q 378 744 321 675 q 510 867 435 814 q 666 956 585 919 q 830 1010 747 992 q 985 1029 913 1029 q 1167 1003 1090 1029 q 1292 930 1243 976 q 1364 821 1340 883 q 1388 688 1388 758 m 1326 647 q 1302 777 1326 717 q 1227 882 1278 838 q 1097 953 1176 926 q 904 979 1017 979 q 678 935 786 979 q 488 819 571 892 q 356 654 406 747 q 307 463 307 561 l 307 451 q 390 545 350 500 q 463 628 429 590 q 524 696 497 667 q 565 742 550 725 q 582 756 571 747 q 607 764 593 764 q 630 761 622 763 q 638 753 638 760 q 629 735 638 743 q 481 583 565 671 q 311 400 397 494 q 356 253 322 317 q 425 153 389 189 q 431 143 431 147 q 432 136 432 139 q 417 118 432 129 q 394 110 404 110 q 378 115 386 110 q 257 342 278 215 q 145 217 199 278 q 52 108 92 157 q -12 24 13 58 q -36 -21 -36 -10 q -28 -28 -36 -28 q 3 -17 -18 -28 q 53 10 25 -6 q 110 46 81 26 q 166 83 140 65 q 209 113 192 100 q 229 128 226 125 q 242 135 236 135 q 250 128 247 135 q 319 48 279 79 q 401 -1 358 17 q 488 -24 444 -18 q 569 -31 532 -31 q 778 -1 679 -31 q 960 80 876 29 q 1112 198 1044 131 q 1227 340 1179 265 q 1301 494 1275 415 q 1326 647 1326 574 z "},"E":{"ha":1471,"x_min":156,"x_max":1481,"o":"m 1481 1 q 1468 -21 1478 -15 q 1442 -26 1458 -26 q 1363 -26 1418 -26 q 1243 -25 1307 -25 q 1057 -28 1149 -25 q 866 -36 965 -32 q 657 -44 767 -40 q 417 -47 547 -47 q 310 -44 349 -47 q 256 -39 271 -42 q 178 0 200 -26 q 156 58 156 26 q 186 156 156 111 q 267 240 217 201 q 382 310 317 278 q 517 369 447 343 q 658 417 588 396 q 787 453 728 438 q 890 479 846 468 q 951 497 933 490 q 1013 529 1013 519 q 995 540 1013 538 q 967 542 978 542 q 888 540 922 542 q 823 535 854 538 q 759 530 792 533 q 683 524 726 526 q 581 520 639 522 q 442 518 524 518 q 393 524 417 518 q 351 542 369 531 q 320 571 332 554 q 308 610 308 588 q 362 717 308 668 q 501 804 415 765 q 696 873 588 843 q 913 922 804 903 q 1122 951 1022 942 q 1290 961 1222 961 q 1419 955 1369 961 q 1468 928 1468 949 q 1456 909 1468 918 q 1428 892 1444 900 q 1393 881 1411 885 q 1363 876 1375 876 q 1357 879 1357 876 q 1358 884 1357 881 q 1360 890 1360 888 q 1356 898 1360 894 q 1339 901 1351 901 q 1088 893 1211 901 q 856 868 965 885 q 656 828 747 851 q 498 776 564 806 q 395 713 432 747 q 358 642 358 679 q 377 608 358 619 q 422 590 396 596 q 476 583 449 585 q 522 582 504 582 q 626 585 572 582 q 733 592 681 589 q 835 599 786 596 q 926 603 885 603 q 1024 592 988 603 q 1061 553 1061 582 q 1033 510 1061 529 q 971 481 1006 490 q 802 434 890 458 q 630 383 714 410 q 470 324 546 356 q 337 258 394 293 q 245 183 279 222 q 211 97 211 143 q 226 61 213 76 q 261 35 238 47 q 329 24 285 24 q 570 26 456 24 q 792 32 685 29 q 1004 38 900 35 q 1213 40 1108 40 q 1347 40 1286 40 q 1426 38 1407 40 q 1470 24 1460 35 q 1481 1 1481 14 z "},"F":{"ha":1193,"x_min":-112,"x_max":1169,"o":"m 1169 692 q 1126 567 1169 643 q 1015 401 1083 490 q 860 219 946 313 q 689 40 775 125 l 736 40 q 854 41 789 40 q 980 42 919 42 q 1086 44 1040 43 q 1144 44 1132 44 q 1164 33 1164 44 q 1139 -6 1164 10 q 1086 -22 1114 -22 q 997 -22 1049 -22 q 886 -22 946 -22 q 760 -20 826 -21 q 626 -19 693 -19 q 523 -113 572 -71 q 433 -186 474 -156 q 414 -194 424 -194 q 400 -192 410 -194 q 390 -183 390 -189 q 417 -151 390 -176 q 481 -94 444 -128 q 563 -18 518 -60 q 425 -17 492 -18 q 301 -16 358 -17 q 201 -15 244 -15 q 132 -15 157 -15 q 58 -16 97 -15 q -14 -17 19 -17 q -72 -19 -47 -18 q -101 -19 -96 -19 q -112 -11 -112 -19 q -106 8 -112 -1 q -89 24 -99 17 q -69 37 -79 32 q -53 42 -58 42 l 625 40 q 738 150 679 92 q 851 267 796 208 q 956 383 907 325 q 1042 493 1006 440 q 1101 590 1079 546 q 1122 667 1122 635 q 1076 788 1122 738 q 953 869 1029 838 q 778 914 876 900 q 578 928 681 928 q 367 914 471 928 q 181 875 263 900 q 50 816 100 850 q 0 742 0 782 q 43 686 0 711 q 51 672 51 681 q 42 663 51 663 q 8 679 24 669 q -15 701 -4 688 q -25 735 -25 715 q 32 834 -25 789 q 181 913 89 879 q 388 964 272 946 q 622 982 504 982 q 826 966 728 982 q 1001 915 925 950 q 1124 825 1078 881 q 1169 692 1169 769 z "},"G":{"ha":807,"x_min":58,"x_max":994,"o":"m 994 808 q 965 678 994 744 q 887 546 936 611 q 774 417 838 481 q 640 299 710 354 q 765 349 710 326 q 849 372 819 372 q 875 367 864 372 q 888 350 886 363 q 858 302 888 336 q 783 218 829 268 q 677 105 736 168 q 557 -31 618 42 q 438 -181 496 -103 q 338 -340 381 -260 q 324 -361 331 -351 q 306 -371 317 -371 q 292 -368 297 -371 q 282 -351 282 -364 q 294 -317 282 -336 q 321 -278 307 -299 q 415 -145 361 -212 q 526 -13 469 -78 q 638 108 583 51 q 737 210 693 165 q 807 285 781 256 q 833 322 833 314 q 796 343 833 343 q 721 316 778 343 q 588 257 664 289 q 461 169 524 208 q 346 101 399 129 q 253 56 293 72 q 193 40 213 40 q 178 47 182 40 q 174 60 174 53 q 182 78 174 75 q 315 128 239 93 q 475 213 392 163 q 363 180 418 193 q 260 167 308 167 q 112 222 165 167 q 58 367 58 278 q 96 508 58 436 q 195 646 133 579 q 336 771 257 713 q 498 873 415 829 q 660 942 581 917 q 803 968 740 968 q 874 958 840 968 q 935 929 908 949 q 978 879 963 910 q 994 808 994 849 m 933 753 q 743 926 933 926 q 628 906 693 926 q 494 849 563 886 q 361 763 426 813 q 245 653 296 713 q 163 527 194 594 q 132 390 132 460 q 147 315 132 347 q 190 260 163 282 q 252 227 217 238 q 329 217 288 217 q 441 231 382 217 q 558 267 500 246 q 699 376 632 317 q 819 497 767 435 q 902 625 871 560 q 933 753 933 690 z "},"H":{"ha":1026,"x_min":-46,"x_max":1450,"o":"m 1450 990 q 1435 964 1450 979 q 1253 763 1335 863 q 1101 567 1171 663 q 974 384 1032 472 q 863 218 915 296 q 964 215 922 215 q 1039 214 1006 214 q 1054 210 1046 214 q 1063 196 1063 206 q 1056 174 1063 188 q 1022 161 1050 161 q 951 161 1003 161 q 826 164 899 161 q 733 33 778 92 q 642 -67 688 -25 q 551 -131 597 -108 q 451 -154 504 -154 q 386 -147 414 -154 q 336 -124 358 -139 q 294 -90 314 -110 q 251 -46 274 -69 q 240 -24 240 -35 q 251 -11 240 -11 q 268 -19 258 -11 q 289 -47 278 -28 q 307 -69 293 -54 q 342 -97 321 -83 q 392 -122 364 -111 q 451 -132 419 -132 q 540 -110 497 -132 q 625 -49 583 -89 q 708 44 667 -10 q 792 164 749 99 q 640 167 721 165 q 480 171 558 169 q 331 174 401 172 q 208 176 260 175 q 90 29 144 99 q -4 -99 35 -40 q -14 -111 -8 -106 q -26 -117 -19 -117 q -38 -110 -36 -117 q -40 -92 -40 -103 q 53 38 3 -29 q 163 178 104 106 q 89 178 124 178 q 28 179 54 179 l -28 179 q -46 192 -46 179 q -42 207 -46 199 q -27 224 -37 218 q -6 232 -17 229 q 22 235 7 236 l 206 232 q 356 415 279 322 q 510 595 433 507 q 660 767 586 683 q 797 921 733 850 q 815 933 808 931 q 826 936 821 936 q 843 933 833 936 q 853 919 853 929 q 842 897 853 910 q 646 682 746 794 q 457 468 560 586 q 254 231 354 350 q 598 224 461 228 q 826 218 735 221 q 942 407 882 307 q 1072 609 1003 507 q 1219 810 1140 711 q 1389 996 1297 908 q 1403 1001 1396 999 q 1416 1006 1410 1004 q 1429 1007 1422 1007 q 1444 1002 1438 1007 q 1450 990 1450 997 z "},"I":{"ha":771,"x_min":-268,"x_max":1283,"o":"m 1283 899 q 1257 822 1283 875 q 1183 699 1231 769 q 1071 544 1136 628 q 926 378 1006 461 q 757 217 847 294 q 570 81 667 140 q 374 -15 474 21 q 178 -50 275 -50 q 82 -48 131 -50 q -8 -42 33 -46 q -80 -37 -50 -39 q -119 -35 -110 -35 q -149 -37 -131 -35 q -185 -42 -167 -39 q -219 -48 -204 -44 q -239 -54 -235 -51 q -258 -61 -249 -61 q -268 -51 -268 -61 q -249 -28 -268 -40 q -203 -5 -231 -15 q -144 13 -175 6 q -87 19 -112 19 q 55 14 -36 19 q 247 8 146 8 q 431 42 340 8 q 608 131 522 75 q 771 259 693 188 q 915 408 849 331 q 1036 563 982 486 q 1129 703 1090 639 q 1189 815 1168 768 q 1210 879 1210 861 q 1176 918 1210 918 q 1109 897 1156 918 q 1006 838 1063 875 q 888 749 949 800 q 778 640 828 699 q 697 519 729 582 q 665 393 665 456 q 668 374 665 388 q 678 347 671 360 q 699 323 686 333 q 732 313 711 313 q 738 313 735 313 q 749 315 742 313 q 757 307 757 315 q 749 296 757 303 q 722 282 740 290 q 679 274 703 274 q 638 287 654 274 q 614 318 622 300 q 602 354 606 336 q 599 381 599 372 q 633 498 599 435 q 722 624 667 561 q 847 747 778 688 q 987 851 917 806 q 1122 923 1057 896 q 1233 950 1188 950 q 1263 942 1253 950 q 1278 925 1272 935 q 1283 899 1283 914 z "},"J":{"ha":475,"x_min":-711,"x_max":835,"o":"m 835 915 q 807 843 835 896 q 730 715 779 790 q 613 544 681 639 q 466 347 546 450 q 298 134 386 243 q 119 -81 210 25 q 410 -57 258 -57 q 517 -58 464 -57 q 617 -61 571 -60 q 698 -64 663 -62 q 751 -65 733 -65 q 772 -68 763 -65 q 782 -78 782 -71 q 774 -89 782 -83 q 735 -117 754 -104 q 697 -132 715 -129 q 635 -130 682 -132 q 525 -124 589 -128 q 388 -119 461 -121 q 243 -117 314 -117 q 159 -119 200 -117 q 78 -128 118 -122 q -122 -347 -24 -244 q -309 -527 -221 -450 q -469 -649 -397 -604 q -589 -694 -542 -694 q -681 -672 -651 -694 q -711 -611 -711 -650 q -658 -485 -711 -558 q -504 -336 -604 -411 q -262 -196 -404 -261 q 58 -93 -119 -131 q 233 115 146 8 q 398 325 319 222 q 544 522 476 428 q 661 692 611 615 q 739 822 711 768 q 767 897 767 875 q 759 915 767 911 q 740 919 751 919 q 661 898 713 919 q 549 838 610 876 q 426 750 489 800 q 313 642 364 700 q 230 524 263 585 q 197 403 197 463 q 213 329 197 365 q 263 260 228 293 q 274 247 274 257 q 256 229 274 233 q 222 221 238 225 q 163 287 182 250 q 144 365 144 324 q 176 489 144 424 q 260 618 208 554 q 380 741 313 682 q 518 846 447 800 q 658 921 589 892 q 785 956 728 950 q 819 947 803 956 q 835 915 835 939 m 21 -137 q -256 -226 -133 -167 q -463 -355 -378 -286 q -594 -492 -549 -424 q -640 -606 -640 -560 q -624 -649 -640 -633 q -571 -664 -607 -664 q -474 -622 -535 -664 q -334 -509 -412 -581 q -165 -342 -256 -437 q 21 -137 -74 -246 z "},"K":{"ha":1322,"x_min":32,"x_max":1604,"o":"m 1601 1003 q 1483 865 1556 925 q 1320 758 1410 804 q 1130 676 1231 711 q 926 616 1029 642 q 722 572 822 590 q 533 538 622 553 q 455 442 494 490 q 375 347 415 394 q 515 312 438 331 q 677 270 593 293 q 848 219 761 247 q 1016 156 935 192 q 1169 76 1097 121 q 1294 -25 1240 32 q 1306 -38 1301 -32 q 1311 -51 1311 -44 q 1298 -74 1311 -62 q 1268 -89 1285 -85 q 1138 15 1211 -31 q 981 97 1064 61 q 810 160 899 132 q 637 210 722 188 q 472 252 551 233 q 328 290 393 271 q 228 172 275 228 q 147 73 182 115 q 90 5 111 31 q 67 -22 69 -21 l 60 -29 q 47 -36 53 -36 q 32 -22 32 -36 q 42 -1 32 -11 q 63 24 43 0 q 117 90 83 49 q 197 185 151 131 q 293 301 242 239 q 175 353 218 325 q 132 417 132 381 q 160 465 132 444 q 237 500 188 485 q 353 528 286 515 q 497 553 419 540 q 612 693 557 626 q 709 811 667 760 q 776 893 751 863 q 803 925 801 924 q 817 940 806 929 q 840 951 829 951 q 858 936 858 951 q 843 908 858 921 q 817 878 842 907 q 753 801 793 849 q 663 692 714 754 q 554 561 611 631 q 819 612 679 582 q 1092 693 958 642 q 1343 824 1225 744 q 1542 1025 1461 904 q 1547 1032 1544 1029 q 1561 1038 1553 1038 q 1575 1033 1567 1038 q 1595 1017 1586 1026 q 1601 1003 1604 1008 m 478 528 q 366 508 417 518 q 278 487 315 497 q 222 465 242 476 q 201 438 201 453 q 238 396 201 414 q 339 358 275 378 q 408 442 374 400 q 478 528 442 485 z "},"L":{"ha":892,"x_min":-397,"x_max":1392,"o":"m 1392 872 q 1357 749 1392 818 q 1263 608 1322 681 q 1122 465 1203 535 q 947 340 1040 394 q 755 251 854 285 q 557 217 656 217 q 465 228 503 217 q 401 260 426 240 q 239 52 318 154 q 85 -140 160 -50 q 313 -99 189 -114 q 578 -83 436 -83 q 676 -85 619 -83 q 795 -89 733 -86 q 918 -94 857 -92 q 1029 -99 979 -96 q 1113 -103 1079 -101 q 1154 -104 1147 -104 q 1188 -115 1188 -104 q 1176 -137 1188 -128 q 1150 -151 1165 -146 q 1119 -160 1135 -157 q 1092 -162 1103 -162 q 1028 -161 1081 -162 q 900 -158 976 -160 q 731 -153 824 -156 q 544 -151 638 -151 q 263 -162 388 -151 q 42 -193 139 -174 q -58 -305 -10 -254 q -151 -392 -107 -356 q -234 -448 -194 -428 q -307 -468 -274 -468 q -397 -421 -397 -468 q -367 -361 -397 -396 q -281 -290 -337 -326 q -142 -217 -225 -253 q 44 -151 -60 -181 q 206 53 122 -58 q 379 281 289 164 q 349 378 349 321 q 369 480 349 428 q 422 576 390 532 q 492 647 453 619 q 565 675 531 675 q 575 665 575 675 q 564 654 575 658 q 497 619 528 644 q 442 561 465 594 q 406 488 419 528 q 393 411 393 449 q 415 326 393 363 q 617 572 514 453 q 824 782 719 690 q 1034 929 929 874 q 1240 985 1139 985 q 1356 954 1321 985 q 1392 872 1392 924 m 1321 838 q 1285 915 1321 886 q 1169 943 1249 943 q 1003 890 1092 943 q 822 747 915 836 q 630 542 728 657 q 435 303 532 426 q 492 268 457 281 q 578 256 526 256 q 749 285 661 256 q 919 364 836 315 q 1074 474 1001 413 q 1202 601 1147 536 q 1289 727 1257 665 q 1321 838 1321 789 m 3 -201 q -151 -245 -87 -221 q -256 -294 -215 -269 q -317 -342 -297 -319 q -336 -383 -336 -365 q -278 -418 -336 -418 q -151 -358 -221 -418 q 3 -201 -81 -299 z "},"M":{"ha":1397,"x_min":-325,"x_max":1635,"o":"m 1635 657 q 1615 584 1635 624 q 1564 501 1594 544 q 1497 415 1533 458 q 1428 333 1460 372 q 1353 239 1392 290 q 1281 133 1315 188 q 1217 26 1246 79 q 1168 -75 1188 -28 q 1153 -129 1157 -103 q 1149 -179 1149 -156 q 1160 -263 1149 -226 q 1179 -319 1171 -300 q 1182 -333 1182 -325 q 1175 -347 1182 -343 q 1158 -350 1168 -350 q 1129 -339 1143 -350 q 1105 -309 1115 -328 q 1088 -265 1094 -290 q 1082 -211 1082 -239 q 1084 -165 1082 -189 q 1097 -106 1086 -140 q 1133 -26 1108 -72 q 1200 87 1157 21 q 1310 240 1243 153 q 1472 443 1376 328 q 1492 472 1476 450 q 1526 521 1508 493 q 1558 579 1544 549 q 1572 633 1572 610 q 1548 673 1572 661 q 1501 685 1524 685 q 1416 664 1465 685 q 1310 610 1367 643 q 1194 533 1254 576 q 1077 443 1135 489 q 967 352 1019 397 q 872 271 914 307 q 842 241 864 264 q 792 188 821 218 q 731 125 763 158 q 672 63 700 92 q 626 13 644 33 q 603 -12 607 -8 q 589 -29 594 -21 q 574 -37 583 -37 q 561 -32 567 -37 q 556 -21 556 -26 q 561 -8 556 -14 q 574 6 567 -1 q 634 72 597 28 q 713 172 671 117 q 800 286 756 226 q 883 399 844 346 q 951 494 922 453 q 992 554 981 536 q 1020 611 1010 582 q 1031 664 1031 640 q 1017 705 1031 689 q 976 721 1004 721 q 876 690 935 721 q 754 614 818 660 q 628 516 690 568 q 519 421 567 464 q 451 354 492 396 q 365 265 410 313 q 276 168 321 217 q 196 78 232 119 q 135 10 160 38 q 107 -21 111 -17 q 82 -39 93 -39 q 69 -34 75 -39 q 64 -22 64 -29 q 76 -1 64 -14 q 126 57 96 18 q 193 145 157 96 q 269 251 229 194 q 344 363 308 307 q 409 463 378 414 q 465 556 440 511 q 503 640 489 600 q 517 714 517 681 q 481 812 517 772 q 385 878 444 851 q 251 924 326 906 q 96 958 175 942 q -59 994 17 975 q -194 1041 -135 1013 q -289 1111 -253 1069 q -325 1215 -325 1153 q -319 1255 -325 1239 q -306 1282 -312 1271 q -285 1303 -297 1294 q -274 1307 -279 1307 q -264 1299 -264 1307 q -268 1290 -264 1294 q -289 1256 -283 1272 q -294 1226 -294 1240 q -258 1154 -294 1183 q -161 1103 -221 1125 q -25 1064 -101 1081 q 132 1029 51 1047 q 289 990 213 1011 q 425 938 365 968 q 522 864 485 907 q 558 760 558 821 q 538 656 558 713 q 488 540 518 599 q 422 425 457 481 q 357 325 388 369 q 306 252 326 281 q 286 218 286 224 q 311 241 290 221 q 367 297 332 261 q 451 381 401 332 q 564 488 501 429 q 829 692 710 621 q 1025 764 949 764 q 1072 748 1053 764 q 1090 690 1090 732 q 1081 635 1090 663 q 1057 583 1071 608 q 1027 537 1043 558 q 1000 499 1011 515 q 981 472 994 490 q 948 428 967 453 q 908 376 929 404 q 865 321 886 349 q 754 179 815 256 q 757 181 754 179 q 854 276 794 219 q 984 392 914 332 q 1133 513 1054 453 q 1287 619 1211 572 q 1432 696 1363 667 q 1556 725 1501 725 q 1611 709 1588 725 q 1635 657 1635 693 z "},"N":{"ha":936,"x_min":-296,"x_max":1132,"o":"m 1132 647 q 1095 540 1132 603 q 1003 401 1058 476 q 883 244 947 326 q 763 81 818 163 q 670 -77 707 0 q 633 -217 633 -154 q 644 -301 633 -264 q 664 -357 656 -337 q 667 -371 667 -362 q 660 -384 667 -381 q 643 -387 653 -387 q 614 -376 628 -387 q 590 -347 600 -365 q 573 -302 579 -328 q 567 -249 567 -276 q 604 -109 567 -186 q 697 51 642 -32 q 818 218 753 133 q 939 378 883 303 q 1032 518 994 454 q 1069 624 1069 582 q 1045 663 1069 651 q 999 675 1021 675 q 916 653 963 675 q 818 597 869 632 q 713 516 767 561 q 605 423 658 471 q 502 329 551 375 q 411 247 453 283 q 381 217 403 240 q 329 163 358 193 q 267 97 300 132 q 207 33 235 63 q 160 -19 179 3 q 136 -44 140 -40 q 111 -62 122 -62 q 99 -58 104 -62 q 93 -46 93 -53 q 106 -25 93 -37 q 156 33 125 -6 q 222 122 186 72 q 298 227 258 171 q 374 339 338 283 q 438 439 407 390 q 494 532 469 488 q 532 617 518 576 q 546 690 546 657 q 510 788 546 749 q 415 855 474 828 q 280 900 356 882 q 125 935 204 918 q -30 970 46 951 q -165 1017 -106 989 q -260 1088 -224 1046 q -296 1192 -296 1129 q -290 1231 -296 1215 q -276 1258 -283 1247 q -256 1279 -268 1271 q -244 1283 -250 1283 q -235 1275 -235 1283 q -239 1267 -235 1271 q -260 1233 -254 1249 q -265 1203 -265 1217 q -228 1131 -265 1160 q -132 1079 -192 1101 q 4 1040 -72 1057 q 161 1006 81 1024 q 318 966 242 988 q 454 914 394 944 q 551 840 514 883 q 588 736 588 797 q 567 612 588 674 q 509 484 546 550 q 422 347 472 418 q 315 194 372 276 q 294 165 303 178 q 281 146 288 154 q 276 139 275 138 q 372 236 315 178 q 498 358 429 294 q 642 486 567 422 q 790 601 717 550 q 931 683 864 651 q 1053 715 999 715 q 1108 699 1085 715 q 1132 647 1132 683 z "},"O":{"ha":1188,"x_min":101,"x_max":1399,"o":"m 1399 697 q 1363 504 1399 601 q 1263 317 1326 407 q 1115 150 1200 228 q 930 15 1029 72 q 722 -76 831 -43 q 506 -110 614 -110 q 372 -95 431 -110 q 272 -57 314 -81 q 200 -2 229 -33 q 151 61 171 29 q 101 232 107 138 q 132 390 101 321 q 209 511 163 458 q 311 602 256 564 q 417 668 367 640 q 536 802 468 739 q 685 913 604 865 q 856 987 765 960 q 1043 1014 947 1014 q 1180 990 1115 1014 q 1293 925 1244 967 q 1370 825 1342 883 q 1399 697 1399 767 m 1338 629 q 1309 771 1338 708 q 1233 877 1281 833 q 1121 944 1185 921 q 986 967 1057 967 q 828 946 903 967 q 692 889 754 925 q 577 803 629 853 q 485 697 525 754 q 542 715 518 710 q 574 721 567 721 q 586 713 586 721 q 571 701 586 701 q 531 694 560 701 q 465 669 503 686 q 385 498 413 586 q 358 329 358 410 q 359 303 358 313 q 360 286 360 293 q 362 273 361 279 q 363 258 363 267 q 350 241 363 246 q 326 236 338 236 q 310 245 315 236 q 301 269 304 254 q 298 301 299 283 q 297 338 297 319 q 322 484 297 410 q 390 629 346 558 q 313 570 351 604 q 244 490 275 536 q 195 388 214 444 q 176 261 176 331 q 202 124 176 185 q 276 21 228 63 q 392 -43 324 -21 q 544 -65 460 -65 q 727 -38 633 -65 q 909 37 821 -11 q 1075 150 997 85 q 1211 292 1153 215 q 1303 456 1269 369 q 1338 629 1338 542 z "},"P":{"ha":1092,"x_min":122,"x_max":1692,"o":"m 1692 703 q 1659 590 1692 644 q 1572 494 1626 536 q 1447 428 1517 453 q 1301 403 1376 403 q 1233 411 1265 403 q 1174 435 1200 419 q 1148 403 1161 419 q 1122 369 1135 386 q 983 197 1054 282 q 828 44 911 111 q 645 -65 744 -24 q 424 -107 546 -107 q 300 -85 356 -107 q 205 -24 244 -62 q 144 69 165 15 q 122 185 122 122 q 174 401 122 299 q 314 590 226 503 q 516 747 401 676 q 756 866 631 817 q 1008 942 881 915 q 1249 968 1136 968 q 1413 950 1333 968 q 1555 898 1493 932 q 1654 815 1617 864 q 1692 703 1692 765 m 1631 668 q 1592 769 1631 722 q 1490 849 1554 815 q 1342 903 1426 883 q 1168 922 1258 922 q 913 892 1036 922 q 682 811 790 863 q 484 690 574 760 q 330 542 394 621 q 229 381 265 464 q 193 217 193 297 q 215 100 193 151 q 274 13 236 49 q 365 -42 313 -24 q 478 -61 417 -61 q 694 -15 600 -61 q 865 104 788 31 q 1010 269 942 178 q 1147 451 1078 361 q 1106 489 1121 469 q 1092 524 1092 508 q 1101 546 1092 536 q 1121 556 1110 556 q 1135 548 1129 556 q 1149 529 1142 540 q 1164 509 1156 518 q 1179 493 1172 500 q 1284 612 1229 556 q 1404 713 1339 668 q 1425 717 1413 717 q 1438 711 1438 717 q 1421 694 1438 707 q 1310 594 1363 650 q 1204 474 1257 538 q 1272 444 1238 451 q 1340 436 1306 436 q 1458 453 1406 435 q 1550 503 1511 471 q 1610 578 1589 535 q 1631 668 1631 621 z "},"Q":{"ha":1161,"x_min":75,"x_max":1372,"o":"m 1372 697 q 1313 449 1372 574 q 1156 218 1254 325 q 931 31 1058 111 q 664 -85 803 -50 q 748 -232 700 -168 q 839 -340 796 -296 q 912 -408 882 -383 q 942 -436 942 -432 q 931 -460 942 -444 q 911 -476 921 -476 q 872 -453 907 -476 q 788 -384 836 -431 q 687 -266 739 -337 q 597 -99 635 -194 q 538 -107 568 -104 q 479 -110 508 -110 q 346 -95 404 -110 q 245 -57 288 -81 q 174 -2 203 -33 q 125 61 144 29 q 75 232 81 138 q 106 390 75 321 q 183 511 136 458 q 285 602 229 564 q 390 668 340 640 q 510 802 442 739 q 658 913 578 865 q 830 987 739 960 q 1017 1014 921 1014 q 1153 990 1089 1014 q 1267 925 1218 967 q 1344 825 1315 883 q 1372 697 1372 767 m 1311 629 q 1283 771 1311 708 q 1206 877 1254 833 q 1094 944 1158 921 q 960 967 1031 967 q 802 946 876 967 q 665 889 728 925 q 551 803 603 853 q 458 697 499 754 q 516 715 492 710 q 547 721 540 721 q 560 713 560 721 q 544 701 560 701 q 505 694 533 701 q 439 669 476 686 q 359 498 386 586 q 332 329 332 410 q 333 303 332 313 q 334 286 333 293 q 335 273 335 279 q 336 258 336 267 q 324 241 336 246 q 300 236 311 236 q 283 245 289 236 q 275 269 278 254 q 272 301 272 283 q 271 338 271 319 q 295 484 271 410 q 364 629 319 558 q 287 570 325 604 q 218 490 249 536 q 169 388 188 444 q 150 261 150 331 q 176 124 150 185 q 249 21 201 63 q 365 -43 297 -21 q 518 -65 433 -65 q 585 -61 551 -65 q 556 56 567 -7 q 546 189 546 118 q 549 247 546 221 q 554 292 551 272 q 563 332 558 314 q 577 350 565 343 q 600 357 589 357 q 617 349 610 357 q 624 332 624 340 q 619 314 624 325 q 613 267 617 299 q 608 190 608 235 q 620 63 608 122 q 651 -50 632 3 q 813 2 732 -33 q 966 88 893 38 q 1102 199 1039 138 q 1212 331 1165 261 q 1285 477 1258 401 q 1311 629 1311 553 z "},"R":{"ha":1381,"x_min":-183,"x_max":1453,"o":"m 1453 -103 q 1442 -131 1453 -115 q 1419 -146 1432 -146 q 1397 -136 1407 -146 q 1259 -24 1338 -74 q 1094 66 1181 25 q 915 140 1007 107 q 733 200 822 172 q 563 252 644 228 q 415 300 482 276 q 310 174 361 235 q 220 67 260 114 q 157 -8 181 21 q 131 -40 133 -37 l 124 -47 q 111 -54 117 -54 q 96 -40 96 -54 q 106 -19 96 -29 q 131 10 107 -18 q 192 83 154 38 q 278 189 229 129 q 381 313 328 249 q 269 371 310 340 q 228 439 228 401 q 243 484 228 468 q 285 507 258 500 q 347 515 311 514 q 421 517 382 517 l 544 517 q 623 612 586 567 q 688 690 660 657 q 731 743 715 724 q 749 764 747 763 q 763 779 751 768 q 786 790 775 790 q 804 775 804 790 q 789 747 804 760 q 772 727 788 746 q 730 677 756 708 q 669 604 704 646 q 594 515 635 563 q 692 515 656 515 q 748 514 728 514 q 776 514 768 514 q 788 514 783 514 q 994 520 896 514 q 1167 544 1092 526 q 1285 596 1242 563 q 1329 682 1329 629 q 1297 755 1329 721 q 1207 817 1264 789 q 1073 866 1150 844 q 906 901 996 888 q 718 923 815 915 q 522 931 621 931 q 269 917 392 931 q 51 874 146 903 q -101 800 -44 844 q -158 694 -158 756 q -146 653 -158 672 q -107 621 -133 633 q -104 617 -104 618 q -110 608 -104 614 q -115 604 -112 606 q -150 622 -135 610 q -173 651 -162 633 q -183 697 -183 669 q -112 833 -176 776 q 53 927 -47 890 q 283 981 154 964 q 549 999 413 999 q 753 990 651 999 q 947 963 854 981 q 1121 919 1040 944 q 1260 860 1201 893 q 1353 789 1319 828 q 1386 704 1386 750 q 1333 593 1386 635 q 1194 528 1281 551 q 997 498 1107 506 q 772 490 888 490 q 672 490 721 490 q 575 492 624 490 q 517 422 547 457 q 457 350 488 386 q 603 305 521 328 q 774 256 685 282 q 958 197 864 229 q 1140 125 1051 165 q 1306 33 1228 85 q 1443 -82 1385 -18 q 1453 -103 1453 -92 m 528 494 q 456 496 490 496 q 389 496 421 496 q 361 495 378 496 q 329 492 344 494 q 303 483 314 489 q 293 465 293 476 q 327 410 293 435 q 421 363 361 386 q 475 429 449 396 q 528 494 501 463 z "},"S":{"ha":1510,"x_min":39,"x_max":1472,"o":"m 1472 13 q 1468 -1 1472 7 q 1457 -15 1464 -8 q 1442 -27 1450 -22 q 1426 -32 1435 -32 l 69 -32 q 39 -21 39 -32 q 61 10 39 -8 q 115 29 83 29 q 177 29 119 29 q 321 30 235 29 q 508 31 407 31 q 699 33 608 32 q 857 33 790 33 q 942 33 924 33 q 1014 41 971 33 q 1097 67 1057 49 q 1166 116 1138 86 q 1194 189 1194 146 q 1147 283 1194 240 q 1022 362 1100 326 q 845 428 944 397 q 642 485 746 458 q 440 538 539 513 q 263 588 340 563 q 138 642 185 614 q 90 701 90 669 q 112 742 90 717 q 185 797 133 768 q 321 856 236 826 q 531 910 406 886 q 826 949 656 933 q 1218 964 996 964 q 1323 958 1282 964 q 1388 942 1364 951 q 1422 923 1413 933 q 1431 906 1431 913 q 1418 890 1431 896 q 1389 880 1406 883 q 1356 876 1372 876 q 1332 875 1340 875 q 1321 877 1325 875 q 1317 888 1317 879 q 1306 899 1317 894 q 1270 908 1296 904 q 1201 913 1244 911 q 1089 915 1157 915 q 667 896 843 915 q 376 849 490 876 q 207 792 261 822 q 153 740 153 761 q 200 685 153 711 q 325 634 247 660 q 501 582 403 608 q 703 528 600 556 q 906 468 807 500 q 1082 399 1004 436 q 1207 317 1160 361 q 1254 219 1254 272 q 1233 147 1254 178 q 1181 92 1211 115 q 1115 53 1150 68 q 1054 26 1081 38 q 1167 25 1111 26 q 1269 24 1215 24 q 1365 24 1322 24 q 1416 24 1394 24 q 1444 25 1438 25 q 1472 13 1472 25 z "},"T":{"ha":725,"x_min":-262,"x_max":897,"o":"m 897 699 q 867 573 897 642 q 785 431 836 504 q 670 282 735 357 q 538 138 606 207 q 403 7 469 68 q 284 -101 338 -54 q 196 -175 231 -147 q 156 -207 161 -203 l 146 -207 q 115 -197 115 -207 q 124 -185 115 -193 q 252 -71 178 -135 q 406 64 326 -7 q 564 211 486 135 q 703 363 642 288 q 803 512 765 439 q 842 650 842 585 q 799 783 842 729 q 685 869 756 836 q 523 917 614 903 q 336 932 432 932 q 130 917 232 932 q -52 880 28 903 q -182 827 -132 857 q -232 765 -232 797 q -216 723 -232 736 q -178 703 -200 710 q -175 697 -175 700 q -179 689 -175 693 q -190 685 -183 685 q -226 699 -211 689 q -251 720 -240 707 q -262 756 -262 733 q -213 856 -262 813 q -83 931 -164 900 q 103 978 -1 963 q 315 994 207 994 q 528 977 424 994 q 715 924 633 960 q 847 832 797 888 q 897 699 897 776 z "},"U":{"ha":1075,"x_min":85,"x_max":1410,"o":"m 1410 731 q 1407 722 1410 726 q 1397 711 1404 718 q 1310 608 1361 665 q 1205 487 1260 550 q 1096 357 1150 424 q 999 226 1042 290 q 929 104 956 163 q 903 -1 903 46 q 874 -19 892 -12 q 844 -25 857 -25 q 822 -17 828 -25 q 817 3 817 -8 q 847 103 817 47 q 920 215 878 158 q 1008 322 963 271 q 1081 408 1053 372 q 1085 417 1085 415 q 1083 419 1085 419 q 1071 411 1079 419 q 970 331 1029 376 q 843 236 911 285 q 700 140 775 188 q 551 56 625 93 q 405 -5 476 18 q 272 -28 333 -28 q 197 -15 232 -28 q 138 24 163 -3 q 99 90 113 50 q 85 185 85 129 q 116 345 85 267 q 199 496 147 424 q 318 633 251 568 q 455 754 385 699 q 593 853 525 810 q 717 928 661 897 q 726 933 719 929 q 736 938 733 938 q 749 926 749 938 q 743 918 749 922 q 660 871 714 904 q 540 787 606 838 q 408 672 475 736 q 285 532 340 607 q 194 372 229 457 q 158 199 158 288 q 173 114 158 149 q 212 58 188 79 q 268 28 236 38 q 335 18 300 18 q 488 53 401 18 q 672 147 575 89 q 869 281 769 206 q 1062 435 969 357 q 1233 590 1154 514 q 1365 728 1313 667 q 1377 743 1371 735 q 1390 751 1383 751 q 1403 742 1397 751 q 1410 731 1410 733 z "},"V":{"ha":668,"x_min":72,"x_max":1654,"o":"m 1654 1056 q 1649 1039 1654 1042 q 1632 1033 1644 1036 q 1435 985 1533 1033 q 1239 858 1336 938 q 1047 678 1142 779 q 860 473 951 578 q 680 267 768 368 q 508 88 592 167 q 345 -40 424 8 q 194 -87 267 -87 q 131 -74 160 -87 q 85 -31 99 -58 q 72 29 72 -4 q 101 149 72 82 q 175 291 131 217 q 271 442 219 365 q 367 591 322 519 q 440 726 411 663 q 469 836 469 790 q 450 895 469 868 q 399 922 431 922 q 361 915 378 922 q 340 904 344 907 q 325 899 332 899 q 313 907 313 899 q 322 924 313 914 q 336 935 326 928 q 361 949 346 942 q 395 963 376 957 q 435 968 414 968 q 513 942 479 968 q 546 875 546 917 q 517 774 546 833 q 444 645 488 715 q 349 497 400 575 q 255 342 299 419 q 182 192 211 265 q 153 58 153 119 q 178 -15 153 10 q 247 -39 203 -39 q 378 9 308 -39 q 524 136 449 57 q 683 316 600 215 q 854 522 767 417 q 1035 727 942 626 q 1226 907 1129 828 q 1424 1035 1322 986 q 1628 1083 1525 1083 q 1654 1056 1654 1083 z "},"W":{"ha":1751,"x_min":131,"x_max":2039,"o":"m 2039 801 q 1998 635 2039 728 q 1884 445 1957 542 q 1712 257 1811 349 q 1494 93 1613 165 q 1246 -23 1376 21 q 981 -67 1115 -67 q 906 -51 939 -67 q 851 -8 874 -35 q 815 53 828 18 q 803 126 803 88 l 803 136 q 696 74 751 103 q 584 25 640 46 q 473 -8 528 4 q 368 -19 418 -19 q 258 1 303 -19 q 184 56 213 22 q 143 135 156 90 q 131 229 131 181 q 156 375 131 304 q 222 512 181 446 q 315 638 263 578 q 421 747 367 697 q 710 967 549 865 l 717 974 q 724 983 724 981 q 730 992 724 988 q 743 996 736 996 q 751 992 749 996 q 754 983 754 988 q 733 958 754 972 q 499 777 599 871 q 333 590 399 683 q 235 410 267 497 q 203 251 203 324 q 264 88 203 150 q 444 25 325 25 q 613 63 515 25 q 806 160 710 101 q 852 283 815 221 q 937 396 889 344 q 1034 479 985 447 q 1117 511 1083 511 q 1134 503 1128 511 q 1140 486 1140 496 q 1121 426 1140 461 q 1066 352 1101 392 q 983 270 1031 313 q 879 188 936 228 q 878 176 878 181 q 878 165 878 171 q 927 30 878 78 q 1056 -18 976 -18 q 1283 21 1171 -18 q 1495 124 1394 60 q 1682 272 1596 189 q 1830 441 1768 354 q 1927 612 1892 528 q 1963 764 1963 696 q 1917 883 1963 838 q 1769 928 1872 928 q 1708 920 1735 928 q 1664 903 1682 913 q 1634 883 1646 893 q 1615 869 1622 874 q 1603 865 1610 865 q 1594 875 1594 865 q 1601 890 1594 885 q 1713 949 1653 925 q 1832 972 1774 972 q 1990 925 1942 972 q 2039 801 2039 878 m 1086 463 q 1081 472 1086 472 q 1035 452 1065 472 q 974 397 1006 432 q 917 313 943 361 q 882 211 890 265 q 963 276 925 243 q 1027 341 1000 308 q 1070 405 1054 374 q 1086 463 1086 436 z "},"X":{"ha":772,"x_min":-542,"x_max":1349,"o":"m 1349 -71 q 1342 -106 1349 -89 q 1319 -124 1336 -122 q 1251 -126 1301 -125 q 1141 -129 1201 -128 q 1022 -131 1081 -131 q 926 -132 963 -132 q 771 -111 836 -132 q 659 -53 706 -90 q 581 33 613 -17 q 530 142 550 83 q 496 267 510 201 q 469 397 482 332 l -7 -26 q -22 -35 -15 -35 q -31 -26 -31 -35 q -27 -16 -31 -22 q -15 -4 -24 -10 q 17 25 -12 -3 q 93 94 47 53 q 194 187 139 136 q 301 285 249 238 q 397 374 353 333 q 463 436 440 415 q 419 615 444 528 q 343 768 393 701 q 211 875 293 835 q -3 915 129 915 q -87 910 -36 915 q -194 896 -137 906 q -308 869 -251 886 q -412 830 -365 853 q -487 776 -458 807 q -515 707 -515 746 q -508 685 -515 696 q -478 664 -501 674 q -469 650 -469 661 q -471 646 -469 649 q -478 640 -474 640 q -496 649 -485 643 q -517 663 -507 654 q -535 682 -528 671 q -542 708 -542 693 q -510 803 -542 763 q -429 872 -479 843 q -317 921 -379 901 q -194 951 -256 940 q -80 967 -133 963 q 8 972 -26 972 q 226 928 142 972 q 362 813 310 885 q 442 649 414 742 q 488 460 469 557 q 572 528 517 485 q 694 622 628 571 q 830 724 760 672 q 958 818 900 775 q 1056 890 1017 861 q 1099 921 1094 918 q 1113 931 1107 926 q 1126 935 1119 935 q 1149 924 1136 935 q 1160 904 1160 914 q 1153 890 1160 897 q 1139 878 1147 883 q 1067 835 1117 867 q 955 758 1018 803 q 822 663 892 714 q 688 565 751 613 q 572 479 624 518 q 496 419 521 440 q 531 237 513 325 q 585 80 550 149 q 678 -31 619 11 q 833 -72 738 -72 q 861 -72 839 -72 q 913 -72 883 -72 q 976 -73 943 -72 q 1040 -74 1010 -74 q 1091 -74 1069 -74 q 1118 -74 1113 -74 q 1249 -70 1196 -74 q 1311 -65 1301 -67 q 1325 -64 1318 -65 q 1338 -62 1332 -62 q 1349 -71 1349 -62 z "},"Y":{"ha":1224,"x_min":-140,"x_max":1482,"o":"m 1482 -129 q 1475 -154 1482 -143 q 1453 -165 1468 -165 q 1374 -161 1425 -164 q 1253 -158 1324 -158 q 989 -168 1111 -158 q 760 -197 867 -178 q 542 -451 651 -329 q 331 -667 433 -574 q 138 -815 229 -760 q -25 -871 47 -871 q -114 -830 -87 -871 q -124 -724 -140 -789 q -49 -576 -108 -658 q 118 -414 10 -494 q 385 -262 226 -333 q 756 -144 543 -190 q 898 39 829 -51 q 1027 210 967 129 q 1138 356 1088 290 q 1226 463 1189 421 q 1234 472 1229 465 q 1239 481 1239 478 q 1236 482 1239 482 q 1222 471 1233 482 q 1105 376 1171 429 q 963 267 1039 322 q 806 160 888 213 q 640 67 724 108 q 474 1 556 26 q 317 -24 392 -24 q 223 -6 265 -24 q 149 42 181 13 q 101 110 118 72 q 83 190 83 149 q 128 390 83 289 q 258 585 174 490 q 465 764 343 679 q 738 917 586 849 q 747 919 743 919 q 760 908 760 919 q 754 900 760 904 q 650 847 711 882 q 524 763 589 813 q 394 653 458 714 q 278 524 329 593 q 194 381 226 456 q 163 231 163 307 q 179 144 163 183 q 225 76 196 104 q 294 33 254 49 q 378 18 333 18 q 497 41 431 18 q 638 102 564 64 q 792 190 713 140 q 947 294 871 240 q 1094 404 1024 349 q 1222 510 1164 460 q 1322 599 1279 560 q 1383 661 1364 639 q 1404 678 1394 678 q 1417 669 1407 678 q 1426 650 1426 660 q 1424 640 1426 646 q 1413 624 1421 633 q 1300 489 1365 571 q 1157 307 1235 407 q 992 94 1079 207 q 814 -132 906 -18 q 1067 -97 933 -108 q 1356 -85 1201 -85 q 1409 -86 1383 -85 q 1460 -90 1435 -87 q 1476 -103 1469 -92 q 1482 -129 1482 -115 m 704 -208 q 376 -308 513 -247 q 149 -438 239 -369 q 13 -576 60 -507 q -47 -701 -35 -646 q -40 -792 -58 -757 q 22 -828 -21 -828 q 158 -776 81 -828 q 326 -637 236 -724 q 512 -440 415 -551 q 704 -208 608 -328 z "},"Z":{"ha":893,"x_min":-350,"x_max":1499,"o":"m 1499 649 q 1442 536 1499 578 q 1294 472 1386 494 q 1082 442 1201 449 q 836 435 963 435 q 634 437 733 435 q 444 439 535 439 q 389 436 408 439 q 369 424 369 433 q 390 385 369 403 q 442 347 411 367 q 510 303 474 328 q 578 245 547 279 q 631 165 610 211 q 651 54 651 118 q 619 -100 651 -12 q 820 -76 715 -85 q 1042 -67 925 -67 q 1276 -72 1179 -67 q 1439 -81 1374 -78 q 1458 -87 1450 -82 q 1465 -101 1465 -93 q 1444 -131 1465 -117 q 1399 -146 1422 -146 q 1319 -144 1379 -146 q 1178 -141 1260 -143 q 1005 -137 1097 -139 q 829 -136 913 -136 q 711 -140 768 -136 q 600 -151 654 -144 q 514 -312 567 -229 q 396 -475 461 -396 q 255 -625 331 -554 q 98 -749 179 -696 q -67 -834 17 -803 q -229 -865 -150 -865 q -319 -835 -289 -865 q -350 -753 -350 -804 q -294 -592 -350 -685 q -124 -405 -239 -499 q 166 -231 -10 -311 q 582 -106 342 -150 q 597 4 597 -47 q 575 122 597 72 q 519 210 553 172 q 447 274 486 247 q 374 320 407 300 q 318 357 340 340 q 296 392 296 374 q 322 433 296 418 q 375 453 347 447 q 395 455 382 454 q 425 456 408 456 q 658 453 575 454 q 783 453 742 453 q 838 453 825 453 q 856 453 850 453 q 1074 459 969 453 q 1257 483 1178 465 q 1383 531 1336 500 q 1429 611 1429 561 q 1378 716 1429 672 q 1249 790 1328 760 q 1072 838 1169 821 q 881 865 974 856 q 708 878 788 875 q 588 881 629 881 q 464 874 535 881 q 319 853 393 867 q 172 819 244 839 q 43 772 100 799 q -49 714 -14 746 q -83 644 -83 682 q -66 603 -83 619 q -32 588 -49 588 q -26 574 -26 582 q -35 563 -26 563 q -76 581 -58 569 q -105 606 -92 590 q -118 646 -118 622 q -86 736 -118 694 q 2 812 -54 778 q 133 872 58 846 q 294 915 208 897 q 472 941 381 932 q 654 950 564 950 q 867 940 763 950 q 1065 910 971 929 q 1238 863 1158 890 q 1376 803 1318 836 q 1466 731 1433 769 q 1499 649 1499 692 m 567 -156 q 317 -215 433 -176 q 106 -303 201 -254 q -62 -410 11 -353 q -186 -523 -136 -467 q -262 -632 -236 -579 q -289 -725 -289 -685 q -258 -797 -289 -769 q -161 -822 -226 -824 q -56 -794 -118 -821 q 76 -720 6 -767 q 222 -610 147 -674 q 363 -474 296 -547 q 483 -319 429 -400 q 567 -156 538 -237 z "},"[":{"ha":356,"x_min":-56,"x_max":554,"o":"m 554 1076 q 547 1067 554 1071 l 539 1061 l 442 1061 l 0 -208 l 92 -208 q 110 -215 110 -208 q 92 -229 110 -221 l -56 -229 l 397 1082 l 539 1082 q 554 1076 554 1082 z "},"]":{"ha":510,"x_min":60,"x_max":671,"o":"m 218 -229 l 76 -229 q 60 -221 60 -229 q 65 -212 60 -217 q 76 -208 69 -208 l 174 -208 l 615 1061 l 524 1061 q 511 1066 518 1061 q 504 1075 504 1071 q 524 1082 504 1082 l 671 1082 l 218 -229 z "},"_":{"ha":617,"x_min":54,"x_max":492,"o":"m 492 -28 q 483 -50 492 -46 l 400 -43 q 316 -37 363 -40 q 224 -35 269 -35 q 131 -39 174 -35 q 63 -53 88 -43 q 54 -33 54 -47 q 83 -11 54 -19 q 154 1 113 -3 q 242 7 196 6 q 321 8 288 8 q 411 6 369 8 q 481 -1 453 3 q 489 -10 486 -3 q 492 -28 492 -18 z "},"`":{"ha":400,"x_min":160,"x_max":301,"o":"m 301 314 q 296 309 301 310 q 285 308 290 308 q 260 315 281 308 q 218 332 240 321 q 178 358 196 343 q 160 392 160 374 q 176 410 160 410 q 194 400 185 410 q 217 377 204 390 q 246 350 229 364 q 285 329 263 336 q 301 314 301 324 z "},"a":{"ha":400,"x_min":-15,"x_max":450,"o":"m 450 82 q 446 74 450 76 l 383 49 q 348 34 369 43 q 301 17 326 25 q 253 2 276 8 q 211 -4 229 -4 q 182 14 182 -4 q 184 28 182 19 q 193 47 186 38 q 163 28 182 39 q 121 9 143 18 q 76 -7 99 0 q 35 -14 53 -14 q -3 -3 8 -14 q -15 22 -15 7 q 13 88 -15 49 q 83 162 40 126 q 178 222 126 197 q 276 247 229 247 q 310 239 300 247 q 319 215 319 231 q 299 175 319 193 q 261 146 279 157 q 253 143 256 143 q 245 147 250 143 q 240 156 240 150 q 251 176 240 163 q 265 192 257 182 q 272 210 272 203 q 267 219 272 215 q 247 222 263 222 q 189 205 224 222 q 122 162 154 188 q 67 108 90 136 q 44 60 44 81 q 57 37 44 44 q 85 29 69 29 q 119 36 100 29 q 157 51 139 43 q 190 69 175 60 q 208 82 204 78 q 217 90 211 85 q 228 96 222 96 q 236 93 231 96 q 242 83 242 90 q 232 64 235 72 q 229 49 229 56 q 254 31 229 31 q 288 35 269 31 q 326 47 307 40 q 360 59 344 53 q 385 68 376 65 q 426 85 413 79 q 443 92 435 89 q 448 88 446 92 q 450 82 450 85 z "},"b":{"ha":536,"x_min":36,"x_max":896,"o":"m 896 904 q 856 796 896 863 q 749 651 815 729 q 598 489 683 572 q 424 330 513 406 q 248 193 335 254 q 92 99 161 132 q 115 31 93 50 q 165 11 136 11 q 219 24 193 11 q 267 58 246 38 q 300 104 288 79 q 313 151 313 129 q 311 169 313 163 q 310 183 310 176 q 316 194 310 192 q 329 196 322 196 q 359 196 332 196 q 424 195 386 196 q 507 194 463 194 q 590 194 551 194 q 603 189 603 194 q 590 167 603 182 q 560 149 576 149 q 554 149 558 149 q 530 149 550 149 q 467 150 510 150 q 346 150 424 150 q 317 86 339 118 q 265 29 294 54 q 201 -12 235 4 q 138 -28 168 -28 q 63 3 89 -28 q 36 82 36 33 q 77 245 36 153 q 185 435 118 338 q 338 626 253 532 q 510 792 422 719 q 682 910 599 865 q 828 956 765 956 q 896 904 896 956 m 831 881 q 785 922 831 922 q 672 881 740 922 q 528 774 604 840 q 376 622 453 707 q 238 447 300 536 q 136 272 176 357 q 92 118 96 186 q 269 231 179 165 q 440 370 358 297 q 594 519 522 443 q 717 665 665 596 q 800 790 769 733 q 831 881 831 847 z "},"c":{"ha":346,"x_min":17,"x_max":394,"o":"m 394 82 q 390 74 394 76 q 279 32 333 50 q 184 3 233 17 q 101 -11 135 -11 q 43 10 69 -11 q 17 69 17 31 q 43 142 17 106 q 108 208 69 179 q 189 256 146 238 q 267 275 232 275 q 283 271 276 275 q 299 240 299 264 q 288 213 299 226 q 265 188 278 199 q 232 164 250 175 q 226 163 231 164 q 208 160 218 160 q 201 169 201 160 q 210 185 201 176 q 238 210 221 192 q 256 242 256 228 q 239 251 256 251 q 189 237 218 251 q 133 201 160 222 q 87 152 106 179 q 68 100 68 125 q 91 48 68 67 q 157 29 114 29 q 233 40 193 29 q 308 61 274 50 q 388 92 349 75 q 392 88 390 92 q 394 82 394 85 z "},"d":{"ha":472,"x_min":22,"x_max":1044,"o":"m 1044 885 q 1010 782 1044 844 q 919 645 976 719 q 787 490 863 571 q 628 334 711 410 q 460 192 544 258 q 297 81 375 126 q 278 -92 278 -10 q 273 -119 278 -111 q 253 -126 268 -126 l 240 -125 q 226 -113 229 -124 q 222 -89 222 -103 q 236 47 222 -21 q 160 17 196 28 q 97 6 125 6 q 54 17 69 6 q 32 42 39 28 q 22 76 24 57 q 49 141 22 113 q 115 189 76 169 q 197 219 154 208 q 269 229 239 229 q 281 219 281 229 q 271 210 281 210 l 263 211 q 200 201 233 211 q 138 175 167 192 q 92 136 110 158 q 74 89 74 114 q 83 60 74 71 q 104 46 93 50 q 135 40 118 40 q 243 74 179 40 q 317 283 268 176 q 431 489 367 389 q 569 677 494 589 q 717 831 643 765 q 859 934 790 896 q 982 972 928 972 q 1030 951 1015 972 q 1044 885 1044 929 m 983 881 q 968 919 983 907 q 928 932 953 932 q 839 899 892 932 q 726 809 786 867 q 601 673 665 751 q 481 503 538 594 q 377 310 424 411 q 304 107 331 210 q 447 206 371 147 q 599 333 524 264 q 744 476 674 401 q 867 624 814 551 q 951 763 919 696 q 983 881 983 829 z "},"e":{"ha":321,"x_min":8,"x_max":364,"o":"m 364 82 q 360 74 364 76 q 249 32 303 50 q 153 3 203 17 q 71 -11 104 -11 q 26 2 43 -11 q 8 36 8 15 q 21 72 8 56 q 48 101 33 89 q 74 122 63 114 q 86 132 86 131 q 76 136 86 135 q 40 142 65 138 q 20 151 25 144 q 15 164 15 157 q 22 181 15 174 q 31 192 28 189 q 96 228 58 210 q 170 260 133 246 q 238 282 207 274 q 281 290 268 290 q 306 284 294 290 q 318 263 318 278 q 311 248 318 256 q 294 234 304 240 q 274 224 285 228 q 254 219 263 219 q 241 222 247 219 q 235 232 235 225 q 242 250 235 240 q 244 256 244 253 q 238 258 244 258 q 229 258 235 258 q 217 256 224 257 q 185 245 206 253 q 143 228 164 238 q 106 210 122 218 q 85 199 89 201 q 79 190 79 194 q 88 181 79 183 q 97 180 89 181 q 115 178 106 179 q 134 178 125 178 q 147 178 143 178 q 165 172 163 176 q 168 158 168 168 q 165 144 168 151 q 147 135 163 138 q 91 111 118 128 q 64 67 64 94 q 85 38 64 47 q 126 29 107 29 q 203 40 163 29 q 278 61 243 50 q 357 92 318 75 q 362 88 360 92 q 364 82 364 85 z "},"f":{"ha":321,"x_min":-465,"x_max":999,"o":"m 999 921 q 950 794 999 869 q 822 635 901 719 q 643 465 743 551 q 441 302 543 378 q 244 169 339 226 q 78 85 149 111 q 33 26 54 54 q -11 -32 11 -3 q 81 -31 26 -31 q 213 -31 136 -31 q 260 -35 244 -31 q 276 -60 276 -39 q 256 -72 276 -68 q 210 -79 236 -76 q 158 -83 183 -82 q 122 -83 132 -83 l -50 -83 q -99 -148 -75 -117 q -147 -211 -124 -179 q -97 -273 -118 -239 q -75 -346 -75 -307 q -104 -440 -75 -392 q -176 -532 -133 -489 q -270 -610 -219 -575 q -364 -662 -321 -644 q -436 -675 -407 -679 q -465 -637 -465 -671 q -446 -599 -465 -632 q -392 -512 -426 -565 q -308 -387 -357 -458 q -200 -235 -258 -317 q -263 -182 -233 -204 q -293 -136 -293 -160 q -267 -87 -293 -107 q -208 -56 -242 -68 q -140 -39 -174 -44 q -87 -33 -106 -33 q -75 -33 -85 -33 q -53 -32 -65 -32 q 127 203 33 83 q 315 435 221 322 q 500 648 408 549 q 672 822 592 747 q 820 940 753 897 q 933 983 888 983 q 980 966 961 983 q 999 921 999 949 m 933 911 q 922 940 933 931 q 892 949 910 949 q 819 915 865 949 q 712 824 772 882 q 579 688 651 767 q 428 517 507 608 q 269 325 350 425 q 108 124 188 225 q 293 225 197 164 q 481 358 389 286 q 655 509 572 431 q 799 661 738 588 q 897 800 861 735 q 933 911 933 865 m -90 -83 q -168 -83 -135 -83 q -204 -85 -201 -83 q -215 -87 -207 -86 q -230 -90 -222 -87 q -243 -98 -237 -93 q -249 -111 -249 -103 q -223 -142 -247 -122 q -168 -190 -199 -162 q -129 -137 -149 -164 q -90 -83 -110 -111 m -128 -369 q -142 -306 -128 -333 q -178 -254 -157 -278 q -274 -388 -231 -326 q -349 -497 -318 -450 q -398 -573 -381 -543 q -415 -611 -415 -603 q -394 -635 -415 -633 q -341 -624 -372 -637 q -272 -585 -310 -611 q -203 -526 -235 -560 q -149 -451 -171 -492 q -128 -369 -128 -411 z "},"g":{"ha":361,"x_min":-522,"x_max":543,"o":"m 543 -87 q 526 -109 543 -106 q 493 -112 508 -112 q 458 -111 488 -112 q 391 -109 429 -110 q 310 -107 353 -108 q 235 -106 268 -106 q 165 -108 199 -106 q 97 -115 131 -110 q -63 -317 18 -215 q -219 -501 -144 -419 q -355 -633 -293 -582 q -454 -685 -417 -685 q -504 -665 -486 -685 q -522 -612 -522 -644 q -482 -466 -522 -546 q -362 -310 -442 -386 q -167 -173 -283 -235 q 101 -79 -50 -111 q 169 13 143 -24 q 194 57 194 50 q 190 63 194 63 q 179 58 186 63 q 158 47 171 54 q 128 34 144 40 q 94 24 111 28 q 61 19 76 19 q 27 30 42 19 q 13 64 13 40 q 51 150 13 110 q 143 219 90 190 q 249 266 196 249 q 331 283 303 283 q 364 275 347 283 q 382 243 381 267 q 372 223 382 235 q 349 201 363 211 q 322 185 335 192 q 300 178 308 178 q 288 183 292 178 q 283 196 283 189 q 290 208 283 204 q 299 215 293 211 q 313 224 306 219 q 324 244 324 232 q 307 257 324 257 q 239 240 278 257 q 165 197 200 222 q 104 140 129 171 q 79 83 79 110 q 89 65 79 71 q 110 60 99 60 q 151 68 129 60 q 195 88 174 76 q 237 114 217 100 q 271 139 257 128 q 282 144 276 144 q 289 136 289 144 q 282 118 289 126 q 208 27 247 75 q 129 -74 169 -21 q 240 -59 183 -64 q 360 -54 297 -54 q 441 -56 407 -54 q 489 -57 475 -57 q 531 -64 518 -58 q 543 -87 543 -69 m 69 -119 q -147 -190 -49 -142 q -315 -302 -244 -239 q -425 -439 -386 -365 q -464 -585 -464 -512 q -456 -624 -464 -607 q -429 -640 -449 -640 q -381 -616 -412 -640 q -306 -551 -349 -592 q -215 -458 -264 -511 q -117 -347 -167 -404 q -19 -230 -67 -289 q 69 -119 29 -171 z "},"h":{"ha":507,"x_min":14,"x_max":1011,"o":"m 1011 869 q 981 776 1011 828 q 899 670 950 725 q 778 557 847 615 q 634 442 710 499 q 480 334 558 386 q 329 237 401 282 q 196 157 257 192 q 94 101 135 122 q 82 54 82 72 q 92 43 82 43 q 107 47 97 43 q 165 76 135 60 q 223 107 196 92 q 269 133 250 122 q 293 147 289 144 q 310 151 301 151 q 318 146 318 151 q 310 119 318 140 q 301 75 301 97 q 313 44 301 57 q 357 31 324 31 q 391 35 372 31 q 428 47 410 40 q 463 59 447 53 q 488 68 479 65 q 529 85 515 79 q 546 92 538 89 q 551 88 549 92 q 553 82 553 85 q 549 74 553 76 l 486 49 q 451 34 472 43 q 404 17 429 25 q 356 2 379 8 q 314 -4 332 -4 q 266 13 278 -4 q 254 50 254 29 q 256 74 254 63 q 260 97 258 86 q 257 100 260 100 q 251 99 253 100 q 217 81 247 97 q 151 45 188 64 q 80 11 114 26 q 31 -4 46 -4 q 17 1 19 -4 q 14 13 14 7 q 40 80 14 31 q 110 198 65 129 q 215 349 154 267 q 347 515 276 432 q 494 675 417 597 q 649 813 571 753 q 801 910 726 874 q 940 946 875 946 q 994 924 978 946 q 1011 869 1011 901 m 947 861 q 935 898 947 881 q 900 915 924 915 q 773 872 846 915 q 621 760 700 829 q 460 605 542 692 q 309 430 379 518 q 184 261 239 342 q 103 124 129 181 q 272 218 179 161 q 458 342 364 275 q 640 483 551 410 q 796 625 728 556 q 906 756 864 694 q 947 861 947 817 z "},"i":{"ha":339,"x_min":-10,"x_max":390,"o":"m 303 356 q 297 334 303 346 q 283 312 292 322 q 265 294 275 301 q 243 288 254 288 q 218 310 218 288 q 224 331 218 319 q 238 353 229 343 q 257 371 246 364 q 278 378 268 378 q 303 356 303 378 m 390 82 q 386 74 390 76 l 324 49 q 288 34 310 43 q 242 17 267 25 q 193 2 217 8 q 151 -4 169 -4 q 123 3 133 -4 q 106 21 113 11 q 98 40 100 31 q 96 56 96 50 q 103 88 96 74 q 114 110 110 103 q 72 85 92 96 q 43 72 51 75 q 22 64 33 68 q -3 54 10 60 q -8 58 -6 54 q -10 64 -10 61 q -7 71 -10 69 q 15 79 4 75 q 33 88 25 83 q 89 118 65 103 q 130 148 117 135 q 147 172 143 161 q 156 190 151 183 q 167 196 160 196 q 184 191 176 196 q 192 175 192 186 q 188 164 192 171 q 178 149 185 160 q 165 126 171 139 q 153 97 158 113 q 149 68 149 82 q 160 42 149 53 q 194 31 171 31 q 228 35 210 31 q 266 47 247 40 q 301 59 285 53 q 325 68 317 65 q 367 85 353 79 q 383 92 375 89 q 388 88 386 92 q 390 82 390 85 z "},"j":{"ha":300,"x_min":-664,"x_max":453,"o":"m 411 356 q 406 334 411 346 q 392 312 400 322 q 373 294 383 301 q 351 288 363 288 q 326 310 326 288 q 332 331 326 319 q 346 353 338 343 q 365 371 354 364 q 386 378 376 378 q 411 356 411 378 m 453 -107 q 411 -143 451 -144 q 332 -135 392 -143 q 189 -128 272 -128 q 11 -140 94 -128 q -56 -224 -28 -189 q -89 -264 -85 -258 q -137 -323 -104 -282 q -213 -414 -169 -364 q -308 -517 -257 -464 q -410 -615 -358 -571 q -509 -688 -461 -660 q -593 -717 -557 -717 q -643 -699 -622 -717 q -664 -650 -664 -682 q -648 -574 -664 -619 q -598 -476 -632 -528 q -511 -368 -564 -424 q -385 -263 -458 -312 q -218 -173 -312 -214 q -6 -108 -124 -132 q 95 28 50 -33 q 167 121 140 89 q 169 128 169 124 q 167 129 169 129 q 151 124 161 129 q 138 117 149 122 q 113 106 128 113 q 78 90 97 99 q 42 72 60 81 q 21 64 32 68 q -3 54 10 60 q -8 58 -6 54 q -10 64 -10 61 q -6 72 -10 71 q 15 80 6 76 q 33 88 25 83 q 95 117 63 101 q 155 148 128 133 q 201 173 182 163 q 224 186 221 183 q 238 193 233 193 q 250 185 243 193 q 257 169 257 176 q 253 158 257 165 q 232 132 251 157 q 183 70 213 107 q 117 -12 153 33 q 44 -100 81 -57 q 267 -83 147 -83 q 330 -83 304 -83 q 372 -84 356 -83 q 399 -85 389 -85 q 414 -85 408 -85 q 446 -92 439 -86 q 453 -107 453 -99 m -35 -149 q -274 -226 -168 -174 q -452 -343 -379 -278 q -564 -483 -525 -408 q -603 -629 -603 -558 q -594 -662 -603 -649 q -564 -676 -585 -676 q -458 -627 -521 -676 q -322 -501 -394 -578 q -176 -331 -250 -424 q -35 -149 -101 -237 z "},"k":{"ha":556,"x_min":-10,"x_max":1064,"o":"m 1064 868 q 1012 732 1064 804 q 876 586 960 660 q 687 440 792 513 q 475 305 582 368 q 269 190 368 242 q 101 106 171 139 q 88 68 88 79 q 94 60 88 60 q 233 129 168 99 q 343 177 289 156 q 425 199 397 199 q 460 175 460 199 q 447 144 460 163 q 412 108 435 126 q 356 74 389 90 q 283 46 324 57 q 275 39 275 46 q 278 32 275 38 q 297 19 282 25 q 339 13 311 13 q 381 18 356 13 q 435 32 407 24 q 491 50 463 40 q 540 68 519 60 q 582 85 568 79 q 599 92 590 89 q 603 88 601 92 q 606 82 606 85 q 601 74 606 76 l 539 49 q 446 15 492 31 q 362 -8 406 3 q 283 -19 318 -19 q 215 -3 235 -19 q 190 32 194 13 q 201 52 190 47 q 226 57 211 57 q 288 68 256 57 q 347 95 319 79 q 391 127 374 111 q 408 153 408 143 q 389 163 408 163 q 313 146 360 163 q 215 103 267 129 q 108 47 163 78 q 7 -10 53 17 q -1 -11 4 -11 q -10 -3 -10 -11 q 20 55 -10 8 q 101 170 50 101 q 220 323 151 239 q 367 493 289 407 q 528 660 444 579 q 692 805 611 742 q 847 906 772 868 q 979 944 921 944 q 1064 868 1064 944 m 1004 861 q 991 897 1004 882 q 951 911 978 911 q 857 885 910 911 q 744 817 804 860 q 622 716 685 774 q 497 594 558 658 q 376 464 435 531 q 267 335 317 397 q 178 219 217 272 q 115 128 139 165 q 275 209 183 158 q 466 322 367 260 q 662 456 565 385 q 834 598 758 526 q 957 737 910 669 q 1004 861 1004 804 z "},"l":{"ha":272,"x_min":-8,"x_max":846,"o":"m 846 861 q 803 746 846 813 q 691 604 760 679 q 537 452 622 529 q 366 305 451 375 q 203 178 281 235 q 76 89 126 122 q 51 -75 51 -1 l 51 -93 q 48 -110 51 -103 q 31 -121 44 -118 q 19 -122 26 -122 q -2 -113 4 -122 q -8 -93 -8 -104 q 34 113 -6 0 q 137 340 74 225 q 282 564 200 456 q 450 756 364 672 q 621 891 536 840 q 776 942 706 942 q 829 926 813 942 q 846 861 846 911 m 790 857 q 780 890 790 875 q 743 904 769 904 q 624 869 688 904 q 497 774 561 833 q 369 635 432 714 q 251 467 306 556 q 153 288 196 379 q 83 111 110 196 q 206 199 133 143 q 356 322 278 254 q 513 466 435 390 q 652 615 590 542 q 752 751 714 688 q 790 857 790 814 z "},"m":{"ha":754,"x_min":-10,"x_max":804,"o":"m 804 82 q 800 74 804 76 l 738 49 q 702 34 724 43 q 656 17 681 25 q 607 2 631 8 q 565 -4 583 -4 q 533 26 533 -4 q 545 76 533 47 q 569 128 557 104 q 565 133 569 133 q 551 128 558 133 q 492 83 522 106 q 433 42 461 60 q 378 13 404 24 q 329 1 351 1 q 313 6 322 1 q 303 19 303 11 q 313 49 303 31 q 333 88 322 68 q 354 122 344 107 q 364 142 364 138 q 361 143 364 143 q 336 132 356 143 q 292 105 317 121 q 238 69 267 89 q 182 34 208 50 q 134 7 156 18 q 103 -4 113 -4 q 88 1 94 -4 q 82 15 82 7 q 92 41 82 26 q 114 70 101 56 q 140 99 126 85 q 160 121 153 113 q 161 125 161 122 q 156 129 161 129 q 141 122 154 129 q 110 106 128 115 q 74 88 93 97 q 42 72 54 78 q 21 64 32 68 q -3 54 10 60 q -8 58 -6 54 q -10 64 -10 61 q -6 72 -10 71 q 15 80 6 76 q 33 88 25 83 q 101 120 69 103 q 157 153 132 138 q 211 188 186 169 q 219 191 214 189 q 231 193 225 193 q 242 178 242 193 q 229 150 242 167 q 201 116 217 133 q 172 83 185 99 q 160 58 160 67 q 171 47 160 47 q 204 63 179 47 q 261 100 229 79 q 325 142 293 121 q 378 174 357 163 q 401 190 383 178 q 433 201 419 201 q 444 197 440 201 q 447 185 447 192 q 435 156 447 174 q 409 119 424 138 q 383 83 394 100 q 371 57 371 65 q 388 44 371 44 q 447 69 413 44 q 515 125 481 94 q 582 181 550 156 q 635 206 614 206 q 643 201 642 206 q 644 193 644 196 q 642 182 644 188 q 636 171 639 176 q 622 151 632 165 q 603 121 613 138 q 587 87 594 104 q 579 56 579 69 q 608 31 579 31 q 642 35 624 31 q 680 47 661 40 q 715 59 699 53 q 739 68 731 65 q 781 85 767 79 q 797 92 789 89 q 802 88 800 92 q 804 82 804 85 z "},"n":{"ha":558,"x_min":-10,"x_max":608,"o":"m 608 82 q 604 74 608 76 l 542 49 q 506 34 528 43 q 460 17 485 25 q 411 2 435 8 q 369 -4 388 -4 q 333 6 343 -4 q 324 32 324 17 q 330 65 324 47 q 344 98 336 82 q 358 126 351 114 q 364 142 364 138 q 361 143 364 143 q 336 132 356 143 q 292 105 317 121 q 238 69 267 89 q 182 34 208 50 q 134 7 156 18 q 103 -4 113 -4 q 88 1 94 -4 q 82 15 82 7 q 92 41 82 26 q 114 70 101 56 q 140 99 126 85 q 160 121 153 113 q 161 125 161 122 q 156 129 161 129 q 141 122 154 129 q 110 106 128 115 q 74 88 93 97 q 42 72 54 78 q 21 64 32 68 q -3 54 10 60 q -8 58 -6 54 q -10 64 -10 61 q -6 72 -10 71 q 15 80 6 76 q 33 88 25 83 q 101 120 69 103 q 157 153 132 138 q 211 188 186 169 q 219 191 214 189 q 231 193 225 193 q 242 178 242 193 q 229 150 242 167 q 201 116 217 133 q 172 83 185 99 q 160 58 160 67 q 171 47 160 47 q 204 63 179 47 q 261 100 229 79 q 325 142 293 121 q 378 174 357 163 q 388 181 381 176 q 404 192 394 186 q 423 201 414 197 q 439 206 432 206 q 447 201 446 206 q 449 193 449 196 q 446 182 449 188 q 440 171 443 176 q 426 151 436 165 q 408 121 417 138 q 391 87 399 104 q 383 56 383 69 q 413 31 383 31 q 447 35 428 31 q 484 47 465 40 q 519 59 503 53 q 543 68 535 65 q 585 85 571 79 q 601 92 593 89 q 606 88 604 92 q 608 82 608 85 z "},"o":{"ha":365,"x_min":-4,"x_max":415,"o":"m 415 82 q 413 75 415 78 q 408 72 411 74 q 264 33 322 33 q 208 56 228 33 q 127 -6 172 19 q 38 -31 82 -31 q 7 -22 18 -31 q -4 10 -4 -12 q 22 78 -4 38 q 83 156 47 118 q 158 219 119 193 q 221 246 196 246 q 234 241 228 246 q 240 232 240 236 q 236 228 240 229 q 228 228 232 228 q 181 206 211 228 q 122 156 151 185 q 72 94 93 126 q 51 42 51 63 q 82 11 51 11 q 138 28 107 11 q 197 71 169 46 q 188 117 188 89 q 194 156 188 136 q 211 192 200 176 q 238 217 222 207 q 274 226 254 226 q 300 201 300 226 q 281 146 300 179 q 231 78 263 113 q 275 58 246 58 q 315 63 294 58 q 355 72 336 67 q 388 82 374 76 q 408 92 401 88 l 410 92 q 414 88 413 92 q 415 82 415 85 m 275 179 q 250 199 275 199 q 224 178 235 199 q 214 133 214 158 q 215 113 214 122 q 221 93 217 103 q 260 140 244 117 q 275 179 275 164 z "},"p":{"ha":454,"x_min":-656,"x_max":440,"o":"m 440 188 q 410 129 440 158 q 340 77 381 100 q 256 39 299 54 q 186 24 213 24 q 154 34 161 24 q 142 50 147 44 q 140 56 140 51 q 145 69 140 63 q 157 81 150 75 q 170 90 164 86 q 181 93 176 93 q 194 88 190 93 q 200 75 197 82 q 212 63 203 69 q 239 56 221 56 q 287 65 263 56 q 331 91 311 75 q 365 126 351 107 q 378 163 378 144 q 365 187 378 181 q 336 193 351 193 q 269 179 310 193 q 175 140 228 165 q 31 -35 103 58 q -109 -219 -40 -128 q -243 -394 -178 -310 q -369 -541 -308 -478 q -487 -642 -431 -604 q -593 -681 -543 -681 q -637 -667 -619 -681 q -656 -624 -656 -653 q -620 -499 -656 -567 q -524 -361 -585 -432 q -385 -219 -464 -290 q -220 -83 -307 -149 q -44 41 -133 -17 q 126 140 46 99 q 154 182 142 164 q 176 213 167 200 q 194 239 188 228 q 202 246 194 244 q 215 247 210 247 q 235 245 225 246 q 244 236 244 244 q 233 213 244 231 q 214 188 222 196 l 206 179 q 306 218 261 204 q 382 232 351 232 q 421 219 401 232 q 440 188 440 206 m 100 103 q -50 13 29 64 q -206 -97 -129 -37 q -353 -220 -282 -156 q -476 -349 -424 -285 q -561 -477 -529 -414 q -593 -596 -593 -540 q -585 -622 -593 -607 q -554 -637 -578 -637 q -476 -599 -524 -637 q -369 -499 -428 -561 q -246 -359 -310 -437 q -119 -198 -182 -281 q 1 -37 -56 -115 q 100 103 57 42 z "},"q":{"ha":369,"x_min":-342,"x_max":514,"o":"m 513 -79 q 498 -97 513 -93 q 447 -100 483 -100 q 403 -99 440 -100 q 316 -95 367 -97 q 207 -90 265 -93 q 99 -86 149 -87 l -26 -231 q 26 -299 3 -260 q 49 -390 49 -337 q 28 -458 49 -424 q -24 -524 8 -492 q -94 -585 -56 -557 q -172 -635 -133 -614 q -242 -669 -210 -657 q -293 -682 -275 -682 q -327 -671 -312 -682 q -342 -640 -342 -660 q -317 -570 -342 -611 q -237 -456 -292 -529 q -162 -359 -204 -411 q -76 -253 -119 -307 q -74 -249 -74 -250 q -106 -218 -90 -232 q -135 -190 -122 -204 q -157 -163 -149 -176 q -165 -136 -165 -150 q -137 -92 -165 -110 q -70 -65 -108 -75 q 8 -50 -32 -54 q 69 -46 47 -46 l 92 -46 q 149 20 126 -6 q 172 47 171 46 q 176 54 176 54 q 175 56 176 56 q 149 43 164 49 q 119 34 136 38 q 79 31 101 31 q 41 43 54 31 q 28 75 28 56 q 67 156 28 119 q 158 219 106 192 q 264 260 211 246 q 346 275 317 275 q 365 267 357 275 q 374 247 374 260 q 363 219 374 232 q 338 199 351 207 q 311 185 324 190 q 297 181 299 181 q 287 185 294 181 q 279 196 279 189 q 289 214 279 204 q 306 232 299 224 q 311 243 311 238 q 299 251 311 251 q 253 239 286 251 q 184 206 219 226 q 121 156 149 185 q 93 96 93 128 q 99 76 93 85 q 121 67 106 67 q 160 72 140 67 q 196 86 179 78 q 224 102 213 94 q 239 113 235 110 q 258 129 246 119 q 276 139 269 139 q 283 134 281 139 q 286 126 286 129 q 279 115 286 119 q 265 103 272 110 q 244 81 261 99 q 208 40 228 63 q 167 -8 188 17 q 133 -46 146 -32 q 213 -46 167 -46 q 305 -46 258 -46 q 391 -47 351 -46 q 449 -49 431 -47 q 502 -56 490 -51 q 513 -79 514 -60 m 60 -85 q 17 -83 36 -83 q -12 -83 -1 -83 q -49 -84 -29 -83 q -84 -88 -68 -85 q -110 -99 -100 -92 q -121 -118 -121 -106 q -97 -162 -121 -140 q -44 -212 -74 -185 q 10 -145 -17 -178 q 60 -85 36 -112 m -1 -399 q -17 -324 -1 -356 q -57 -265 -33 -292 q -81 -295 -65 -276 q -115 -337 -96 -314 q -154 -388 -133 -361 q -194 -442 -175 -415 q -263 -543 -239 -504 q -287 -611 -287 -582 q -257 -643 -287 -643 q -189 -622 -232 -643 q -104 -565 -146 -600 q -32 -487 -62 -531 q -1 -399 -1 -443 z "},"r":{"ha":447,"x_min":-10,"x_max":497,"o":"m 497 82 q 493 74 497 76 q 400 38 446 53 q 316 12 360 24 q 239 0 272 0 q 197 35 197 4 q 210 76 197 53 q 239 119 222 99 q 272 156 256 140 q 294 175 288 172 q 249 169 285 174 q 176 163 214 165 q 149 135 168 150 q 110 108 131 121 q 70 86 89 96 q 43 72 51 76 q 22 64 33 68 q -3 54 10 60 q -8 58 -6 54 q -10 64 -10 61 q -7 71 -10 69 q 15 79 4 75 q 33 88 25 83 q 104 126 74 106 q 146 163 135 147 q 116 166 126 163 q 100 174 106 169 q 93 183 94 179 q 108 214 93 196 q 142 247 122 232 q 183 274 163 263 q 217 285 204 285 q 228 278 225 285 q 231 265 231 272 q 225 253 231 258 q 215 243 222 250 q 199 228 207 236 q 184 215 190 221 q 178 207 178 208 q 185 204 178 206 q 214 203 192 203 q 235 203 221 203 q 267 205 249 203 q 303 210 285 207 q 339 219 322 214 q 347 215 343 219 q 351 204 351 210 q 336 182 351 186 q 311 162 326 175 q 282 132 296 149 q 258 99 268 115 q 247 68 247 82 q 258 48 247 56 q 294 40 268 40 q 365 49 331 40 q 428 67 400 57 q 490 92 461 78 q 495 88 493 92 q 497 82 497 85 z "},"s":{"ha":361,"x_min":-10,"x_max":336,"o":"m 336 181 q 318 123 336 156 q 269 60 300 90 q 199 10 239 31 q 113 -10 158 -10 q 73 0 89 -10 q 57 28 57 10 q 58 33 57 32 q 70 47 61 39 q 89 56 79 56 q 97 53 92 56 q 126 33 108 46 q 164 19 143 19 q 213 33 189 19 q 253 68 236 47 q 282 113 271 89 q 293 154 293 136 q 285 178 293 169 q 258 188 276 188 q 215 173 242 188 q 158 139 189 158 q 97 101 128 119 q 42 72 65 82 q 21 64 32 68 q -3 54 10 60 q -8 58 -6 54 q -10 64 -10 61 q -6 71 -10 69 q 15 80 6 75 q 33 88 25 85 q 83 113 54 96 q 141 149 113 131 q 192 181 169 167 q 221 199 214 194 q 249 213 231 204 q 292 221 268 221 q 326 210 315 221 q 336 181 336 199 z "},"t":{"ha":289,"x_min":-215,"x_max":1196,"o":"m 1196 511 q 1185 495 1193 500 q 1153 488 1176 490 q 1101 487 1146 488 q 984 485 1057 486 q 813 483 911 483 q 599 482 714 482 q 463 368 535 425 q 321 261 390 311 q 190 170 251 211 q 86 103 129 129 q 50 3 63 50 q 38 -79 38 -43 q 34 -97 38 -89 q 17 -107 31 -104 q 6 -108 13 -108 q -16 -99 -10 -108 q -22 -79 -22 -90 q 3 10 -21 -50 q 69 147 28 69 q 167 310 111 224 q 285 481 222 397 l -172 481 q -201 483 -187 481 q -215 496 -215 485 q -212 505 -215 499 q -206 517 -208 511 q -199 524 -204 519 q -162 531 -189 531 l 11 531 q 169 530 86 531 q 322 529 253 529 q 430 654 375 596 q 539 756 485 713 q 644 826 593 800 q 742 851 696 851 q 794 836 778 851 q 811 771 811 821 q 766 662 811 724 q 650 531 721 600 q 812 533 726 532 q 972 535 897 535 q 1097 537 1046 536 q 1153 538 1147 538 q 1182 530 1168 538 q 1196 511 1196 522 m 756 767 q 745 799 756 785 q 708 814 735 814 q 635 792 676 814 q 547 731 593 769 q 451 641 501 693 q 353 529 401 589 q 435 529 400 529 q 499 529 469 529 q 553 530 528 529 q 606 531 579 531 q 714 660 672 599 q 756 767 756 722 m 315 481 q 194 306 250 396 q 99 132 138 215 q 196 194 140 157 q 313 278 251 232 q 438 377 375 325 q 556 482 500 429 l 315 481 z "},"u":{"ha":501,"x_min":18,"x_max":553,"o":"m 553 82 q 549 74 553 76 l 486 49 q 451 34 472 43 q 404 17 429 25 q 356 2 379 8 q 314 -4 332 -4 q 285 3 296 -4 q 269 21 275 11 q 260 40 263 31 q 258 56 258 50 q 267 94 258 76 q 279 114 276 111 q 276 115 281 115 q 238 88 264 106 q 181 51 213 69 q 116 19 149 33 q 56 6 83 6 q 29 19 40 6 q 18 49 18 33 q 31 86 18 65 q 60 126 43 107 q 94 163 78 146 q 119 185 111 179 q 121 186 119 186 l 126 186 q 138 182 133 186 q 139 178 139 181 q 129 162 139 172 q 108 138 119 151 q 86 110 96 125 q 76 78 76 94 q 85 53 76 64 q 104 43 93 43 q 168 65 131 43 q 242 114 206 86 q 328 185 283 146 q 344 181 338 185 q 350 167 350 178 q 346 156 350 163 q 331 126 342 150 q 321 79 321 103 q 322 67 321 75 q 326 51 322 60 q 336 37 329 43 q 357 31 343 31 q 391 35 372 31 q 428 47 410 40 q 463 59 447 53 q 488 68 479 65 q 529 85 515 79 q 546 92 538 89 q 551 88 549 92 q 553 82 553 85 z "},"v":{"ha":444,"x_min":19,"x_max":496,"o":"m 496 188 q 485 172 493 176 q 468 167 478 167 q 465 166 468 167 q 442 165 461 165 q 384 163 424 164 q 271 160 344 161 q 248 108 271 138 q 193 51 225 78 q 125 6 161 25 q 63 -12 89 -12 q 31 -1 43 -12 q 19 38 19 10 q 35 90 19 60 q 69 145 50 119 q 102 189 88 171 q 117 204 117 207 q 128 210 122 210 q 140 196 140 210 q 135 183 140 189 q 119 164 129 178 q 98 133 108 150 q 80 97 88 115 q 72 63 72 78 q 100 32 72 32 q 138 42 117 32 q 178 68 158 53 q 210 101 197 83 q 224 135 224 119 q 219 149 224 144 q 209 155 214 153 q 199 160 204 157 q 194 168 194 163 q 200 181 194 174 q 215 198 207 193 q 239 203 222 203 q 290 203 256 203 q 362 205 325 204 q 430 206 399 206 q 469 207 461 207 q 490 203 485 207 q 496 188 496 199 z "},"w":{"ha":524,"x_min":25,"x_max":560,"o":"m 560 206 q 549 191 557 194 q 532 185 542 188 q 501 183 531 185 q 400 178 472 181 q 407 167 403 172 q 414 138 414 156 q 396 79 414 108 q 351 26 378 50 q 292 -14 324 1 q 235 -29 261 -29 q 174 39 174 -29 l 174 42 l 172 42 q 169 40 172 42 q 116 13 135 21 q 71 4 97 4 q 38 15 50 4 q 25 39 25 26 q 40 94 25 64 q 74 151 56 125 q 106 193 92 176 q 121 207 121 210 q 132 213 126 213 q 144 199 144 213 q 139 186 144 192 q 123 167 133 181 q 102 135 113 153 q 84 99 92 118 q 76 65 76 81 q 81 47 76 54 q 90 38 85 40 q 104 33 96 33 q 127 38 115 33 q 149 47 139 42 q 167 56 160 51 q 176 63 175 61 q 185 74 179 65 q 199 91 192 82 q 213 109 207 100 q 224 122 219 118 q 244 133 231 133 q 256 128 250 133 q 258 122 258 125 q 254 106 258 113 q 243 83 251 99 q 228 57 235 68 q 225 47 225 51 q 235 23 225 36 q 272 10 246 10 q 322 24 300 10 q 360 56 344 38 q 385 96 376 75 q 394 131 394 117 q 391 149 394 142 q 382 164 388 157 q 369 176 376 171 q 365 178 369 178 q 353 181 360 179 q 342 187 347 183 q 338 199 338 190 q 349 217 338 214 q 376 221 360 221 q 416 222 393 221 q 462 223 439 222 q 505 224 485 224 q 533 225 525 225 q 554 221 549 225 q 560 206 560 217 z "},"x":{"ha":388,"x_min":7,"x_max":433,"o":"m 433 81 q 429 72 433 75 l 367 47 q 331 33 353 42 q 285 15 310 24 q 236 1 260 7 q 194 -6 213 -6 q 143 15 158 -6 q 125 67 128 36 q 72 26 97 47 q 26 -19 46 4 q 14 -26 19 -26 q 7 -19 11 -26 q 8 -14 7 -15 l 10 -12 q 57 34 26 7 q 125 89 88 61 q 128 131 125 110 q 136 168 132 151 q 147 206 142 188 q 153 216 150 213 q 164 219 157 219 q 183 215 174 219 q 192 199 192 210 q 190 193 192 196 q 188 188 189 190 q 182 168 186 179 q 171 122 175 146 q 244 172 208 150 q 306 206 279 194 q 322 210 314 210 q 335 203 331 210 q 340 188 340 196 q 329 171 340 175 q 253 138 296 158 q 168 93 211 118 l 168 90 q 178 46 168 65 q 218 26 189 26 q 256 31 235 26 q 299 43 278 36 q 340 56 321 50 q 368 67 358 63 q 410 83 396 78 q 426 90 418 88 q 431 87 429 90 q 433 81 433 83 z "},"y":{"ha":413,"x_min":-474,"x_max":446,"o":"m 446 -89 q 417 -107 446 -107 q 369 -102 403 -104 q 293 -100 335 -100 q 218 -102 254 -100 q 146 -110 182 -104 q -13 -322 67 -218 q -166 -508 -93 -426 q -302 -639 -239 -589 q -411 -689 -365 -689 q -459 -662 -444 -689 q -474 -604 -474 -636 q -422 -428 -474 -511 q -284 -276 -369 -344 q -89 -158 -199 -207 q 135 -83 21 -108 q 201 9 171 -35 q 254 89 231 53 q 256 92 256 90 q 253 96 256 96 q 249 93 251 96 q 210 68 235 82 q 160 42 186 54 q 108 22 133 31 q 65 14 82 14 q 22 54 22 14 q 38 96 22 71 q 76 146 54 121 q 117 191 97 171 q 146 217 138 211 q 147 218 146 218 l 153 218 q 164 214 160 218 q 165 210 165 213 q 100 130 117 161 q 83 82 83 99 q 90 64 83 71 q 103 54 96 57 q 121 50 111 50 q 190 74 150 50 q 268 126 231 97 q 333 181 306 156 q 364 210 361 206 q 371 214 368 214 q 375 208 375 214 q 367 189 375 199 q 270 60 319 126 q 171 -76 221 -7 q 250 -66 211 -69 q 328 -62 289 -62 q 381 -63 358 -62 q 418 -64 403 -64 q 442 -71 438 -64 q 446 -89 446 -78 m 113 -117 q -110 -190 -11 -140 q -278 -306 -210 -240 q -384 -445 -347 -371 q -421 -590 -421 -519 q -410 -631 -421 -610 q -375 -651 -399 -651 q -324 -628 -356 -651 q -253 -567 -293 -606 q -168 -475 -214 -528 q -74 -362 -122 -422 q 22 -240 -26 -303 q 113 -117 69 -178 z "},"z":{"ha":413,"x_min":-399,"x_max":444,"o":"m 444 -87 q 435 -107 444 -97 q 404 -117 425 -117 q 349 -115 390 -117 q 264 -112 307 -112 q 251 -112 257 -112 q 239 -114 246 -112 q 190 -228 225 -167 q 107 -351 156 -290 q 1 -467 58 -411 q -116 -566 -57 -524 q -231 -634 -175 -608 q -333 -660 -287 -660 q -381 -644 -364 -660 q -399 -597 -399 -628 q -347 -453 -399 -529 q -211 -308 -296 -378 q -16 -181 -126 -237 q 211 -93 94 -124 l 211 -85 q 199 -29 211 -54 q 158 14 186 -4 q 135 24 147 17 q 124 39 124 32 q 135 50 125 44 q 156 58 146 56 q 202 81 175 64 q 256 120 229 99 q 300 164 282 142 q 318 201 318 186 q 282 221 318 221 q 235 201 265 221 q 169 156 204 182 q 100 106 135 131 q 42 72 65 82 q 21 64 32 68 q -3 54 10 60 q -8 58 -6 54 q -10 64 -10 61 q -6 71 -10 69 q 15 80 6 75 q 33 88 25 85 q 88 119 54 96 q 153 165 121 142 q 212 208 186 189 q 244 232 238 228 q 273 246 254 238 q 315 254 292 254 q 347 242 332 254 q 361 210 361 231 q 341 159 361 183 q 293 114 321 135 q 238 77 265 93 q 196 53 211 61 q 192 49 192 51 q 201 38 192 43 q 220 21 210 32 q 239 -10 231 10 q 247 -60 247 -29 q 247 -72 247 -67 q 244 -85 246 -78 q 328 -72 286 -76 q 411 -67 371 -67 q 433 -72 422 -68 q 444 -87 444 -76 m 207 -118 q 94 -149 154 -126 q -27 -206 33 -172 q -144 -283 -87 -240 q -243 -373 -200 -325 q -312 -473 -286 -421 q -337 -576 -337 -525 q -331 -612 -337 -597 q -301 -628 -325 -628 q -222 -604 -269 -628 q -120 -540 -174 -581 q -12 -448 -67 -500 q 88 -339 42 -396 q 166 -225 133 -282 q 207 -118 199 -168 z "},"{":{"ha":504,"x_min":61,"x_max":685,"o":"m 683 1081 q 665 1076 679 1076 l 651 1076 q 554 1044 588 1076 q 502 960 521 1013 q 470 844 483 908 q 432 716 457 781 q 362 594 407 651 q 233 497 317 536 q 260 416 253 456 q 268 339 268 376 q 245 203 268 267 q 195 82 222 139 q 145 -26 168 25 q 122 -121 122 -76 q 137 -181 122 -153 q 188 -236 151 -208 q 197 -250 197 -246 l 197 -251 q 192 -254 197 -254 q 176 -251 185 -254 q 164 -247 168 -249 q 84 -198 107 -226 q 61 -133 61 -169 q 89 -33 61 -87 q 150 84 117 22 q 211 212 183 146 q 239 346 239 278 q 228 424 239 385 q 189 499 218 463 l 186 501 q 183 506 183 504 q 194 513 186 513 q 322 587 276 533 q 392 707 367 640 q 430 846 417 774 q 458 978 443 918 q 501 1076 474 1038 q 582 1115 528 1115 q 654 1100 611 1115 q 672 1092 658 1097 q 683 1081 685 1086 z "},"|":{"ha":407,"x_min":28,"x_max":586,"o":"m 586 1124 q 585 1115 586 1119 q 583 1104 585 1111 q 360 524 464 800 q 270 283 315 406 q 185 46 225 160 q 114 -167 146 -68 q 64 -335 82 -265 q 57 -352 61 -344 q 43 -360 53 -360 q 33 -355 39 -360 q 28 -339 28 -350 q 88 -131 51 -249 q 169 119 125 -12 q 263 390 214 251 q 359 659 311 528 q 452 907 407 790 q 532 1111 497 1024 q 549 1131 538 1124 q 571 1139 561 1139 q 586 1124 586 1139 z "},"}":{"ha":588,"x_min":0,"x_max":624,"o":"m 624 1094 q 596 994 624 1049 q 535 877 568 939 q 474 749 501 815 q 446 615 446 683 q 456 538 446 576 q 496 463 467 499 l 499 460 q 501 456 501 457 q 490 449 499 449 q 363 374 408 428 q 293 254 318 321 q 255 115 268 188 q 226 -17 242 43 q 184 -115 211 -76 q 103 -154 157 -154 q 31 -139 74 -154 q 13 -131 26 -136 q 1 -119 0 -125 q 19 -115 6 -115 l 33 -115 q 131 -83 97 -115 q 183 1 164 -51 q 215 117 201 53 q 253 245 228 181 q 324 367 278 310 q 451 464 369 425 q 424 545 432 506 q 417 622 417 585 q 440 758 417 694 q 490 879 463 822 q 540 987 517 936 q 563 1082 563 1038 q 548 1142 563 1114 q 497 1197 533 1169 q 488 1211 488 1207 l 488 1213 q 493 1215 488 1215 q 508 1213 500 1215 q 521 1208 517 1210 q 601 1159 578 1188 q 624 1094 624 1131 z "},"Ä":{"ha":1458,"x_min":74,"x_max":1500,"o":"m 1426 1093 q 1421 1072 1426 1083 q 1407 1049 1415 1060 q 1388 1032 1399 1039 q 1367 1025 1378 1025 q 1342 1047 1342 1025 q 1347 1069 1342 1057 q 1361 1091 1353 1081 q 1381 1108 1369 1101 q 1401 1115 1392 1115 q 1426 1093 1426 1115 m 1297 1093 q 1292 1072 1297 1083 q 1278 1049 1286 1060 q 1259 1032 1269 1039 q 1238 1025 1249 1025 q 1213 1047 1213 1025 q 1218 1069 1213 1057 q 1232 1091 1224 1081 q 1251 1108 1240 1101 q 1272 1115 1263 1115 q 1297 1093 1297 1115 m 1500 140 q 1417 78 1465 110 q 1316 19 1369 46 q 1206 -26 1263 -8 q 1094 -43 1149 -43 q 993 -9 1033 -43 q 953 78 953 25 q 963 138 953 110 q 975 176 972 167 q 976 181 976 178 q 975 182 976 181 l 974 182 q 775 56 878 111 q 683 9 732 32 q 581 -32 633 -14 q 476 -60 529 -50 q 371 -71 422 -71 q 238 -52 294 -71 q 146 0 182 -33 q 92 79 110 33 q 74 179 74 125 q 108 344 74 256 q 206 521 142 433 q 363 690 269 608 q 572 833 456 771 q 829 933 689 896 q 1128 969 969 969 q 1260 950 1194 969 q 1378 894 1326 931 q 1463 806 1431 857 q 1496 693 1496 756 q 1483 600 1496 644 q 1451 516 1471 556 q 1405 442 1431 476 q 1351 379 1379 407 q 1207 261 1288 313 l 1204 261 q 1201 260 1203 261 q 1197 260 1200 260 q 1186 261 1194 260 q 1169 265 1178 263 q 1155 272 1161 267 q 1149 282 1149 276 q 1163 299 1149 289 q 1297 419 1239 353 q 1347 481 1322 447 q 1390 551 1371 514 q 1419 629 1408 589 q 1431 713 1431 669 q 1410 799 1431 757 q 1347 874 1389 842 q 1243 925 1306 906 q 1097 944 1181 944 q 836 910 960 944 q 607 819 713 876 q 417 685 501 761 q 274 528 333 610 q 183 365 215 447 q 151 210 151 282 q 169 115 151 158 q 222 39 186 71 q 315 -11 258 7 q 447 -29 371 -29 q 564 -12 503 -29 q 685 31 625 4 q 803 93 746 58 q 911 163 861 128 q 1002 233 961 199 q 1068 292 1043 267 q 1077 301 1074 296 q 1088 307 1081 307 q 1096 304 1090 307 q 1106 292 1106 299 q 1094 272 1106 283 q 1064 233 1078 251 q 1040 197 1050 215 q 1025 156 1031 178 q 1019 106 1019 135 q 1047 19 1019 43 q 1115 -6 1075 -6 q 1256 20 1189 -6 q 1374 76 1322 46 q 1485 157 1433 113 l 1488 157 q 1497 151 1493 157 q 1500 142 1500 146 l 1500 140 l 1500 140 z "},"Å":{"ha":1458,"x_min":74,"x_max":1500,"o":"m 1357 1111 q 1349 1078 1357 1094 q 1330 1051 1342 1063 q 1304 1031 1318 1039 q 1276 1024 1290 1024 q 1251 1034 1261 1024 q 1242 1061 1242 1044 q 1247 1089 1242 1074 q 1262 1118 1251 1104 q 1288 1141 1272 1132 q 1322 1150 1303 1150 q 1348 1139 1339 1150 q 1357 1111 1357 1128 m 1500 140 q 1417 78 1465 110 q 1316 19 1369 46 q 1206 -26 1263 -8 q 1094 -43 1149 -43 q 993 -9 1033 -43 q 953 78 953 25 q 963 138 953 110 q 975 176 972 167 q 976 181 976 178 q 975 182 976 181 l 974 182 q 775 56 878 111 q 683 9 732 32 q 581 -32 633 -14 q 476 -60 529 -50 q 371 -71 422 -71 q 238 -52 294 -71 q 146 0 182 -33 q 92 79 110 33 q 74 179 74 125 q 108 344 74 256 q 206 521 142 433 q 363 690 269 608 q 572 833 456 771 q 829 933 689 896 q 1128 969 969 969 q 1260 950 1194 969 q 1378 894 1326 931 q 1463 806 1431 857 q 1496 693 1496 756 q 1483 600 1496 644 q 1451 516 1471 556 q 1405 442 1431 476 q 1351 379 1379 407 q 1207 261 1288 313 l 1204 261 q 1201 260 1203 261 q 1197 260 1200 260 q 1186 261 1194 260 q 1169 265 1178 263 q 1155 272 1161 267 q 1149 282 1149 276 q 1163 299 1149 289 q 1297 419 1239 353 q 1347 481 1322 447 q 1390 551 1371 514 q 1419 629 1408 589 q 1431 713 1431 669 q 1410 799 1431 757 q 1347 874 1389 842 q 1243 925 1306 906 q 1097 944 1181 944 q 836 910 960 944 q 607 819 713 876 q 417 685 501 761 q 274 528 333 610 q 183 365 215 447 q 151 210 151 282 q 169 115 151 158 q 222 39 186 71 q 315 -11 258 7 q 447 -29 371 -29 q 564 -12 503 -29 q 685 31 625 4 q 803 93 746 58 q 911 163 861 128 q 1002 233 961 199 q 1068 292 1043 267 q 1077 301 1074 296 q 1088 307 1081 307 q 1096 304 1090 307 q 1106 292 1106 299 q 1094 272 1106 283 q 1064 233 1078 251 q 1040 197 1050 215 q 1025 156 1031 178 q 1019 106 1019 135 q 1047 19 1019 43 q 1115 -6 1075 -6 q 1256 20 1189 -6 q 1374 76 1322 46 q 1485 157 1433 113 l 1488 157 q 1497 151 1493 157 q 1500 142 1500 146 l 1500 140 l 1500 140 m 1339 1101 q 1333 1120 1339 1113 q 1314 1128 1328 1128 q 1275 1108 1289 1128 q 1260 1072 1261 1089 q 1283 1047 1260 1047 q 1319 1063 1303 1047 q 1339 1101 1336 1078 z "},"Ç":{"ha":1296,"x_min":3,"x_max":1314,"o":"m 1314 883 q 1299 846 1314 861 q 1265 819 1285 831 q 1215 800 1243 807 q 1206 807 1206 800 q 1215 822 1206 814 q 1235 835 1224 829 q 1246 850 1246 842 q 1237 860 1246 857 q 1218 867 1228 864 q 1123 881 1169 876 q 1032 885 1076 885 q 815 862 928 885 q 596 797 703 839 q 392 694 489 754 q 222 561 294 635 q 107 403 150 488 q 64 226 64 319 q 92 112 64 156 q 164 44 119 68 q 267 11 208 19 q 385 3 325 3 q 534 6 471 3 q 656 11 597 8 q 778 17 714 14 q 931 19 842 19 q 1097 12 1028 19 q 1183 1 1165 4 q 1247 -28 1231 -8 q 1264 -71 1264 -47 q 1253 -83 1264 -83 q 1247 -83 1250 -83 q 1240 -81 1244 -82 q 1182 -67 1218 -74 q 1101 -57 1146 -61 q 1005 -50 1057 -53 q 899 -47 953 -47 q 747 -51 817 -47 q 617 -58 678 -54 q 503 -65 557 -61 q 397 -68 449 -68 q 229 -47 308 -68 l 215 -72 q 221 -79 215 -75 q 243 -94 231 -85 q 267 -115 256 -103 q 287 -139 279 -126 q 294 -165 294 -151 q 272 -191 294 -183 q 224 -199 250 -199 q 192 -196 207 -199 q 169 -190 179 -193 q 160 -181 160 -187 q 164 -172 160 -175 q 172 -169 168 -169 q 193 -175 182 -169 q 218 -181 204 -181 q 244 -176 233 -181 q 256 -157 256 -171 q 249 -131 256 -143 q 233 -108 242 -118 q 215 -90 224 -97 q 201 -81 206 -83 q 199 -74 199 -79 l 213 -42 q 130 -5 168 -28 q 63 50 92 18 q 19 126 35 82 q 3 225 3 169 q 56 411 3 321 q 196 581 108 501 q 398 728 283 661 q 637 842 513 794 q 886 917 761 890 q 1121 944 1011 944 q 1182 943 1149 944 q 1244 936 1215 942 q 1294 918 1274 931 q 1314 883 1314 906 z "},"É":{"ha":1471,"x_min":156,"x_max":1481,"o":"m 1319 1128 q 1301 1094 1319 1110 q 1261 1068 1283 1079 q 1219 1051 1239 1057 q 1194 1044 1199 1044 q 1183 1045 1189 1044 q 1178 1050 1178 1046 q 1194 1065 1178 1060 q 1234 1086 1218 1072 q 1263 1113 1250 1100 q 1285 1136 1275 1126 q 1303 1146 1294 1146 q 1319 1128 1319 1146 m 1481 1 q 1468 -21 1478 -15 q 1442 -26 1458 -26 q 1363 -26 1418 -26 q 1243 -25 1307 -25 q 1057 -28 1149 -25 q 866 -36 965 -32 q 657 -44 767 -40 q 417 -47 547 -47 q 310 -44 349 -47 q 256 -39 271 -42 q 178 0 200 -26 q 156 58 156 26 q 186 156 156 111 q 267 240 217 201 q 382 310 317 278 q 517 369 447 343 q 658 417 588 396 q 787 453 728 438 q 890 479 846 468 q 951 497 933 490 q 1013 529 1013 519 q 995 540 1013 538 q 967 542 978 542 q 888 540 922 542 q 823 535 854 538 q 759 530 792 533 q 683 524 726 526 q 581 520 639 522 q 442 518 524 518 q 393 524 417 518 q 351 542 369 531 q 320 571 332 554 q 308 610 308 588 q 362 717 308 668 q 501 804 415 765 q 696 873 588 843 q 913 922 804 903 q 1122 951 1022 942 q 1290 961 1222 961 q 1419 955 1369 961 q 1468 928 1468 949 q 1456 909 1468 918 q 1428 892 1444 900 q 1393 881 1411 885 q 1363 876 1375 876 q 1357 879 1357 876 q 1358 884 1357 881 q 1360 890 1360 888 q 1356 898 1360 894 q 1339 901 1351 901 q 1088 893 1211 901 q 856 868 965 885 q 656 828 747 851 q 498 776 564 806 q 395 713 432 747 q 358 642 358 679 q 377 608 358 619 q 422 590 396 596 q 476 583 449 585 q 522 582 504 582 q 626 585 572 582 q 733 592 681 589 q 835 599 786 596 q 926 603 885 603 q 1024 592 988 603 q 1061 553 1061 582 q 1033 510 1061 529 q 971 481 1006 490 q 802 434 890 458 q 630 383 714 410 q 470 324 546 356 q 337 258 394 293 q 245 183 279 222 q 211 97 211 143 q 226 61 213 76 q 261 35 238 47 q 329 24 285 24 q 570 26 456 24 q 792 32 685 29 q 1004 38 900 35 q 1213 40 1108 40 q 1347 40 1286 40 q 1426 38 1407 40 q 1470 24 1460 35 q 1481 1 1481 14 z "},"Ñ":{"ha":936,"x_min":-296,"x_max":1132,"o":"m 1053 932 q 1033 897 1053 913 q 994 882 1014 882 q 971 887 985 882 q 942 897 957 892 q 915 906 928 901 q 896 911 903 911 q 866 898 876 911 q 853 885 856 885 q 847 893 847 885 q 865 930 847 913 q 906 947 882 947 q 926 942 914 947 q 951 932 938 938 q 978 922 965 926 q 1003 917 992 917 q 1031 930 1019 917 q 1046 943 1043 943 q 1053 932 1053 943 m 1132 647 q 1095 540 1132 603 q 1003 401 1058 476 q 883 244 947 326 q 763 81 818 163 q 670 -77 707 0 q 633 -217 633 -154 q 644 -301 633 -264 q 664 -357 656 -337 q 667 -371 667 -362 q 660 -384 667 -381 q 643 -387 653 -387 q 614 -376 628 -387 q 590 -347 600 -365 q 573 -302 579 -328 q 567 -249 567 -276 q 604 -109 567 -186 q 697 51 642 -32 q 818 218 753 133 q 939 378 883 303 q 1032 518 994 454 q 1069 624 1069 582 q 1045 663 1069 651 q 999 675 1021 675 q 916 653 963 675 q 818 597 869 632 q 713 516 767 561 q 605 423 658 471 q 502 329 551 375 q 411 247 453 283 q 381 217 403 240 q 329 163 358 193 q 267 97 300 132 q 207 33 235 63 q 160 -19 179 3 q 136 -44 140 -40 q 111 -62 122 -62 q 99 -58 104 -62 q 93 -46 93 -53 q 106 -25 93 -37 q 156 33 125 -6 q 222 122 186 72 q 298 227 258 171 q 374 339 338 283 q 438 439 407 390 q 494 532 469 488 q 532 617 518 576 q 546 690 546 657 q 510 788 546 749 q 415 855 474 828 q 280 900 356 882 q 125 935 204 918 q -30 970 46 951 q -165 1017 -106 989 q -260 1088 -224 1046 q -296 1192 -296 1129 q -290 1231 -296 1215 q -276 1258 -283 1247 q -256 1279 -268 1271 q -244 1283 -250 1283 q -235 1275 -235 1283 q -239 1267 -235 1271 q -260 1233 -254 1249 q -265 1203 -265 1217 q -228 1131 -265 1160 q -132 1079 -192 1101 q 4 1040 -72 1057 q 161 1006 81 1024 q 318 966 242 988 q 454 914 394 944 q 551 840 514 883 q 588 736 588 797 q 567 612 588 674 q 509 484 546 550 q 422 347 472 418 q 315 194 372 276 q 294 165 303 178 q 281 146 288 154 q 276 139 275 138 q 372 236 315 178 q 498 358 429 294 q 642 486 567 422 q 790 601 717 550 q 931 683 864 651 q 1053 715 999 715 q 1108 699 1085 715 q 1132 647 1132 683 z "},"Ö":{"ha":1188,"x_min":101,"x_max":1399,"o":"m 1324 1151 q 1318 1130 1324 1142 q 1304 1108 1313 1118 q 1285 1090 1296 1097 q 1264 1083 1275 1083 q 1239 1106 1239 1083 q 1244 1127 1239 1115 q 1258 1149 1250 1139 q 1278 1167 1267 1160 q 1299 1174 1289 1174 q 1324 1151 1324 1174 m 1194 1151 q 1189 1130 1194 1142 q 1175 1108 1183 1118 q 1156 1090 1167 1097 q 1135 1083 1146 1083 q 1110 1106 1110 1083 q 1115 1127 1110 1115 q 1129 1149 1121 1139 q 1149 1167 1138 1160 q 1169 1174 1160 1174 q 1194 1151 1194 1174 m 1399 697 q 1363 504 1399 601 q 1263 317 1326 407 q 1115 150 1200 228 q 930 15 1029 72 q 722 -76 831 -43 q 506 -110 614 -110 q 372 -95 431 -110 q 272 -57 314 -81 q 200 -2 229 -33 q 151 61 171 29 q 101 232 107 138 q 132 390 101 321 q 209 511 163 458 q 311 602 256 564 q 417 668 367 640 q 536 802 468 739 q 685 913 604 865 q 856 987 765 960 q 1043 1014 947 1014 q 1180 990 1115 1014 q 1293 925 1244 967 q 1370 825 1342 883 q 1399 697 1399 767 m 1338 629 q 1309 771 1338 708 q 1233 877 1281 833 q 1121 944 1185 921 q 986 967 1057 967 q 828 946 903 967 q 692 889 754 925 q 577 803 629 853 q 485 697 525 754 q 542 715 518 710 q 574 721 567 721 q 586 713 586 721 q 571 701 586 701 q 531 694 560 701 q 465 669 503 686 q 385 498 413 586 q 358 329 358 410 q 359 303 358 313 q 360 286 360 293 q 362 273 361 279 q 363 258 363 267 q 350 241 363 246 q 326 236 338 236 q 310 245 315 236 q 301 269 304 254 q 298 301 299 283 q 297 338 297 319 q 322 484 297 410 q 390 629 346 558 q 313 570 351 604 q 244 490 275 536 q 195 388 214 444 q 176 261 176 331 q 202 124 176 185 q 276 21 228 63 q 392 -43 324 -21 q 544 -65 460 -65 q 727 -38 633 -65 q 909 37 821 -11 q 1075 150 997 85 q 1211 292 1153 215 q 1303 456 1269 369 q 1338 629 1338 542 z "},"Ü":{"ha":1075,"x_min":85,"x_max":1410,"o":"m 1288 982 q 1282 960 1288 972 q 1268 938 1276 949 q 1249 921 1260 928 q 1228 914 1239 914 q 1203 936 1203 914 q 1208 958 1203 946 q 1222 980 1214 969 q 1242 997 1231 990 q 1263 1004 1253 1004 q 1288 982 1288 1004 m 1158 982 q 1153 960 1158 972 q 1139 938 1147 949 q 1120 921 1131 928 q 1099 914 1110 914 q 1074 936 1074 914 q 1079 958 1074 946 q 1093 980 1085 969 q 1113 997 1101 990 q 1133 1004 1124 1004 q 1158 982 1158 1004 m 1410 731 q 1407 722 1410 726 q 1397 711 1404 718 q 1310 608 1361 665 q 1205 487 1260 550 q 1096 357 1150 424 q 999 226 1042 290 q 929 104 956 163 q 903 -1 903 46 q 874 -19 892 -12 q 844 -25 857 -25 q 822 -17 828 -25 q 817 3 817 -8 q 847 103 817 47 q 920 215 878 158 q 1008 322 963 271 q 1081 408 1053 372 q 1085 417 1085 415 q 1083 419 1085 419 q 1071 411 1079 419 q 970 331 1029 376 q 843 236 911 285 q 700 140 775 188 q 551 56 625 93 q 405 -5 476 18 q 272 -28 333 -28 q 197 -15 232 -28 q 138 24 163 -3 q 99 90 113 50 q 85 185 85 129 q 116 345 85 267 q 199 496 147 424 q 318 633 251 568 q 455 754 385 699 q 593 853 525 810 q 717 928 661 897 q 726 933 719 929 q 736 938 733 938 q 749 926 749 938 q 743 918 749 922 q 660 871 714 904 q 540 787 606 838 q 408 672 475 736 q 285 532 340 607 q 194 372 229 457 q 158 199 158 288 q 173 114 158 149 q 212 58 188 79 q 268 28 236 38 q 335 18 300 18 q 488 53 401 18 q 672 147 575 89 q 869 281 769 206 q 1062 435 969 357 q 1233 590 1154 514 q 1365 728 1313 667 q 1377 743 1371 735 q 1390 751 1383 751 q 1403 742 1397 751 q 1410 731 1410 733 z "},"á":{"ha":400,"x_min":-15,"x_max":454,"o":"m 454 392 q 436 358 454 374 q 396 332 418 343 q 353 315 374 321 q 329 308 333 308 q 318 309 324 308 q 313 314 313 310 q 329 329 313 324 q 369 350 353 336 q 397 377 385 364 q 419 400 410 390 q 438 410 429 410 q 454 392 454 410 m 450 82 q 446 74 450 76 l 383 49 q 348 34 369 43 q 301 17 326 25 q 253 2 276 8 q 211 -4 229 -4 q 182 14 182 -4 q 184 28 182 19 q 193 47 186 38 q 163 28 182 39 q 121 9 143 18 q 76 -7 99 0 q 35 -14 53 -14 q -3 -3 8 -14 q -15 22 -15 7 q 13 88 -15 49 q 83 162 40 126 q 178 222 126 197 q 276 247 229 247 q 310 239 300 247 q 319 215 319 231 q 299 175 319 193 q 261 146 279 157 q 253 143 256 143 q 245 147 250 143 q 240 156 240 150 q 251 176 240 163 q 265 192 257 182 q 272 210 272 203 q 267 219 272 215 q 247 222 263 222 q 189 205 224 222 q 122 162 154 188 q 67 108 90 136 q 44 60 44 81 q 57 37 44 44 q 85 29 69 29 q 119 36 100 29 q 157 51 139 43 q 190 69 175 60 q 208 82 204 78 q 217 90 211 85 q 228 96 222 96 q 236 93 231 96 q 242 83 242 90 q 232 64 235 72 q 229 49 229 56 q 254 31 229 31 q 288 35 269 31 q 326 47 307 40 q 360 59 344 53 q 385 68 376 65 q 426 85 413 79 q 443 92 435 89 q 448 88 446 92 q 450 82 450 85 z "},"à":{"ha":400,"x_min":-15,"x_max":450,"o":"m 357 318 q 351 313 357 314 q 340 313 346 313 q 316 319 336 313 q 274 336 296 325 q 233 363 251 347 q 215 396 215 378 q 232 414 215 414 q 250 404 240 414 q 272 381 260 394 q 301 354 285 368 q 340 333 318 340 q 357 318 357 328 m 450 82 q 446 74 450 76 l 383 49 q 348 34 369 43 q 301 17 326 25 q 253 2 276 8 q 211 -4 229 -4 q 182 14 182 -4 q 184 28 182 19 q 193 47 186 38 q 163 28 182 39 q 121 9 143 18 q 76 -7 99 0 q 35 -14 53 -14 q -3 -3 8 -14 q -15 22 -15 7 q 13 88 -15 49 q 83 162 40 126 q 178 222 126 197 q 276 247 229 247 q 310 239 300 247 q 319 215 319 231 q 299 175 319 193 q 261 146 279 157 q 253 143 256 143 q 245 147 250 143 q 240 156 240 150 q 251 176 240 163 q 265 192 257 182 q 272 210 272 203 q 267 219 272 215 q 247 222 263 222 q 189 205 224 222 q 122 162 154 188 q 67 108 90 136 q 44 60 44 81 q 57 37 44 44 q 85 29 69 29 q 119 36 100 29 q 157 51 139 43 q 190 69 175 60 q 208 82 204 78 q 217 90 211 85 q 228 96 222 96 q 236 93 231 96 q 242 83 242 90 q 232 64 235 72 q 229 49 229 56 q 254 31 229 31 q 288 35 269 31 q 326 47 307 40 q 360 59 344 53 q 385 68 376 65 q 426 85 413 79 q 443 92 435 89 q 448 88 446 92 q 450 82 450 85 z "},"â":{"ha":400,"x_min":-15,"x_max":450,"o":"m 369 300 q 365 293 369 293 q 349 299 360 293 q 328 314 339 304 q 306 336 317 324 q 289 361 294 349 q 260 342 276 350 q 230 327 244 333 q 203 317 215 321 q 189 314 192 314 q 178 315 183 314 q 172 319 172 315 q 189 335 172 329 q 231 355 213 342 q 265 381 250 368 q 293 404 281 394 q 314 414 306 414 q 328 405 326 414 q 332 382 331 396 q 338 351 333 368 q 360 315 342 333 q 369 300 369 306 m 450 82 q 446 74 450 76 l 383 49 q 348 34 369 43 q 301 17 326 25 q 253 2 276 8 q 211 -4 229 -4 q 182 14 182 -4 q 184 28 182 19 q 193 47 186 38 q 163 28 182 39 q 121 9 143 18 q 76 -7 99 0 q 35 -14 53 -14 q -3 -3 8 -14 q -15 22 -15 7 q 13 88 -15 49 q 83 162 40 126 q 178 222 126 197 q 276 247 229 247 q 310 239 300 247 q 319 215 319 231 q 299 175 319 193 q 261 146 279 157 q 253 143 256 143 q 245 147 250 143 q 240 156 240 150 q 251 176 240 163 q 265 192 257 182 q 272 210 272 203 q 267 219 272 215 q 247 222 263 222 q 189 205 224 222 q 122 162 154 188 q 67 108 90 136 q 44 60 44 81 q 57 37 44 44 q 85 29 69 29 q 119 36 100 29 q 157 51 139 43 q 190 69 175 60 q 208 82 204 78 q 217 90 211 85 q 228 96 222 96 q 236 93 231 96 q 242 83 242 90 q 232 64 235 72 q 229 49 229 56 q 254 31 229 31 q 288 35 269 31 q 326 47 307 40 q 360 59 344 53 q 385 68 376 65 q 426 85 413 79 q 443 92 435 89 q 448 88 446 92 q 450 82 450 85 z "},"ä":{"ha":400,"x_min":-15,"x_max":450,"o":"m 429 368 q 424 347 429 358 q 410 324 418 335 q 391 307 401 314 q 369 300 381 300 q 344 322 344 300 q 350 344 344 332 q 364 366 356 356 q 383 383 372 376 q 404 390 394 390 q 429 368 429 390 m 300 368 q 294 347 300 358 q 281 324 289 335 q 262 307 272 314 q 240 300 251 300 q 215 322 215 300 q 221 344 215 332 q 235 366 226 356 q 254 383 243 376 q 275 390 265 390 q 300 368 300 390 m 450 82 q 446 74 450 76 l 383 49 q 348 34 369 43 q 301 17 326 25 q 253 2 276 8 q 211 -4 229 -4 q 182 14 182 -4 q 184 28 182 19 q 193 47 186 38 q 163 28 182 39 q 121 9 143 18 q 76 -7 99 0 q 35 -14 53 -14 q -3 -3 8 -14 q -15 22 -15 7 q 13 88 -15 49 q 83 162 40 126 q 178 222 126 197 q 276 247 229 247 q 310 239 300 247 q 319 215 319 231 q 299 175 319 193 q 261 146 279 157 q 253 143 256 143 q 245 147 250 143 q 240 156 240 150 q 251 176 240 163 q 265 192 257 182 q 272 210 272 203 q 267 219 272 215 q 247 222 263 222 q 189 205 224 222 q 122 162 154 188 q 67 108 90 136 q 44 60 44 81 q 57 37 44 44 q 85 29 69 29 q 119 36 100 29 q 157 51 139 43 q 190 69 175 60 q 208 82 204 78 q 217 90 211 85 q 228 96 222 96 q 236 93 231 96 q 242 83 242 90 q 232 64 235 72 q 229 49 229 56 q 254 31 229 31 q 288 35 269 31 q 326 47 307 40 q 360 59 344 53 q 385 68 376 65 q 426 85 413 79 q 443 92 435 89 q 448 88 446 92 q 450 82 450 85 z "},"ã":{"ha":400,"x_min":-15,"x_max":450,"o":"m 381 356 q 361 321 381 336 q 322 306 342 306 q 299 310 313 306 q 270 320 285 315 q 243 330 256 325 q 224 335 231 335 q 194 322 204 335 q 181 308 183 308 q 175 317 175 308 q 192 353 175 336 q 233 371 210 371 q 253 366 242 371 q 279 356 265 361 q 306 345 293 350 q 331 340 319 340 q 359 353 347 340 q 374 367 371 367 q 381 356 381 367 m 450 82 q 446 74 450 76 l 383 49 q 348 34 369 43 q 301 17 326 25 q 253 2 276 8 q 211 -4 229 -4 q 182 14 182 -4 q 184 28 182 19 q 193 47 186 38 q 163 28 182 39 q 121 9 143 18 q 76 -7 99 0 q 35 -14 53 -14 q -3 -3 8 -14 q -15 22 -15 7 q 13 88 -15 49 q 83 162 40 126 q 178 222 126 197 q 276 247 229 247 q 310 239 300 247 q 319 215 319 231 q 299 175 319 193 q 261 146 279 157 q 253 143 256 143 q 245 147 250 143 q 240 156 240 150 q 251 176 240 163 q 265 192 257 182 q 272 210 272 203 q 267 219 272 215 q 247 222 263 222 q 189 205 224 222 q 122 162 154 188 q 67 108 90 136 q 44 60 44 81 q 57 37 44 44 q 85 29 69 29 q 119 36 100 29 q 157 51 139 43 q 190 69 175 60 q 208 82 204 78 q 217 90 211 85 q 228 96 222 96 q 236 93 231 96 q 242 83 242 90 q 232 64 235 72 q 229 49 229 56 q 254 31 229 31 q 288 35 269 31 q 326 47 307 40 q 360 59 344 53 q 385 68 376 65 q 426 85 413 79 q 443 92 435 89 q 448 88 446 92 q 450 82 450 85 z "},"å":{"ha":400,"x_min":-15,"x_max":450,"o":"m 411 374 q 403 341 411 357 q 384 313 396 325 q 358 294 372 301 q 331 286 344 286 q 306 297 315 286 q 296 324 296 307 q 301 351 296 336 q 316 381 306 367 q 342 403 326 394 q 376 413 357 413 q 402 401 393 413 q 411 374 411 390 m 450 82 q 446 74 450 76 l 383 49 q 348 34 369 43 q 301 17 326 25 q 253 2 276 8 q 211 -4 229 -4 q 182 14 182 -4 q 184 28 182 19 q 193 47 186 38 q 163 28 182 39 q 121 9 143 18 q 76 -7 99 0 q 35 -14 53 -14 q -3 -3 8 -14 q -15 22 -15 7 q 13 88 -15 49 q 83 162 40 126 q 178 222 126 197 q 276 247 229 247 q 310 239 300 247 q 319 215 319 231 q 299 175 319 193 q 261 146 279 157 q 253 143 256 143 q 245 147 250 143 q 240 156 240 150 q 251 176 240 163 q 265 192 257 182 q 272 210 272 203 q 267 219 272 215 q 247 222 263 222 q 189 205 224 222 q 122 162 154 188 q 67 108 90 136 q 44 60 44 81 q 57 37 44 44 q 85 29 69 29 q 119 36 100 29 q 157 51 139 43 q 190 69 175 60 q 208 82 204 78 q 217 90 211 85 q 228 96 222 96 q 236 93 231 96 q 242 83 242 90 q 232 64 235 72 q 229 49 229 56 q 254 31 229 31 q 288 35 269 31 q 326 47 307 40 q 360 59 344 53 q 385 68 376 65 q 426 85 413 79 q 443 92 435 89 q 448 88 446 92 q 450 82 450 85 m 393 364 q 388 383 393 375 q 368 390 382 390 q 329 371 343 390 q 314 335 315 351 q 338 310 314 310 q 374 325 357 310 q 393 364 390 340 z "},"ç":{"ha":351,"x_min":17,"x_max":400,"o":"m 400 82 q 396 74 400 76 q 285 32 339 50 q 190 3 239 17 q 107 -11 140 -11 q 76 -6 89 -11 l 72 -14 q 78 -21 72 -17 q 100 -35 88 -26 q 124 -56 113 -44 q 144 -81 136 -68 q 151 -107 151 -93 q 129 -133 151 -125 q 81 -140 107 -140 q 49 -137 64 -140 q 26 -132 36 -135 q 17 -122 17 -129 q 21 -114 17 -117 q 29 -111 25 -111 q 50 -117 39 -111 q 75 -122 61 -122 q 101 -117 90 -122 q 113 -99 113 -112 q 106 -72 113 -85 q 90 -49 99 -60 q 72 -32 81 -39 q 58 -22 63 -25 q 56 -15 56 -21 l 63 0 q 33 27 44 10 q 22 69 22 44 q 49 142 22 106 q 113 208 75 179 q 194 256 151 238 q 272 275 238 275 q 289 271 282 275 q 304 240 304 264 q 294 213 304 226 q 271 188 283 199 q 238 164 256 175 q 232 163 236 164 q 214 160 224 160 q 207 169 207 160 q 215 185 207 176 q 244 210 226 192 q 261 242 261 228 q 244 251 261 251 q 194 237 224 251 q 138 201 165 222 q 92 152 111 179 q 74 100 74 125 q 97 48 74 67 q 163 29 119 29 q 239 40 199 29 q 314 61 279 50 q 393 92 354 75 q 398 88 396 92 q 400 82 400 85 z "},"é":{"ha":321,"x_min":8,"x_max":364,"o":"m 332 413 q 314 379 332 394 q 274 353 296 364 q 231 335 251 342 q 207 329 211 329 q 196 330 201 329 q 190 335 190 331 q 207 350 190 344 q 247 371 231 357 q 275 398 263 385 q 297 421 288 411 q 315 431 307 431 q 332 413 332 431 m 364 82 q 360 74 364 76 q 249 32 303 50 q 153 3 203 17 q 71 -11 104 -11 q 26 2 43 -11 q 8 36 8 15 q 21 72 8 56 q 48 101 33 89 q 74 122 63 114 q 86 132 86 131 q 76 136 86 135 q 40 142 65 138 q 20 151 25 144 q 15 164 15 157 q 22 181 15 174 q 31 192 28 189 q 96 228 58 210 q 170 260 133 246 q 238 282 207 274 q 281 290 268 290 q 306 284 294 290 q 318 263 318 278 q 311 248 318 256 q 294 234 304 240 q 274 224 285 228 q 254 219 263 219 q 241 222 247 219 q 235 232 235 225 q 242 250 235 240 q 244 256 244 253 q 238 258 244 258 q 229 258 235 258 q 217 256 224 257 q 185 245 206 253 q 143 228 164 238 q 106 210 122 218 q 85 199 89 201 q 79 190 79 194 q 88 181 79 183 q 97 180 89 181 q 115 178 106 179 q 134 178 125 178 q 147 178 143 178 q 165 172 163 176 q 168 158 168 168 q 165 144 168 151 q 147 135 163 138 q 91 111 118 128 q 64 67 64 94 q 85 38 64 47 q 126 29 107 29 q 203 40 163 29 q 278 61 243 50 q 357 92 318 75 q 362 88 360 92 q 364 82 364 85 z "},"è":{"ha":321,"x_min":8,"x_max":364,"o":"m 300 339 q 294 334 300 335 q 283 333 289 333 q 259 340 279 333 q 217 357 239 346 q 176 383 194 368 q 158 417 158 399 q 175 435 158 435 q 193 425 183 435 q 215 402 203 415 q 244 375 228 389 q 283 354 261 361 q 300 339 300 349 m 364 82 q 360 74 364 76 q 249 32 303 50 q 153 3 203 17 q 71 -11 104 -11 q 26 2 43 -11 q 8 36 8 15 q 21 72 8 56 q 48 101 33 89 q 74 122 63 114 q 86 132 86 131 q 76 136 86 135 q 40 142 65 138 q 20 151 25 144 q 15 164 15 157 q 22 181 15 174 q 31 192 28 189 q 96 228 58 210 q 170 260 133 246 q 238 282 207 274 q 281 290 268 290 q 306 284 294 290 q 318 263 318 278 q 311 248 318 256 q 294 234 304 240 q 274 224 285 228 q 254 219 263 219 q 241 222 247 219 q 235 232 235 225 q 242 250 235 240 q 244 256 244 253 q 238 258 244 258 q 229 258 235 258 q 217 256 224 257 q 185 245 206 253 q 143 228 164 238 q 106 210 122 218 q 85 199 89 201 q 79 190 79 194 q 88 181 79 183 q 97 180 89 181 q 115 178 106 179 q 134 178 125 178 q 147 178 143 178 q 165 172 163 176 q 168 158 168 168 q 165 144 168 151 q 147 135 163 138 q 91 111 118 128 q 64 67 64 94 q 85 38 64 47 q 126 29 107 29 q 203 40 163 29 q 278 61 243 50 q 357 92 318 75 q 362 88 360 92 q 364 82 364 85 z "},"ê":{"ha":321,"x_min":8,"x_max":364,"o":"m 336 333 q 332 326 336 326 q 316 332 326 326 q 294 347 306 338 q 272 369 283 357 q 256 394 261 382 q 227 375 243 383 q 197 360 211 367 q 170 351 182 354 q 156 347 158 347 q 144 348 150 347 q 139 353 139 349 q 156 368 139 363 q 198 388 179 375 q 232 415 217 401 q 260 438 247 428 q 281 447 272 447 q 295 438 293 447 q 299 415 297 429 q 304 384 300 401 q 326 349 308 367 q 336 333 336 339 m 364 82 q 360 74 364 76 q 249 32 303 50 q 153 3 203 17 q 71 -11 104 -11 q 26 2 43 -11 q 8 36 8 15 q 21 72 8 56 q 48 101 33 89 q 74 122 63 114 q 86 132 86 131 q 76 136 86 135 q 40 142 65 138 q 20 151 25 144 q 15 164 15 157 q 22 181 15 174 q 31 192 28 189 q 96 228 58 210 q 170 260 133 246 q 238 282 207 274 q 281 290 268 290 q 306 284 294 290 q 318 263 318 278 q 311 248 318 256 q 294 234 304 240 q 274 224 285 228 q 254 219 263 219 q 241 222 247 219 q 235 232 235 225 q 242 250 235 240 q 244 256 244 253 q 238 258 244 258 q 229 258 235 258 q 217 256 224 257 q 185 245 206 253 q 143 228 164 238 q 106 210 122 218 q 85 199 89 201 q 79 190 79 194 q 88 181 79 183 q 97 180 89 181 q 115 178 106 179 q 134 178 125 178 q 147 178 143 178 q 165 172 163 176 q 168 158 168 168 q 165 144 168 151 q 147 135 163 138 q 91 111 118 128 q 64 67 64 94 q 85 38 64 47 q 126 29 107 29 q 203 40 163 29 q 278 61 243 50 q 357 92 318 75 q 362 88 360 92 q 364 82 364 85 z "},"ë":{"ha":321,"x_min":8,"x_max":364,"o":"m 361 401 q 356 380 361 392 q 342 358 350 368 q 323 340 333 347 q 301 333 313 333 q 276 356 276 333 q 282 377 276 365 q 296 399 288 389 q 315 417 304 410 q 336 424 326 424 q 361 401 361 424 m 232 401 q 226 380 232 392 q 213 358 221 368 q 194 340 204 347 q 172 333 183 333 q 147 356 147 333 q 153 377 147 365 q 167 399 158 389 q 186 417 175 410 q 207 424 197 424 q 232 401 232 424 m 364 82 q 360 74 364 76 q 249 32 303 50 q 153 3 203 17 q 71 -11 104 -11 q 26 2 43 -11 q 8 36 8 15 q 21 72 8 56 q 48 101 33 89 q 74 122 63 114 q 86 132 86 131 q 76 136 86 135 q 40 142 65 138 q 20 151 25 144 q 15 164 15 157 q 22 181 15 174 q 31 192 28 189 q 96 228 58 210 q 170 260 133 246 q 238 282 207 274 q 281 290 268 290 q 306 284 294 290 q 318 263 318 278 q 311 248 318 256 q 294 234 304 240 q 274 224 285 228 q 254 219 263 219 q 241 222 247 219 q 235 232 235 225 q 242 250 235 240 q 244 256 244 253 q 238 258 244 258 q 229 258 235 258 q 217 256 224 257 q 185 245 206 253 q 143 228 164 238 q 106 210 122 218 q 85 199 89 201 q 79 190 79 194 q 88 181 79 183 q 97 180 89 181 q 115 178 106 179 q 134 178 125 178 q 147 178 143 178 q 165 172 163 176 q 168 158 168 168 q 165 144 168 151 q 147 135 163 138 q 91 111 118 128 q 64 67 64 94 q 85 38 64 47 q 126 29 107 29 q 203 40 163 29 q 278 61 243 50 q 357 92 318 75 q 362 88 360 92 q 364 82 364 85 z "},"í":{"ha":339,"x_min":-10,"x_max":390,"o":"m 317 379 q 299 346 317 361 q 258 319 281 331 q 216 302 236 308 q 192 296 196 296 q 181 297 186 296 q 175 301 175 297 q 192 317 175 311 q 231 338 215 324 q 260 365 247 351 q 282 388 272 378 q 300 397 292 397 q 317 379 317 397 m 390 82 q 386 74 390 76 l 324 49 q 288 34 310 43 q 242 17 267 25 q 193 2 217 8 q 151 -4 169 -4 q 123 3 133 -4 q 106 21 113 11 q 98 40 100 31 q 96 56 96 50 q 103 88 96 74 q 114 110 110 103 q 72 85 92 96 q 43 72 51 75 q 22 64 33 68 q -3 54 10 60 q -8 58 -6 54 q -10 64 -10 61 q -7 71 -10 69 q 15 79 4 75 q 33 88 25 83 q 89 118 65 103 q 130 148 117 135 q 147 172 143 161 q 156 190 151 183 q 167 196 160 196 q 184 191 176 196 q 192 175 192 186 q 188 164 192 171 q 178 149 185 160 q 165 126 171 139 q 153 97 158 113 q 149 68 149 82 q 160 42 149 53 q 194 31 171 31 q 228 35 210 31 q 266 47 247 40 q 301 59 285 53 q 325 68 317 65 q 367 85 353 79 q 383 92 375 89 q 388 88 386 92 q 390 82 390 85 z "},"ì":{"ha":339,"x_min":-10,"x_max":390,"o":"m 265 301 q 260 297 265 297 q 249 296 254 296 q 224 302 244 296 q 182 319 204 308 q 142 346 160 331 q 124 379 124 361 q 140 397 124 397 q 158 388 149 397 q 181 365 168 378 q 210 338 193 351 q 249 317 226 324 q 265 301 265 311 m 390 82 q 386 74 390 76 l 324 49 q 288 34 310 43 q 242 17 267 25 q 193 2 217 8 q 151 -4 169 -4 q 123 3 133 -4 q 106 21 113 11 q 98 40 100 31 q 96 56 96 50 q 103 88 96 74 q 114 110 110 103 q 72 85 92 96 q 43 72 51 75 q 22 64 33 68 q -3 54 10 60 q -8 58 -6 54 q -10 64 -10 61 q -7 71 -10 69 q 15 79 4 75 q 33 88 25 83 q 89 118 65 103 q 130 148 117 135 q 147 172 143 161 q 156 190 151 183 q 167 196 160 196 q 184 191 176 196 q 192 175 192 186 q 188 164 192 171 q 178 149 185 160 q 165 126 171 139 q 153 97 158 113 q 149 68 149 82 q 160 42 149 53 q 194 31 171 31 q 228 35 210 31 q 266 47 247 40 q 301 59 285 53 q 325 68 317 65 q 367 85 353 79 q 383 92 375 89 q 388 88 386 92 q 390 82 390 85 z "},"î":{"ha":339,"x_min":-10,"x_max":390,"o":"m 310 276 q 306 269 310 269 q 290 275 300 269 q 268 290 279 281 q 246 313 257 300 q 229 338 235 325 q 201 318 217 326 q 170 303 185 310 q 144 294 156 297 q 129 290 132 290 q 118 291 124 290 q 113 296 113 292 q 129 311 113 306 q 172 331 153 318 q 206 358 190 344 q 233 381 221 371 q 254 390 246 390 q 269 381 267 390 q 272 358 271 372 q 278 327 274 344 q 300 292 282 310 q 310 276 310 282 m 390 82 q 386 74 390 76 l 324 49 q 288 34 310 43 q 242 17 267 25 q 193 2 217 8 q 151 -4 169 -4 q 123 3 133 -4 q 106 21 113 11 q 98 40 100 31 q 96 56 96 50 q 103 88 96 74 q 114 110 110 103 q 72 85 92 96 q 43 72 51 75 q 22 64 33 68 q -3 54 10 60 q -8 58 -6 54 q -10 64 -10 61 q -7 71 -10 69 q 15 79 4 75 q 33 88 25 83 q 89 118 65 103 q 130 148 117 135 q 147 172 143 161 q 156 190 151 183 q 167 196 160 196 q 184 191 176 196 q 192 175 192 186 q 188 164 192 171 q 178 149 185 160 q 165 126 171 139 q 153 97 158 113 q 149 68 149 82 q 160 42 149 53 q 194 31 171 31 q 228 35 210 31 q 266 47 247 40 q 301 59 285 53 q 325 68 317 65 q 367 85 353 79 q 383 92 375 89 q 388 88 386 92 q 390 82 390 85 z "},"ï":{"ha":339,"x_min":-10,"x_max":390,"o":"m 339 356 q 333 334 339 346 q 319 312 328 322 q 301 294 311 301 q 279 288 290 288 q 254 310 254 288 q 260 331 254 319 q 274 353 265 343 q 293 371 282 364 q 314 378 304 378 q 339 356 339 378 m 210 356 q 204 334 210 346 q 190 312 199 322 q 172 294 182 301 q 150 288 161 288 q 125 310 125 288 q 131 331 125 319 q 144 353 136 343 q 164 371 153 364 q 185 378 175 378 q 210 356 210 378 m 390 82 q 386 74 390 76 l 324 49 q 288 34 310 43 q 242 17 267 25 q 193 2 217 8 q 151 -4 169 -4 q 123 3 133 -4 q 106 21 113 11 q 98 40 100 31 q 96 56 96 50 q 103 88 96 74 q 114 110 110 103 q 72 85 92 96 q 43 72 51 75 q 22 64 33 68 q -3 54 10 60 q -8 58 -6 54 q -10 64 -10 61 q -7 71 -10 69 q 15 79 4 75 q 33 88 25 83 q 89 118 65 103 q 130 148 117 135 q 147 172 143 161 q 156 190 151 183 q 167 196 160 196 q 184 191 176 196 q 192 175 192 186 q 188 164 192 171 q 178 149 185 160 q 165 126 171 139 q 153 97 158 113 q 149 68 149 82 q 160 42 149 53 q 194 31 171 31 q 228 35 210 31 q 266 47 247 40 q 301 59 285 53 q 325 68 317 65 q 367 85 353 79 q 383 92 375 89 q 388 88 386 92 q 390 82 390 85 z "},"ñ":{"ha":558,"x_min":-10,"x_max":608,"o":"m 472 326 q 453 292 472 307 q 414 276 433 276 q 390 281 404 276 q 362 291 376 286 q 335 301 347 296 q 315 306 322 306 q 285 292 296 306 q 272 279 275 279 q 267 288 267 279 q 284 324 267 307 q 325 342 301 342 q 345 337 333 342 q 371 326 357 332 q 398 316 385 321 q 422 311 411 311 q 451 324 439 311 q 465 338 463 338 q 472 326 472 338 m 608 82 q 604 74 608 76 l 542 49 q 506 34 528 43 q 460 17 485 25 q 411 2 435 8 q 369 -4 388 -4 q 333 6 343 -4 q 324 32 324 17 q 330 65 324 47 q 344 98 336 82 q 358 126 351 114 q 364 142 364 138 q 361 143 364 143 q 336 132 356 143 q 292 105 317 121 q 238 69 267 89 q 182 34 208 50 q 134 7 156 18 q 103 -4 113 -4 q 88 1 94 -4 q 82 15 82 7 q 92 41 82 26 q 114 70 101 56 q 140 99 126 85 q 160 121 153 113 q 161 125 161 122 q 156 129 161 129 q 141 122 154 129 q 110 106 128 115 q 74 88 93 97 q 42 72 54 78 q 21 64 32 68 q -3 54 10 60 q -8 58 -6 54 q -10 64 -10 61 q -6 72 -10 71 q 15 80 6 76 q 33 88 25 83 q 101 120 69 103 q 157 153 132 138 q 211 188 186 169 q 219 191 214 189 q 231 193 225 193 q 242 178 242 193 q 229 150 242 167 q 201 116 217 133 q 172 83 185 99 q 160 58 160 67 q 171 47 160 47 q 204 63 179 47 q 261 100 229 79 q 325 142 293 121 q 378 174 357 163 q 388 181 381 176 q 404 192 394 186 q 423 201 414 197 q 439 206 432 206 q 447 201 446 206 q 449 193 449 196 q 446 182 449 188 q 440 171 443 176 q 426 151 436 165 q 408 121 417 138 q 391 87 399 104 q 383 56 383 69 q 413 31 383 31 q 447 35 428 31 q 484 47 465 40 q 519 59 503 53 q 543 68 535 65 q 585 85 571 79 q 601 92 593 89 q 606 88 604 92 q 608 82 608 85 z "},"ó":{"ha":365,"x_min":-4,"x_max":415,"o":"m 367 392 q 349 358 367 374 q 308 332 331 343 q 266 315 286 321 q 242 308 246 308 q 231 309 236 308 q 225 314 225 310 q 242 329 225 324 q 281 350 265 336 q 310 377 297 364 q 332 400 322 390 q 350 410 342 410 q 367 392 367 410 m 415 82 q 413 75 415 78 q 408 72 411 74 q 264 33 322 33 q 208 56 228 33 q 127 -6 172 19 q 38 -31 82 -31 q 7 -22 18 -31 q -4 10 -4 -12 q 22 78 -4 38 q 83 156 47 118 q 158 219 119 193 q 221 246 196 246 q 234 241 228 246 q 240 232 240 236 q 236 228 240 229 q 228 228 232 228 q 181 206 211 228 q 122 156 151 185 q 72 94 93 126 q 51 42 51 63 q 82 11 51 11 q 138 28 107 11 q 197 71 169 46 q 188 117 188 89 q 194 156 188 136 q 211 192 200 176 q 238 217 222 207 q 274 226 254 226 q 300 201 300 226 q 281 146 300 179 q 231 78 263 113 q 275 58 246 58 q 315 63 294 58 q 355 72 336 67 q 388 82 374 76 q 408 92 401 88 l 410 92 q 414 88 413 92 q 415 82 415 85 m 275 179 q 250 199 275 199 q 224 178 235 199 q 214 133 214 158 q 215 113 214 122 q 221 93 217 103 q 260 140 244 117 q 275 179 275 164 z "},"ò":{"ha":365,"x_min":-4,"x_max":415,"o":"m 293 318 q 288 313 293 314 q 276 313 282 313 q 252 319 272 313 q 210 336 232 325 q 169 363 188 347 q 151 396 151 378 q 168 414 151 414 q 186 404 176 414 q 208 381 196 394 q 238 354 221 368 q 276 333 254 340 q 293 318 293 328 m 415 82 q 413 75 415 78 q 408 72 411 74 q 264 33 322 33 q 208 56 228 33 q 127 -6 172 19 q 38 -31 82 -31 q 7 -22 18 -31 q -4 10 -4 -12 q 22 78 -4 38 q 83 156 47 118 q 158 219 119 193 q 221 246 196 246 q 234 241 228 246 q 240 232 240 236 q 236 228 240 229 q 228 228 232 228 q 181 206 211 228 q 122 156 151 185 q 72 94 93 126 q 51 42 51 63 q 82 11 51 11 q 138 28 107 11 q 197 71 169 46 q 188 117 188 89 q 194 156 188 136 q 211 192 200 176 q 238 217 222 207 q 274 226 254 226 q 300 201 300 226 q 281 146 300 179 q 231 78 263 113 q 275 58 246 58 q 315 63 294 58 q 355 72 336 67 q 388 82 374 76 q 408 92 401 88 l 410 92 q 414 88 413 92 q 415 82 415 85 m 275 179 q 250 199 275 199 q 224 178 235 199 q 214 133 214 158 q 215 113 214 122 q 221 93 217 103 q 260 140 244 117 q 275 179 275 164 z "},"ô":{"ha":365,"x_min":-4,"x_max":415,"o":"m 371 300 q 367 293 371 293 q 351 299 361 293 q 329 314 340 304 q 307 336 318 324 q 290 361 296 349 q 262 342 278 350 q 231 327 246 333 q 205 317 217 321 q 190 314 193 314 q 179 315 185 314 q 174 319 174 315 q 190 335 174 329 q 233 355 214 342 q 267 381 251 368 q 294 404 282 394 q 315 414 307 414 q 330 405 328 414 q 333 382 332 396 q 339 351 335 368 q 361 315 343 333 q 371 300 371 306 m 415 82 q 413 75 415 78 q 408 72 411 74 q 264 33 322 33 q 208 56 228 33 q 127 -6 172 19 q 38 -31 82 -31 q 7 -22 18 -31 q -4 10 -4 -12 q 22 78 -4 38 q 83 156 47 118 q 158 219 119 193 q 221 246 196 246 q 234 241 228 246 q 240 232 240 236 q 236 228 240 229 q 228 228 232 228 q 181 206 211 228 q 122 156 151 185 q 72 94 93 126 q 51 42 51 63 q 82 11 51 11 q 138 28 107 11 q 197 71 169 46 q 188 117 188 89 q 194 156 188 136 q 211 192 200 176 q 238 217 222 207 q 274 226 254 226 q 300 201 300 226 q 281 146 300 179 q 231 78 263 113 q 275 58 246 58 q 315 63 294 58 q 355 72 336 67 q 388 82 374 76 q 408 92 401 88 l 410 92 q 414 88 413 92 q 415 82 415 85 m 275 179 q 250 199 275 199 q 224 178 235 199 q 214 133 214 158 q 215 113 214 122 q 221 93 217 103 q 260 140 244 117 q 275 179 275 164 z "},"ö":{"ha":365,"x_min":-4,"x_max":415,"o":"m 388 371 q 382 349 388 361 q 368 327 376 338 q 349 310 360 317 q 328 303 339 303 q 303 325 303 303 q 308 347 303 335 q 322 369 314 358 q 342 386 331 379 q 363 393 353 393 q 388 371 388 393 m 258 371 q 253 349 258 361 q 239 327 247 338 q 220 310 231 317 q 199 303 210 303 q 174 325 174 303 q 179 347 174 335 q 193 369 185 358 q 213 386 201 379 q 233 393 224 393 q 258 371 258 393 m 415 82 q 413 75 415 78 q 408 72 411 74 q 264 33 322 33 q 208 56 228 33 q 127 -6 172 19 q 38 -31 82 -31 q 7 -22 18 -31 q -4 10 -4 -12 q 22 78 -4 38 q 83 156 47 118 q 158 219 119 193 q 221 246 196 246 q 234 241 228 246 q 240 232 240 236 q 236 228 240 229 q 228 228 232 228 q 181 206 211 228 q 122 156 151 185 q 72 94 93 126 q 51 42 51 63 q 82 11 51 11 q 138 28 107 11 q 197 71 169 46 q 188 117 188 89 q 194 156 188 136 q 211 192 200 176 q 238 217 222 207 q 274 226 254 226 q 300 201 300 226 q 281 146 300 179 q 231 78 263 113 q 275 58 246 58 q 315 63 294 58 q 355 72 336 67 q 388 82 374 76 q 408 92 401 88 l 410 92 q 414 88 413 92 q 415 82 415 85 m 275 179 q 250 199 275 199 q 224 178 235 199 q 214 133 214 158 q 215 113 214 122 q 221 93 217 103 q 260 140 244 117 q 275 179 275 164 z "},"õ":{"ha":365,"x_min":-4,"x_max":415,"o":"m 393 358 q 374 324 393 339 q 335 308 354 308 q 311 313 325 308 q 283 323 297 318 q 256 333 268 328 q 236 338 243 338 q 206 324 217 338 q 193 311 196 311 q 188 319 188 311 q 205 356 188 339 q 246 374 222 374 q 266 369 254 374 q 292 358 278 364 q 319 348 306 353 q 343 343 332 343 q 372 356 360 343 q 386 369 383 369 q 393 358 393 369 m 415 82 q 413 75 415 78 q 408 72 411 74 q 264 33 322 33 q 208 56 228 33 q 127 -6 172 19 q 38 -31 82 -31 q 7 -22 18 -31 q -4 10 -4 -12 q 22 78 -4 38 q 83 156 47 118 q 158 219 119 193 q 221 246 196 246 q 234 241 228 246 q 240 232 240 236 q 236 228 240 229 q 228 228 232 228 q 181 206 211 228 q 122 156 151 185 q 72 94 93 126 q 51 42 51 63 q 82 11 51 11 q 138 28 107 11 q 197 71 169 46 q 188 117 188 89 q 194 156 188 136 q 211 192 200 176 q 238 217 222 207 q 274 226 254 226 q 300 201 300 226 q 281 146 300 179 q 231 78 263 113 q 275 58 246 58 q 315 63 294 58 q 355 72 336 67 q 388 82 374 76 q 408 92 401 88 l 410 92 q 414 88 413 92 q 415 82 415 85 m 275 179 q 250 199 275 199 q 224 178 235 199 q 214 133 214 158 q 215 113 214 122 q 221 93 217 103 q 260 140 244 117 q 275 179 275 164 z "},"ú":{"ha":501,"x_min":18,"x_max":553,"o":"m 393 379 q 375 346 393 361 q 335 319 357 331 q 292 302 313 308 q 268 296 272 296 q 257 297 263 296 q 251 301 251 297 q 268 317 251 311 q 308 338 292 324 q 336 365 324 351 q 358 388 349 378 q 376 397 368 397 q 393 379 393 397 m 553 82 q 549 74 553 76 l 486 49 q 451 34 472 43 q 404 17 429 25 q 356 2 379 8 q 314 -4 332 -4 q 285 3 296 -4 q 269 21 275 11 q 260 40 263 31 q 258 56 258 50 q 267 94 258 76 q 279 114 276 111 q 276 115 281 115 q 238 88 264 106 q 181 51 213 69 q 116 19 149 33 q 56 6 83 6 q 29 19 40 6 q 18 49 18 33 q 31 86 18 65 q 60 126 43 107 q 94 163 78 146 q 119 185 111 179 q 121 186 119 186 l 126 186 q 138 182 133 186 q 139 178 139 181 q 129 162 139 172 q 108 138 119 151 q 86 110 96 125 q 76 78 76 94 q 85 53 76 64 q 104 43 93 43 q 168 65 131 43 q 242 114 206 86 q 328 185 283 146 q 344 181 338 185 q 350 167 350 178 q 346 156 350 163 q 331 126 342 150 q 321 79 321 103 q 322 67 321 75 q 326 51 322 60 q 336 37 329 43 q 357 31 343 31 q 391 35 372 31 q 428 47 410 40 q 463 59 447 53 q 488 68 479 65 q 529 85 515 79 q 546 92 538 89 q 551 88 549 92 q 553 82 553 85 z "},"ù":{"ha":501,"x_min":18,"x_max":553,"o":"m 321 314 q 315 309 321 310 q 304 308 310 308 q 280 315 300 308 q 238 332 260 321 q 197 358 215 343 q 179 392 179 374 q 196 410 179 410 q 214 400 204 410 q 236 377 224 390 q 265 350 249 364 q 304 329 282 336 q 321 314 321 324 m 553 82 q 549 74 553 76 l 486 49 q 451 34 472 43 q 404 17 429 25 q 356 2 379 8 q 314 -4 332 -4 q 285 3 296 -4 q 269 21 275 11 q 260 40 263 31 q 258 56 258 50 q 267 94 258 76 q 279 114 276 111 q 276 115 281 115 q 238 88 264 106 q 181 51 213 69 q 116 19 149 33 q 56 6 83 6 q 29 19 40 6 q 18 49 18 33 q 31 86 18 65 q 60 126 43 107 q 94 163 78 146 q 119 185 111 179 q 121 186 119 186 l 126 186 q 138 182 133 186 q 139 178 139 181 q 129 162 139 172 q 108 138 119 151 q 86 110 96 125 q 76 78 76 94 q 85 53 76 64 q 104 43 93 43 q 168 65 131 43 q 242 114 206 86 q 328 185 283 146 q 344 181 338 185 q 350 167 350 178 q 346 156 350 163 q 331 126 342 150 q 321 79 321 103 q 322 67 321 75 q 326 51 322 60 q 336 37 329 43 q 357 31 343 31 q 391 35 372 31 q 428 47 410 40 q 463 59 447 53 q 488 68 479 65 q 529 85 515 79 q 546 92 538 89 q 551 88 549 92 q 553 82 553 85 z "},"û":{"ha":501,"x_min":18,"x_max":553,"o":"m 390 285 q 386 278 390 278 q 370 283 381 278 q 349 299 360 289 q 326 321 338 308 q 310 346 315 333 q 281 326 297 335 q 251 312 265 318 q 224 302 236 306 q 210 299 213 299 q 199 299 204 299 q 193 304 193 300 q 210 319 193 314 q 252 340 233 326 q 286 366 271 353 q 314 389 301 379 q 335 399 326 399 q 349 390 347 399 q 353 367 351 381 q 358 335 354 353 q 381 300 363 318 q 390 285 390 290 m 553 82 q 549 74 553 76 l 486 49 q 451 34 472 43 q 404 17 429 25 q 356 2 379 8 q 314 -4 332 -4 q 285 3 296 -4 q 269 21 275 11 q 260 40 263 31 q 258 56 258 50 q 267 94 258 76 q 279 114 276 111 q 276 115 281 115 q 238 88 264 106 q 181 51 213 69 q 116 19 149 33 q 56 6 83 6 q 29 19 40 6 q 18 49 18 33 q 31 86 18 65 q 60 126 43 107 q 94 163 78 146 q 119 185 111 179 q 121 186 119 186 l 126 186 q 138 182 133 186 q 139 178 139 181 q 129 162 139 172 q 108 138 119 151 q 86 110 96 125 q 76 78 76 94 q 85 53 76 64 q 104 43 93 43 q 168 65 131 43 q 242 114 206 86 q 328 185 283 146 q 344 181 338 185 q 350 167 350 178 q 346 156 350 163 q 331 126 342 150 q 321 79 321 103 q 322 67 321 75 q 326 51 322 60 q 336 37 329 43 q 357 31 343 31 q 391 35 372 31 q 428 47 410 40 q 463 59 447 53 q 488 68 479 65 q 529 85 515 79 q 546 92 538 89 q 551 88 549 92 q 553 82 553 85 z "},"ü":{"ha":501,"x_min":18,"x_max":553,"o":"m 421 356 q 415 334 421 346 q 401 312 410 322 q 383 294 393 301 q 361 288 372 288 q 336 310 336 288 q 342 331 336 319 q 356 353 347 343 q 375 371 364 364 q 396 378 386 378 q 421 356 421 378 m 292 356 q 286 334 292 346 q 272 312 281 322 q 253 294 264 301 q 232 288 243 288 q 207 310 207 288 q 213 331 207 319 q 226 353 218 343 q 246 371 235 364 q 267 378 257 378 q 292 356 292 378 m 553 82 q 549 74 553 76 l 486 49 q 451 34 472 43 q 404 17 429 25 q 356 2 379 8 q 314 -4 332 -4 q 285 3 296 -4 q 269 21 275 11 q 260 40 263 31 q 258 56 258 50 q 267 94 258 76 q 279 114 276 111 q 276 115 281 115 q 238 88 264 106 q 181 51 213 69 q 116 19 149 33 q 56 6 83 6 q 29 19 40 6 q 18 49 18 33 q 31 86 18 65 q 60 126 43 107 q 94 163 78 146 q 119 185 111 179 q 121 186 119 186 l 126 186 q 138 182 133 186 q 139 178 139 181 q 129 162 139 172 q 108 138 119 151 q 86 110 96 125 q 76 78 76 94 q 85 53 76 64 q 104 43 93 43 q 168 65 131 43 q 242 114 206 86 q 328 185 283 146 q 344 181 338 185 q 350 167 350 178 q 346 156 350 163 q 331 126 342 150 q 321 79 321 103 q 322 67 321 75 q 326 51 322 60 q 336 37 329 43 q 357 31 343 31 q 391 35 372 31 q 428 47 410 40 q 463 59 447 53 q 488 68 479 65 q 529 85 515 79 q 546 92 538 89 q 551 88 549 92 q 553 82 553 85 z "},"†":{"ha":732,"x_min":203,"x_max":643,"o":"m 643 383 q 635 361 643 365 q 578 367 608 364 q 519 372 551 369 q 450 375 486 374 l 239 -203 q 232 -216 236 -210 q 218 -225 228 -222 q 203 -206 203 -225 l 401 376 l 375 376 q 282 372 325 376 q 214 358 239 368 q 206 378 206 364 q 226 397 206 389 q 276 408 246 404 q 344 415 307 413 q 415 418 381 418 l 475 593 q 482 606 476 600 q 513 617 493 617 q 531 601 531 617 q 525 582 531 596 l 465 419 l 472 419 q 563 417 521 419 q 632 410 604 414 q 640 401 638 408 q 643 383 643 393 z "},"°":{"ha":400,"x_min":264,"x_max":458,"o":"m 458 674 q 446 618 458 644 q 414 571 433 592 q 371 538 394 550 q 324 525 347 525 q 280 542 296 525 q 264 588 264 560 q 273 636 264 610 q 299 685 282 663 q 342 724 317 708 q 401 740 368 740 q 444 721 429 740 q 458 674 458 701 m 428 657 q 419 688 429 675 q 386 701 410 701 q 349 692 365 701 q 320 669 332 683 q 301 639 308 656 q 294 608 294 622 q 303 576 293 588 q 333 565 314 565 q 397 591 367 565 q 428 657 426 617 z "},"¢":{"ha":569,"x_min":218,"x_max":663,"o":"m 663 582 q 656 568 663 576 q 632 540 647 558 q 599 501 619 525 q 547 440 579 476 q 556 417 556 432 q 545 389 556 403 q 522 364 535 375 q 489 339 507 350 q 483 338 488 339 q 465 335 475 335 q 458 344 458 335 q 467 360 458 351 q 495 385 478 367 q 513 417 513 403 q 496 426 513 426 q 446 413 475 426 q 390 377 417 399 q 344 329 363 356 q 325 278 325 303 q 349 224 325 244 q 417 204 374 204 q 493 215 453 204 q 567 236 533 225 q 644 267 606 250 q 649 263 647 267 q 651 257 651 260 q 647 249 651 251 q 536 207 590 225 q 441 178 490 192 q 358 164 392 164 q 331 168 346 164 q 286 108 307 136 q 247 53 265 79 q 239 43 243 47 q 229 39 235 39 q 218 58 218 39 q 261 120 239 90 q 306 181 283 150 q 278 244 278 204 q 302 316 278 281 q 363 381 326 351 q 440 429 399 410 q 517 450 482 449 q 546 486 533 471 q 569 516 558 501 q 594 547 581 531 q 626 583 607 563 q 638 592 633 590 q 646 593 642 593 q 656 591 650 593 q 663 582 663 589 z "},"£":{"ha":1079,"x_min":-79,"x_max":1379,"o":"m 1379 906 q 1352 827 1379 871 q 1278 738 1325 783 q 1168 650 1231 693 q 1035 573 1106 607 q 888 518 964 539 q 739 497 813 497 q 611 518 660 497 q 560 453 585 486 q 510 388 535 419 l 511 388 q 601 385 560 388 q 671 378 643 382 q 679 369 676 376 q 682 351 682 361 q 674 329 682 333 q 613 335 644 332 q 550 340 585 338 q 476 343 515 342 q 455 314 465 328 q 433 286 444 300 l 467 286 q 557 283 515 286 q 626 276 599 281 q 635 267 632 275 q 638 250 638 260 q 629 228 638 232 q 557 235 594 231 q 484 240 525 238 q 400 243 443 242 q 322 142 360 190 q 247 53 285 94 q 452 74 336 67 q 718 82 568 82 q 840 78 781 82 q 949 72 900 75 q 1033 65 999 68 q 1078 61 1067 61 q 1111 50 1111 61 q 1100 28 1111 38 q 1074 14 1089 19 q 1042 6 1058 8 q 1015 3 1026 3 q 986 8 1011 4 q 924 15 961 11 q 840 24 886 19 q 748 33 793 29 q 662 38 703 36 q 593 40 621 40 q 381 35 474 40 q 218 22 289 29 q 102 -78 157 -40 q -4 -117 47 -117 q -59 -106 -39 -117 q -79 -79 -79 -96 q -63 -49 -79 -65 q -12 -15 -47 -32 q 80 19 24 3 q 217 49 136 35 q 294 138 254 89 q 374 243 333 186 l 369 243 q 276 239 319 243 q 208 225 233 235 q 200 244 200 231 q 219 263 200 256 q 269 274 239 269 q 335 281 299 279 q 406 285 371 283 q 427 315 417 300 q 449 344 438 329 l 414 344 q 321 340 364 344 q 253 326 278 336 q 244 346 244 332 q 268 366 244 358 q 327 378 292 374 q 403 385 363 383 q 479 388 444 388 q 533 459 506 424 q 588 531 560 494 q 540 581 554 551 q 525 647 525 611 q 544 737 525 690 q 596 823 564 783 q 667 891 628 863 q 747 928 707 919 q 757 918 757 928 q 746 907 757 911 q 677 872 708 896 q 623 816 646 847 q 588 749 600 785 q 575 679 575 713 q 586 622 575 649 q 621 575 597 594 q 758 731 688 657 q 906 862 829 806 q 1067 951 983 918 q 1240 985 1150 985 q 1347 963 1315 985 q 1379 906 1379 942 m 1318 865 q 1283 922 1318 900 q 1169 943 1249 943 q 1035 913 1103 943 q 903 830 968 882 q 772 708 838 778 q 644 560 707 638 q 760 536 688 536 q 894 552 826 536 q 1024 595 963 568 q 1140 656 1086 622 q 1233 727 1193 690 q 1295 800 1272 764 q 1318 865 1318 836 m 186 18 q 25 -16 74 3 q -24 -50 -24 -35 q 25 -67 -24 -67 q 104 -44 64 -67 q 186 18 144 -22 z "},"§":{"ha":751,"x_min":61,"x_max":735,"o":"m 735 601 q 727 571 735 588 q 708 540 719 554 q 682 515 696 525 q 654 501 668 504 l 651 501 q 649 501 650 501 q 644 500 647 500 q 635 507 635 500 q 656 523 642 518 q 679 540 671 528 q 693 571 690 557 q 696 596 696 585 q 689 615 696 607 q 672 629 682 624 q 650 638 661 635 q 629 640 639 640 q 580 633 608 640 q 526 610 551 625 q 483 576 501 596 q 465 529 465 556 q 471 501 465 519 q 496 456 476 483 q 514 428 503 446 q 528 406 525 411 q 573 333 554 365 q 592 263 592 300 q 583 217 592 243 q 546 160 574 190 q 514 131 531 143 q 479 111 497 119 l 479 104 q 470 58 479 85 q 433 1 461 32 q 370 -45 406 -29 q 303 -69 335 -61 q 251 -78 272 -76 q 228 -79 229 -79 q 144 -64 181 -78 q 87 -28 113 -53 q 61 43 61 -4 q 81 65 65 65 q 97 56 89 65 q 104 32 104 47 q 142 -33 104 -6 q 233 -62 179 -60 q 296 -53 265 -60 q 351 -33 322 -46 q 400 4 379 -19 q 431 53 424 29 q 439 96 439 76 q 424 153 439 121 q 390 214 410 185 q 375 236 383 225 q 360 258 367 247 q 344 282 351 271 q 321 328 325 310 q 317 360 317 347 q 347 426 317 390 q 433 485 378 463 q 430 503 431 496 q 429 518 429 511 q 444 564 429 539 q 488 611 460 589 q 557 648 517 633 q 647 663 597 663 q 668 660 654 663 q 697 651 682 657 q 724 633 713 644 q 735 601 735 621 m 551 254 q 537 311 551 279 q 503 372 522 343 q 488 394 496 383 q 472 417 479 406 q 457 440 464 429 q 442 464 446 454 q 380 426 407 450 q 353 371 353 403 q 358 343 353 361 q 383 297 364 325 q 401 270 390 288 q 415 247 413 253 q 453 188 436 215 q 476 131 469 160 q 513 163 496 143 q 544 211 536 188 q 551 254 551 235 z "},"•":{"ha":400,"x_min":168,"x_max":293,"o":"m 293 150 q 285 115 293 132 q 264 84 276 97 q 236 63 251 71 q 206 56 221 56 q 178 67 189 56 q 168 96 168 78 q 174 127 168 110 q 190 159 179 144 q 218 184 201 174 q 256 194 235 194 q 284 182 275 194 q 293 150 293 169 z "},"¶":{"ha":369,"x_min":-276,"x_max":486,"o":"m 444 747 q 431 732 443 746 q 399 697 418 718 q 357 649 381 675 q 310 594 333 622 q 185 449 254 529 l 19 258 q -31 197 -6 229 q -79 136 -53 169 q -129 69 -106 103 q -198 -32 -174 7 q -222 -100 -222 -71 q -232 -139 -222 -128 q -253 -150 -242 -150 q -269 -144 -262 -150 q -276 -129 -276 -139 q -251 -59 -276 -100 q -172 56 -226 -18 q -97 152 -139 100 q -11 258 -54 204 q 78 369 35 315 q 158 465 122 424 q 215 532 193 507 q 238 558 236 557 q 242 565 242 565 q 240 567 242 567 q 214 554 229 560 q 184 545 201 549 q 144 542 167 542 q 106 554 119 542 q 93 586 93 567 q 132 667 93 631 q 224 730 171 703 q 329 772 276 757 q 411 786 382 786 q 433 773 422 786 q 444 747 444 760 m 486 693 q 475 671 486 683 q 235 396 354 540 q 128 265 183 335 q 16 119 72 194 q -94 -35 -40 43 q -196 -192 -149 -114 q -206 -204 -200 -199 q -218 -210 -211 -210 q -230 -203 -228 -210 q -232 -185 -232 -196 q 92 265 -71 46 q 446 694 256 483 q 463 707 457 704 q 475 710 469 710 q 486 693 486 710 z "},"ß":{"ha":532,"x_min":-465,"x_max":999,"o":"m 999 921 q 976 848 999 892 q 915 753 954 804 q 822 644 876 701 q 701 531 767 588 q 560 422 635 475 q 407 326 486 369 q 455 324 422 326 q 521 315 488 322 q 580 293 554 308 q 606 251 606 278 q 579 194 606 228 q 488 113 553 160 q 313 3 422 65 q 38 -139 204 -60 q 31 -140 35 -140 q 19 -135 24 -140 q 14 -122 14 -129 q 21 -108 14 -112 q 46 -96 32 -103 q 138 -52 85 -78 q 247 3 190 -26 q 360 64 304 32 q 460 126 415 96 q 531 185 504 157 q 558 235 558 213 q 517 274 558 260 q 376 289 476 289 q 351 288 364 289 q 322 288 338 288 q 292 297 292 286 q 304 313 292 306 q 317 321 310 317 q 566 454 453 375 q 760 617 679 533 q 888 778 842 700 q 933 911 933 857 q 922 940 933 931 q 892 949 910 949 q 808 907 863 949 q 681 793 753 865 q 523 624 608 721 q 347 419 438 528 q 164 194 256 310 q -12 -33 72 78 q -171 -244 -97 -144 q -299 -423 -244 -344 q -384 -551 -353 -501 q -415 -611 -415 -601 q -415 -622 -415 -615 q -414 -636 -414 -629 q -417 -654 -414 -646 q -426 -665 -419 -662 q -437 -667 -431 -667 q -459 -658 -453 -667 q -465 -637 -465 -649 q -435 -579 -465 -629 q -350 -449 -404 -529 q -222 -265 -296 -369 q -62 -45 -147 -161 q 118 192 24 71 q 308 428 213 314 q 495 643 403 542 q 669 820 588 744 q 819 940 751 896 q 933 983 888 983 q 980 966 961 983 q 999 921 999 949 z "},"®":{"ha":908,"x_min":79,"x_max":811,"o":"m 811 329 q 779 192 811 263 q 688 65 747 122 q 544 -30 629 7 q 356 -67 460 -67 q 231 -49 283 -67 q 145 1 179 -31 q 95 73 111 32 q 79 160 79 114 q 111 297 79 226 q 202 424 143 367 q 346 519 261 482 q 535 556 431 556 q 659 538 607 556 q 745 488 711 519 q 795 416 779 457 q 811 329 811 375 m 765 311 q 751 391 765 353 q 706 458 736 429 q 631 504 676 488 q 521 521 585 521 q 404 506 458 521 q 306 463 350 490 q 342 465 324 464 q 378 465 360 465 q 625 434 540 465 q 710 365 710 403 q 635 299 710 329 q 403 260 560 268 q 377 228 390 244 q 350 194 364 211 q 421 174 382 185 q 502 151 460 164 q 586 121 544 138 q 665 82 628 104 q 740 192 714 132 q 765 311 765 253 m 665 356 q 590 413 665 388 q 368 438 515 438 q 314 435 340 438 q 263 431 288 433 q 161 307 196 378 q 126 168 126 236 q 141 87 126 125 q 186 19 156 49 q 238 83 201 39 q 315 181 274 128 q 265 206 283 193 q 246 236 246 219 q 275 265 246 260 q 338 271 304 271 l 386 271 q 438 337 418 311 q 460 365 458 363 q 467 372 463 369 q 481 378 475 378 q 486 376 483 378 q 489 371 489 374 q 482 357 489 361 q 460 331 479 354 q 413 272 442 308 q 603 303 540 279 q 665 356 665 328 m 311 258 q 287 257 301 258 q 272 246 272 256 q 288 222 272 232 q 331 201 303 213 q 353 231 342 217 q 376 258 365 244 l 311 258 m 644 60 q 566 97 607 81 q 483 127 525 114 q 403 152 442 140 q 333 175 365 164 q 251 76 289 122 q 197 10 213 29 q 270 -28 228 -14 q 371 -42 313 -42 q 524 -13 456 -42 q 644 60 593 15 z "},"©":{"ha":908,"x_min":79,"x_max":811,"o":"m 811 329 q 779 192 811 263 q 688 65 747 122 q 544 -30 629 7 q 356 -67 460 -67 q 231 -49 283 -67 q 145 1 179 -31 q 95 73 111 32 q 79 160 79 114 q 111 297 79 226 q 202 424 143 367 q 346 519 261 482 q 535 556 431 556 q 659 538 607 556 q 745 488 711 519 q 795 416 779 457 q 811 329 811 375 m 765 311 q 751 391 765 353 q 706 458 736 429 q 631 504 676 488 q 521 521 585 521 q 356 488 429 521 q 232 404 283 456 q 153 290 181 353 q 126 168 126 228 q 141 88 126 126 q 185 21 156 50 q 261 -25 215 -8 q 371 -42 307 -42 q 535 -9 463 -42 q 660 75 608 24 q 738 189 711 126 q 765 311 765 251 m 643 178 q 639 169 643 172 q 528 128 582 146 q 433 99 482 113 q 350 85 383 85 q 292 106 318 85 q 265 165 265 126 q 292 238 265 201 q 356 304 318 275 q 438 352 394 333 q 515 371 481 371 q 532 367 525 371 q 547 336 547 360 q 537 308 547 322 q 514 283 526 294 q 481 260 499 271 q 475 258 479 260 q 457 256 467 256 q 450 265 450 256 q 458 281 450 272 q 487 306 469 288 q 504 338 504 324 q 488 347 504 347 q 438 333 467 347 q 381 297 408 318 q 335 248 354 275 q 317 196 317 221 q 340 144 317 163 q 406 125 363 125 q 482 135 442 125 q 557 157 522 146 q 636 188 597 171 q 641 184 639 188 q 643 178 643 181 z "},"´":{"ha":400,"x_min":313,"x_max":454,"o":"m 454 392 q 436 358 454 374 q 396 332 418 343 q 353 315 374 321 q 329 308 333 308 q 318 309 324 308 q 313 314 313 310 q 329 329 313 324 q 369 350 353 336 q 397 377 385 364 q 419 400 410 390 q 438 410 429 410 q 454 392 454 410 z "},"¨":{"ha":339,"x_min":136,"x_max":350,"o":"m 350 356 q 344 334 350 346 q 331 312 339 322 q 312 294 322 301 q 290 288 301 288 q 265 310 265 288 q 271 331 265 319 q 285 353 276 343 q 304 371 293 364 q 325 378 315 378 q 350 356 350 378 m 221 356 q 215 334 221 346 q 201 312 210 322 q 183 294 193 301 q 161 288 172 288 q 136 310 136 288 q 142 331 136 319 q 156 353 147 343 q 175 371 164 364 q 196 378 186 378 q 221 356 221 378 z "},"Æ":{"ha":2451,"x_min":74,"x_max":2461,"o":"m 2461 1 q 2449 -21 2458 -15 q 2422 -26 2439 -26 q 2343 -26 2399 -26 q 2224 -25 2288 -25 q 2077 -26 2161 -25 q 1897 -30 1993 -28 q 1695 -34 1800 -32 q 1485 -38 1590 -36 q 1281 -42 1381 -40 q 1094 -43 1182 -43 q 993 -9 1033 -43 q 953 78 953 25 q 963 138 953 110 q 975 176 972 167 q 976 181 976 178 q 975 182 976 181 l 974 182 q 775 56 878 111 q 683 9 732 32 q 581 -32 633 -14 q 476 -60 529 -50 q 371 -71 422 -71 q 238 -52 294 -71 q 146 0 182 -33 q 92 79 110 33 q 74 179 74 125 q 108 344 74 256 q 206 521 142 433 q 363 690 269 608 q 572 833 456 771 q 829 933 689 896 q 1128 969 969 969 q 1231 958 1179 969 q 1328 924 1282 946 q 1410 869 1374 901 q 1468 797 1446 838 q 1664 868 1554 838 q 1885 919 1774 899 q 2099 951 1997 940 q 2271 961 2200 961 q 2399 955 2350 961 q 2449 928 2449 949 q 2437 909 2449 918 q 2408 892 2425 900 q 2374 881 2392 885 q 2343 876 2356 876 q 2338 879 2338 876 q 2339 884 2338 881 q 2340 890 2340 888 q 2336 898 2340 894 q 2319 901 2332 901 q 2068 893 2190 901 q 1836 868 1946 885 q 1635 828 1726 851 q 1478 776 1544 806 q 1496 693 1496 733 q 1491 636 1496 664 q 1478 582 1486 608 l 1503 582 q 1607 585 1553 582 q 1714 592 1661 589 q 1816 599 1767 596 q 1907 603 1865 603 q 2005 592 1968 603 q 2042 553 2042 582 q 2014 510 2042 529 q 1951 481 1986 490 q 1783 433 1871 458 q 1610 380 1694 408 q 1451 319 1526 351 q 1317 252 1375 288 q 1226 178 1260 217 q 1192 97 1192 139 q 1207 61 1193 76 q 1242 35 1218 47 q 1310 24 1265 24 q 1551 26 1436 24 q 1773 32 1665 29 q 1985 38 1881 35 q 2193 40 2089 40 q 2327 40 2267 40 q 2407 38 2388 40 q 2451 24 2440 35 q 2461 1 2461 14 m 1431 713 q 1426 750 1431 732 q 1362 698 1385 725 q 1339 642 1339 671 q 1358 607 1339 618 q 1406 589 1378 596 q 1424 649 1417 618 q 1431 713 1431 681 m 1993 529 q 1976 540 1993 538 q 1947 542 1958 542 q 1838 538 1882 542 q 1745 531 1794 535 q 1629 522 1696 526 q 1451 518 1563 518 q 1379 410 1421 457 q 1299 329 1338 363 q 1207 261 1253 290 l 1204 261 q 1201 260 1203 261 q 1197 260 1200 260 q 1186 261 1194 260 q 1169 265 1178 263 q 1155 272 1161 267 q 1149 282 1149 276 q 1163 299 1149 289 q 1239 361 1201 325 q 1308 433 1271 392 q 1374 524 1344 474 q 1313 555 1338 533 q 1289 610 1289 576 q 1324 697 1289 657 q 1421 772 1360 738 q 1316 894 1397 843 q 1097 944 1235 944 q 836 910 960 944 q 607 819 713 876 q 417 685 501 761 q 274 528 333 610 q 183 365 215 447 q 151 210 151 282 q 169 115 151 158 q 222 39 186 71 q 315 -11 258 7 q 447 -29 371 -29 q 564 -12 503 -29 q 685 31 625 4 q 803 93 746 58 q 911 163 861 128 q 1002 233 961 199 q 1068 292 1043 267 q 1077 301 1074 296 q 1088 307 1081 307 q 1096 304 1090 307 q 1106 292 1106 299 q 1094 272 1106 283 q 1064 233 1078 251 q 1040 197 1050 215 q 1025 156 1031 178 q 1019 106 1019 135 q 1031 58 1019 75 q 1058 33 1042 42 q 1096 24 1075 25 q 1136 22 1117 22 q 1188 167 1136 103 q 1321 282 1240 232 q 1498 368 1401 332 q 1683 430 1594 404 q 1840 472 1771 456 q 1932 497 1908 489 q 1993 529 1993 519 z "},"Ø":{"ha":1188,"x_min":101,"x_max":1399,"o":"m 1399 697 q 1363 504 1399 601 q 1263 317 1326 407 q 1115 150 1200 228 q 930 15 1029 72 q 722 -76 831 -43 q 506 -110 614 -110 q 406 -102 451 -110 q 325 -81 361 -94 q 279 -141 300 -112 q 243 -193 258 -169 q 233 -206 239 -200 q 221 -211 228 -211 q 209 -204 211 -211 q 207 -186 207 -197 q 247 -130 225 -160 q 293 -67 268 -100 q 182 17 221 -33 q 125 117 143 68 q 101 232 104 172 q 132 390 101 321 q 209 511 163 458 q 311 602 256 564 q 417 668 367 640 q 536 802 468 739 q 685 913 604 865 q 856 987 765 960 q 1043 1014 947 1014 q 1168 994 1107 1014 q 1228 1062 1200 1031 q 1279 1119 1256 1093 q 1297 1132 1290 1129 q 1308 1135 1303 1135 q 1325 1131 1315 1135 q 1335 1118 1335 1128 q 1324 1096 1335 1108 q 1294 1064 1310 1082 q 1261 1026 1281 1049 q 1217 975 1242 1003 q 1348 863 1297 935 q 1399 697 1399 792 m 1338 629 q 1291 806 1338 732 q 1169 921 1244 881 q 1052 786 1117 861 q 916 628 988 711 q 769 458 844 546 q 622 285 694 371 q 484 118 550 199 q 363 -32 418 38 q 544 -65 440 -65 q 727 -38 633 -65 q 909 37 821 -11 q 1075 150 997 85 q 1211 292 1153 215 q 1303 456 1269 369 q 1338 629 1338 542 m 1124 943 q 986 967 1057 967 q 828 946 903 967 q 692 889 754 925 q 577 803 629 853 q 485 697 525 754 q 542 715 518 710 q 574 721 567 721 q 586 713 586 721 q 571 701 586 701 q 531 694 560 701 q 465 669 503 686 q 385 498 413 586 q 358 329 358 410 q 359 303 358 313 q 360 286 360 293 q 362 273 361 279 q 363 258 363 267 q 350 241 363 246 q 326 236 338 236 q 310 245 315 236 q 301 269 304 254 q 298 301 299 283 q 297 338 297 319 q 322 484 297 410 q 390 629 346 558 q 313 570 351 604 q 244 490 275 536 q 195 388 214 444 q 176 261 176 331 q 217 92 176 163 q 332 -17 257 22 q 513 212 413 88 q 719 465 613 336 q 930 717 825 593 q 1124 943 1035 840 z "},"¥":{"ha":1157,"x_min":72,"x_max":1283,"o":"m 1283 760 q 1274 739 1283 753 q 1201 653 1242 704 q 1112 540 1160 601 q 1010 407 1064 478 q 897 263 956 336 q 972 258 938 261 q 1032 253 1007 256 q 1040 244 1038 251 q 1043 226 1043 236 q 1035 204 1043 208 q 983 208 1011 206 q 928 213 960 211 q 861 217 897 215 q 838 189 849 203 q 817 161 828 175 l 828 161 q 918 158 876 161 q 988 151 960 156 q 996 142 993 150 q 999 125 999 135 q 990 103 999 107 q 925 108 960 106 q 858 113 896 111 q 781 117 821 115 q 728 53 754 85 q 676 -7 703 22 q 884 17 772 8 q 1128 25 996 25 q 1168 24 1149 25 q 1207 19 1188 22 q 1226 -10 1226 17 q 1221 -30 1226 -21 q 1203 -39 1215 -39 q 1142 -35 1181 -36 q 1049 -33 1103 -33 q 821 -40 924 -33 q 631 -60 718 -47 q 501 -197 565 -133 q 378 -308 438 -261 q 267 -383 319 -356 q 169 -410 214 -410 q 97 -390 122 -410 q 72 -336 72 -369 q 103 -257 72 -301 q 200 -168 133 -212 q 372 -83 267 -124 q 628 -15 478 -43 q 683 50 656 17 q 739 118 711 83 l 731 118 q 638 114 681 118 q 569 100 594 110 q 561 119 561 106 q 581 138 561 131 q 633 150 601 146 q 701 157 664 154 q 772 160 738 160 q 796 189 785 175 q 818 218 807 203 q 797 219 807 219 q 775 219 786 219 q 682 215 725 219 q 614 201 639 211 q 606 221 606 207 q 631 241 606 233 q 694 253 657 249 q 775 260 732 258 q 853 263 818 263 q 939 374 897 319 q 1017 475 981 428 q 1085 561 1054 522 q 1138 626 1115 600 q 1047 553 1099 594 q 935 470 994 513 q 812 387 876 428 q 682 314 747 346 q 553 263 617 282 q 431 243 489 243 q 352 263 376 243 q 328 318 328 283 q 353 406 328 356 q 419 511 378 456 q 514 624 460 567 q 626 731 568 681 q 743 822 685 782 q 851 885 801 863 q 853 885 853 885 q 856 886 854 886 l 858 886 q 869 878 869 886 q 864 872 869 876 q 751 799 807 842 q 646 708 696 757 q 553 609 596 660 q 478 510 510 558 q 430 420 447 463 q 413 347 413 378 q 428 303 413 319 q 479 288 444 288 q 606 317 533 288 q 757 392 678 346 q 915 494 836 438 q 1063 603 994 550 q 1181 701 1131 656 q 1250 768 1231 746 q 1267 781 1258 781 q 1275 774 1271 778 q 1283 760 1283 765 m 585 -67 q 371 -119 457 -87 q 232 -185 285 -150 q 156 -253 179 -219 q 133 -314 133 -287 q 153 -359 133 -342 q 206 -376 174 -376 q 279 -352 238 -376 q 369 -286 321 -328 q 473 -188 418 -244 q 585 -67 528 -132 z "},"∑":{"ha":300,"x_min":32,"x_max":343,"o":"m 343 82 q 339 74 343 76 l 276 49 q 241 34 263 43 q 194 17 219 25 q 145 2 169 8 q 101 -4 121 -4 q 49 15 65 -4 q 32 61 32 33 q 49 128 32 92 q 96 197 67 165 q 165 251 125 229 q 250 272 204 272 q 278 249 278 272 q 256 201 278 224 q 204 158 235 178 q 140 120 174 138 q 82 90 106 103 l 82 89 q 97 47 82 64 q 147 31 113 31 q 181 35 163 31 q 219 47 200 40 q 253 59 238 53 q 278 68 269 65 q 319 85 306 79 q 336 92 328 89 q 341 88 339 92 q 343 82 343 85 m 228 233 q 218 240 228 240 q 174 228 196 240 q 133 198 151 217 q 102 157 115 179 q 85 113 89 135 q 137 138 111 125 q 183 166 163 151 q 215 197 203 181 q 228 233 228 214 z "},"∏":{"ha":1271,"x_min":-372,"x_max":1457,"o":"m 1457 668 q 1433 510 1457 593 q 1363 348 1408 428 q 1256 195 1318 268 q 1117 67 1193 122 q 953 -22 1040 11 q 771 -54 865 -54 q 653 -53 724 -54 q 497 -51 582 -53 q 320 -47 413 -49 q 139 -44 228 -46 q -30 -41 50 -42 q -168 -40 -110 -40 q -279 -42 -232 -40 q -337 -46 -326 -43 q -361 -50 -353 -50 q -372 -43 -372 -50 q -364 -25 -372 -37 q -317 3 -350 -7 q -256 17 -283 14 q -217 19 -242 18 q -160 19 -192 19 q -94 19 -129 19 q -25 19 -58 19 q 96 18 28 19 q 239 15 164 17 q 392 10 314 13 q 545 5 471 7 q 685 1 619 3 q 800 0 751 0 q 964 28 886 0 q 1108 103 1042 56 q 1229 213 1175 150 q 1321 344 1283 275 q 1379 487 1358 414 q 1400 626 1400 560 q 1382 740 1400 688 q 1326 833 1364 793 q 1229 895 1289 872 q 1086 918 1169 918 q 984 892 1036 918 q 878 821 932 867 q 770 713 825 775 q 660 576 715 650 q 605 503 636 546 q 540 415 574 461 q 474 324 507 369 q 413 241 440 278 q 369 179 386 204 q 347 150 351 154 q 285 85 318 114 q 213 49 253 56 q 204 53 204 49 l 636 608 q 722 713 671 653 q 838 826 774 772 q 980 919 903 881 q 1142 957 1057 957 q 1285 935 1225 957 q 1383 874 1344 913 q 1439 782 1421 835 q 1457 668 1457 729 z "},"∫":{"ha":147,"x_min":-24,"x_max":847,"o":"m 847 575 q 836 559 844 564 q 804 551 828 554 q 778 549 794 550 q 719 547 763 549 q 592 545 675 546 q 365 544 510 544 q 242 380 301 467 q 138 208 183 293 q 65 49 92 124 q 38 -79 38 -26 q 34 -97 38 -89 q 17 -107 31 -104 q 6 -108 13 -108 q -17 -99 -10 -108 q -22 -79 -24 -90 q 8 22 -21 -47 q 86 176 38 90 q 199 359 135 263 q 335 544 264 456 l 122 544 q 93 547 107 544 q 79 560 79 549 q 83 569 79 563 q 89 581 86 575 q 96 588 90 583 q 132 594 106 594 l 210 594 q 288 594 244 594 q 375 593 331 593 q 492 716 433 660 q 607 806 550 772 q 622 813 615 811 q 633 814 629 814 q 643 806 643 814 q 640 797 643 801 q 629 789 636 792 q 523 710 581 761 q 407 593 465 660 l 568 593 q 634 594 597 593 q 706 597 671 596 q 769 600 742 599 q 804 601 796 601 q 833 594 819 601 q 847 575 847 586 z "},"ª":{"ha":600,"x_min":292,"x_max":757,"o":"m 757 608 q 753 600 757 603 l 690 575 q 655 560 676 569 q 608 543 633 551 q 560 528 583 535 q 518 522 536 522 q 489 540 489 522 q 491 555 489 546 q 500 574 493 564 q 469 555 489 565 q 428 535 450 544 q 383 519 406 526 q 342 513 360 513 q 303 523 315 513 q 292 549 292 533 q 319 614 292 575 q 390 688 347 653 q 485 749 433 724 q 583 774 536 774 q 617 765 607 774 q 626 742 626 757 q 606 701 626 719 q 568 672 586 683 q 560 669 563 669 q 552 673 557 669 q 547 682 547 676 q 558 703 547 689 q 572 719 564 708 q 579 736 579 729 q 574 745 579 742 q 554 749 569 749 q 496 731 531 749 q 429 688 461 714 q 374 635 397 663 q 351 586 351 607 q 364 563 351 571 q 392 556 376 556 q 426 563 407 556 q 464 578 446 569 q 497 595 482 586 q 515 608 511 604 q 524 617 518 611 q 535 622 529 622 q 543 619 538 622 q 549 610 549 617 q 539 590 542 599 q 536 575 536 582 q 561 557 536 557 q 595 562 576 557 q 633 573 614 567 q 667 585 651 579 q 692 594 683 592 q 733 611 719 606 q 750 618 742 615 q 755 615 753 618 q 757 608 757 611 z "},"º":{"ha":549,"x_min":249,"x_max":668,"o":"m 668 626 q 665 619 668 622 q 661 617 664 618 q 517 578 575 578 q 461 600 481 578 q 380 539 425 564 q 290 514 335 514 q 260 523 271 514 q 249 554 249 532 q 274 622 249 582 q 336 700 300 663 q 410 764 372 738 q 474 790 449 790 q 487 785 481 790 q 493 776 493 781 q 489 773 493 774 q 481 772 485 772 q 434 751 464 772 q 375 700 404 729 q 325 639 346 671 q 304 586 304 607 q 335 556 304 556 q 391 573 360 556 q 450 615 422 590 q 440 661 440 633 q 447 701 440 681 q 464 736 453 721 q 491 761 475 751 q 526 771 507 771 q 553 746 553 771 q 534 690 553 724 q 483 622 515 657 q 528 603 499 603 q 568 607 547 603 q 608 616 589 611 q 640 626 626 621 q 661 636 654 632 l 663 636 q 667 633 665 636 q 668 626 668 629 m 528 724 q 503 743 528 743 q 477 723 488 743 q 467 678 467 703 q 468 657 467 667 q 474 638 469 647 q 513 685 497 661 q 528 724 528 708 z "},"æ":{"ha":557,"x_min":-15,"x_max":600,"o":"m 600 82 q 596 74 600 76 q 489 32 542 50 q 397 3 444 17 q 314 -11 349 -11 q 228 -1 263 -11 q 193 47 194 8 q 163 28 182 39 q 121 9 143 18 q 76 -7 99 0 q 35 -14 53 -14 q -3 -3 8 -14 q -15 22 -15 7 q 13 88 -15 49 q 83 162 40 126 q 178 222 126 197 q 276 247 229 247 q 310 239 300 247 q 319 221 317 233 q 378 247 347 235 q 436 269 408 260 q 485 285 464 279 q 517 290 507 290 q 542 284 531 290 q 554 263 554 278 q 547 248 554 256 q 531 234 540 240 q 510 224 521 228 q 490 219 499 219 q 477 222 483 219 q 471 232 471 225 q 478 250 471 240 q 481 256 481 253 q 474 258 481 258 q 465 258 471 258 q 453 256 460 257 q 421 245 442 253 q 379 228 400 238 q 342 210 358 218 q 321 199 325 201 q 315 190 315 194 q 324 181 315 183 q 333 180 325 181 q 351 178 342 179 q 370 178 361 178 q 383 178 379 178 q 401 172 399 176 q 404 158 404 168 q 401 144 404 151 q 383 135 399 138 q 327 111 354 128 q 300 67 300 94 q 322 38 300 47 q 363 29 343 29 q 439 40 399 29 q 514 61 479 50 q 593 92 554 75 q 598 88 596 92 q 600 82 600 85 m 322 132 q 312 136 322 135 q 276 142 301 138 q 256 151 261 144 q 251 164 251 157 q 262 193 251 183 q 272 210 272 203 q 267 219 272 215 q 247 222 263 222 q 189 205 224 222 q 122 162 154 188 q 67 108 90 136 q 44 60 44 81 q 57 37 44 44 q 85 29 69 29 q 119 36 100 29 q 157 51 139 43 q 190 69 175 60 q 208 82 204 78 q 217 90 211 85 q 228 96 222 96 q 236 93 231 96 q 242 83 242 90 q 232 64 235 72 q 229 49 229 56 q 244 31 229 35 l 244 36 q 257 72 244 56 q 284 101 269 89 q 310 122 299 114 q 322 132 322 131 z "},"ø":{"ha":389,"x_min":-4,"x_max":439,"o":"m 439 82 q 436 75 439 78 q 432 72 435 74 q 288 33 346 33 q 232 56 251 33 q 159 0 199 24 q 79 -29 119 -24 q 47 -73 63 -51 q 17 -115 31 -94 q 10 -122 14 -118 q 4 -125 7 -125 q -3 -120 -3 -125 q -4 -108 -4 -115 q 24 -68 11 -87 q 53 -31 38 -49 q 19 10 19 -26 q 45 78 19 38 q 107 156 71 118 q 181 219 143 193 q 244 246 219 246 q 258 241 251 246 q 264 232 264 236 q 260 228 264 229 q 251 228 256 228 q 205 206 235 228 q 146 156 175 185 q 96 94 117 126 q 75 42 75 63 q 88 15 75 22 q 153 94 121 56 q 222 169 186 132 q 241 199 229 186 q 268 219 253 213 q 316 273 292 246 q 368 331 340 300 q 380 338 375 336 q 388 339 385 339 q 397 337 392 339 q 401 331 401 335 q 401 324 401 326 q 396 315 400 321 l 371 290 q 343 263 360 279 q 307 225 326 246 q 324 201 324 221 q 305 146 324 179 q 254 78 286 113 q 299 58 269 58 q 339 63 318 58 q 378 72 360 67 q 411 82 397 76 q 432 92 425 88 l 433 92 q 438 88 436 92 q 439 82 439 85 m 299 179 q 274 199 299 199 q 248 178 258 199 q 238 133 238 158 q 239 113 238 122 q 244 93 240 103 q 283 140 268 117 q 299 179 299 164 m 221 71 q 211 117 211 89 l 211 124 q 161 68 186 96 q 113 11 136 40 q 165 31 136 14 q 221 71 194 47 z "},"¿":{"ha":542,"x_min":-240,"x_max":514,"o":"m 514 439 q 495 396 514 415 q 453 376 476 376 q 433 381 440 376 q 424 390 426 385 q 418 406 419 396 q 440 450 419 432 q 479 468 461 468 q 505 458 496 468 q 514 439 514 449 m 389 236 q 388 222 389 226 q 386 215 386 218 q 330 138 375 181 q 232 58 285 96 q 97 -31 171 14 q 1 -95 50 -61 q -87 -165 -47 -129 q -151 -235 -126 -200 q -175 -300 -175 -269 q -165 -332 -175 -319 q -140 -352 -156 -344 q -106 -362 -124 -360 q -71 -365 -87 -365 q 44 -347 -11 -365 q 143 -302 100 -329 q 213 -244 186 -275 q 239 -190 239 -214 q 228 -174 239 -178 q 201 -169 217 -169 q 146 -176 174 -169 l 118 -183 q 104 -187 110 -187 q 96 -175 96 -187 q 117 -143 100 -154 q 157 -126 135 -132 q 199 -118 179 -119 q 226 -117 218 -117 q 272 -124 256 -117 q 295 -140 288 -131 q 304 -157 303 -149 q 306 -168 306 -165 q 267 -252 306 -211 q 170 -324 229 -293 q 41 -374 111 -356 q -93 -393 -29 -393 q -141 -390 -115 -393 q -189 -376 -167 -386 q -226 -349 -211 -367 q -240 -304 -240 -332 q -219 -237 -240 -271 q -159 -171 -197 -204 q -69 -102 -121 -137 q 43 -29 -17 -67 q 165 51 108 8 q 215 90 190 69 q 261 133 239 111 q 302 177 283 154 q 332 222 321 200 q 340 243 335 233 q 351 258 344 251 q 368 264 357 264 q 385 256 381 264 q 389 236 389 247 z "},"¡":{"ha":697,"x_min":-82,"x_max":610,"o":"m 610 446 q 591 403 610 422 q 549 383 572 383 q 529 388 536 383 q 519 397 522 392 q 514 413 515 403 q 536 457 515 439 q 575 475 557 475 q 601 465 592 475 q 610 446 610 456 m 501 275 q 406 139 449 199 q 326 29 364 79 q 252 -66 288 -21 q 176 -160 217 -111 q 86 -264 135 -208 q -26 -389 38 -319 q -44 -401 -37 -399 q -56 -404 -50 -404 q -72 -401 -62 -404 q -82 -387 -82 -397 q -71 -365 -82 -378 q 117 -160 22 -267 q 201 -61 157 -114 q 291 48 246 -8 q 381 164 336 104 q 465 282 425 224 q 475 294 469 289 q 488 300 481 300 q 499 293 497 300 q 501 275 501 286 z "},"«":{"ha":507,"x_min":97,"x_max":418,"o":"m 418 279 q 415 272 418 278 q 317 160 358 196 q 275 117 275 124 q 297 67 275 110 q 346 -57 318 25 q 347 -69 347 -62 q 343 -78 347 -78 q 338 -76 339 -78 l 336 -75 l 224 122 l 406 290 l 407 292 q 413 293 408 293 q 417 288 417 293 q 418 279 418 282 m 292 279 q 289 272 292 278 q 190 160 232 196 q 149 117 149 124 q 170 67 149 110 q 219 -57 192 25 q 221 -69 221 -62 q 217 -78 221 -78 q 211 -76 213 -78 l 210 -75 l 97 122 l 279 290 l 281 292 q 286 293 282 293 q 291 288 290 293 q 292 279 292 282 z "},"»":{"ha":536,"x_min":63,"x_max":400,"o":"m 218 -74 l 217 -75 q 211 -76 215 -76 q 206 -71 207 -76 q 206 -62 206 -65 q 208 -56 206 -61 q 307 57 265 21 q 349 100 349 93 q 327 149 349 107 q 278 274 306 192 q 276 286 276 279 q 281 294 276 294 q 286 293 285 294 l 288 292 l 400 94 l 218 -74 m 75 -74 l 74 -75 q 68 -76 72 -76 q 63 -71 64 -76 q 63 -62 63 -65 q 65 -56 63 -61 q 164 57 122 21 q 206 100 206 93 q 184 149 206 107 q 135 274 163 192 q 133 286 133 279 q 138 294 133 294 q 143 293 142 294 l 144 292 l 257 94 l 75 -74 z "},"…":{"ha":824,"x_min":100,"x_max":601,"o":"m 601 60 q 596 38 601 50 q 582 16 590 26 q 563 -1 574 6 q 542 -8 553 -8 q 517 14 517 -8 q 522 35 517 24 q 536 58 528 47 q 556 75 544 68 q 576 82 567 82 q 601 60 601 82 m 392 63 q 387 42 392 53 q 374 21 382 31 q 355 5 365 11 q 335 -1 344 -1 q 311 19 311 -1 q 316 40 311 29 q 329 61 321 51 q 347 77 338 71 q 367 83 357 83 q 392 63 392 83 m 185 60 q 179 38 185 50 q 165 16 174 26 q 147 -1 157 6 q 125 -8 136 -8 q 100 14 100 -8 q 106 35 100 24 q 119 58 111 47 q 139 75 128 68 q 160 82 150 82 q 185 60 185 82 z "}," ":{"ha":278,"x_min":0,"x_max":0,"o":""},"À":{"ha":1458,"x_min":74,"x_max":1500,"o":"m 1465 993 q 1460 988 1465 989 q 1449 988 1454 988 q 1424 994 1444 988 q 1382 1011 1404 1000 q 1342 1038 1360 1022 q 1324 1071 1324 1053 q 1340 1089 1324 1089 q 1358 1079 1349 1089 q 1381 1056 1368 1069 q 1410 1029 1393 1043 q 1449 1008 1426 1015 q 1465 993 1465 1003 m 1500 140 q 1417 78 1465 110 q 1316 19 1369 46 q 1206 -26 1263 -8 q 1094 -43 1149 -43 q 993 -9 1033 -43 q 953 78 953 25 q 963 138 953 110 q 975 176 972 167 q 976 181 976 178 q 975 182 976 181 l 974 182 q 775 56 878 111 q 683 9 732 32 q 581 -32 633 -14 q 476 -60 529 -50 q 371 -71 422 -71 q 238 -52 294 -71 q 146 0 182 -33 q 92 79 110 33 q 74 179 74 125 q 108 344 74 256 q 206 521 142 433 q 363 690 269 608 q 572 833 456 771 q 829 933 689 896 q 1128 969 969 969 q 1260 950 1194 969 q 1378 894 1326 931 q 1463 806 1431 857 q 1496 693 1496 756 q 1483 600 1496 644 q 1451 516 1471 556 q 1405 442 1431 476 q 1351 379 1379 407 q 1207 261 1288 313 l 1204 261 q 1201 260 1203 261 q 1197 260 1200 260 q 1186 261 1194 260 q 1169 265 1178 263 q 1155 272 1161 267 q 1149 282 1149 276 q 1163 299 1149 289 q 1297 419 1239 353 q 1347 481 1322 447 q 1390 551 1371 514 q 1419 629 1408 589 q 1431 713 1431 669 q 1410 799 1431 757 q 1347 874 1389 842 q 1243 925 1306 906 q 1097 944 1181 944 q 836 910 960 944 q 607 819 713 876 q 417 685 501 761 q 274 528 333 610 q 183 365 215 447 q 151 210 151 282 q 169 115 151 158 q 222 39 186 71 q 315 -11 258 7 q 447 -29 371 -29 q 564 -12 503 -29 q 685 31 625 4 q 803 93 746 58 q 911 163 861 128 q 1002 233 961 199 q 1068 292 1043 267 q 1077 301 1074 296 q 1088 307 1081 307 q 1096 304 1090 307 q 1106 292 1106 299 q 1094 272 1106 283 q 1064 233 1078 251 q 1040 197 1050 215 q 1025 156 1031 178 q 1019 106 1019 135 q 1047 19 1019 43 q 1115 -6 1075 -6 q 1256 20 1189 -6 q 1374 76 1322 46 q 1485 157 1433 113 l 1488 157 q 1497 151 1493 157 q 1500 142 1500 146 l 1500 140 l 1500 140 z "},"Ã":{"ha":1458,"x_min":74,"x_max":1500,"o":"m 1406 1088 q 1386 1053 1406 1068 q 1347 1038 1367 1038 q 1324 1042 1338 1038 q 1295 1052 1310 1047 q 1268 1062 1281 1057 q 1249 1067 1256 1067 q 1219 1053 1229 1067 q 1206 1040 1208 1040 q 1200 1049 1200 1040 q 1217 1085 1200 1068 q 1258 1103 1235 1103 q 1278 1098 1267 1103 q 1304 1088 1290 1093 q 1331 1077 1318 1082 q 1356 1072 1344 1072 q 1384 1085 1372 1072 q 1399 1099 1396 1099 q 1406 1088 1406 1099 m 1500 140 q 1417 78 1465 110 q 1316 19 1369 46 q 1206 -26 1263 -8 q 1094 -43 1149 -43 q 993 -9 1033 -43 q 953 78 953 25 q 963 138 953 110 q 975 176 972 167 q 976 181 976 178 q 975 182 976 181 l 974 182 q 775 56 878 111 q 683 9 732 32 q 581 -32 633 -14 q 476 -60 529 -50 q 371 -71 422 -71 q 238 -52 294 -71 q 146 0 182 -33 q 92 79 110 33 q 74 179 74 125 q 108 344 74 256 q 206 521 142 433 q 363 690 269 608 q 572 833 456 771 q 829 933 689 896 q 1128 969 969 969 q 1260 950 1194 969 q 1378 894 1326 931 q 1463 806 1431 857 q 1496 693 1496 756 q 1483 600 1496 644 q 1451 516 1471 556 q 1405 442 1431 476 q 1351 379 1379 407 q 1207 261 1288 313 l 1204 261 q 1201 260 1203 261 q 1197 260 1200 260 q 1186 261 1194 260 q 1169 265 1178 263 q 1155 272 1161 267 q 1149 282 1149 276 q 1163 299 1149 289 q 1297 419 1239 353 q 1347 481 1322 447 q 1390 551 1371 514 q 1419 629 1408 589 q 1431 713 1431 669 q 1410 799 1431 757 q 1347 874 1389 842 q 1243 925 1306 906 q 1097 944 1181 944 q 836 910 960 944 q 607 819 713 876 q 417 685 501 761 q 274 528 333 610 q 183 365 215 447 q 151 210 151 282 q 169 115 151 158 q 222 39 186 71 q 315 -11 258 7 q 447 -29 371 -29 q 564 -12 503 -29 q 685 31 625 4 q 803 93 746 58 q 911 163 861 128 q 1002 233 961 199 q 1068 292 1043 267 q 1077 301 1074 296 q 1088 307 1081 307 q 1096 304 1090 307 q 1106 292 1106 299 q 1094 272 1106 283 q 1064 233 1078 251 q 1040 197 1050 215 q 1025 156 1031 178 q 1019 106 1019 135 q 1047 19 1019 43 q 1115 -6 1075 -6 q 1256 20 1189 -6 q 1374 76 1322 46 q 1485 157 1433 113 l 1488 157 q 1497 151 1493 157 q 1500 142 1500 146 l 1500 140 l 1500 140 z "},"Õ":{"ha":1188,"x_min":101,"x_max":1399,"o":"m 1294 1136 q 1275 1101 1294 1117 q 1236 1086 1256 1086 q 1213 1091 1226 1086 q 1184 1101 1199 1096 q 1157 1110 1169 1106 q 1138 1115 1144 1115 q 1108 1102 1118 1115 q 1094 1089 1097 1089 q 1089 1097 1089 1089 q 1106 1134 1089 1117 q 1147 1151 1124 1151 q 1167 1147 1156 1151 q 1193 1136 1179 1142 q 1220 1126 1207 1131 q 1244 1121 1233 1121 q 1273 1134 1261 1121 q 1288 1147 1285 1147 q 1294 1136 1294 1147 m 1399 697 q 1363 504 1399 601 q 1263 317 1326 407 q 1115 150 1200 228 q 930 15 1029 72 q 722 -76 831 -43 q 506 -110 614 -110 q 372 -95 431 -110 q 272 -57 314 -81 q 200 -2 229 -33 q 151 61 171 29 q 101 232 107 138 q 132 390 101 321 q 209 511 163 458 q 311 602 256 564 q 417 668 367 640 q 536 802 468 739 q 685 913 604 865 q 856 987 765 960 q 1043 1014 947 1014 q 1180 990 1115 1014 q 1293 925 1244 967 q 1370 825 1342 883 q 1399 697 1399 767 m 1338 629 q 1309 771 1338 708 q 1233 877 1281 833 q 1121 944 1185 921 q 986 967 1057 967 q 828 946 903 967 q 692 889 754 925 q 577 803 629 853 q 485 697 525 754 q 542 715 518 710 q 574 721 567 721 q 586 713 586 721 q 571 701 586 701 q 531 694 560 701 q 465 669 503 686 q 385 498 413 586 q 358 329 358 410 q 359 303 358 313 q 360 286 360 293 q 362 273 361 279 q 363 258 363 267 q 350 241 363 246 q 326 236 338 236 q 310 245 315 236 q 301 269 304 254 q 298 301 299 283 q 297 338 297 319 q 322 484 297 410 q 390 629 346 558 q 313 570 351 604 q 244 490 275 536 q 195 388 214 444 q 176 261 176 331 q 202 124 176 185 q 276 21 228 63 q 392 -43 324 -21 q 544 -65 460 -65 q 727 -38 633 -65 q 909 37 821 -11 q 1075 150 997 85 q 1211 292 1153 215 q 1303 456 1269 369 q 1338 629 1338 542 z "},"Œ":{"ha":2190,"x_min":101,"x_max":2200,"o":"m 2200 1 q 2188 -21 2197 -15 q 2161 -26 2178 -26 q 2082 -26 2138 -26 q 1963 -25 2026 -25 q 1776 -28 1868 -25 q 1585 -36 1685 -32 q 1376 -44 1486 -40 q 1136 -47 1267 -47 q 1029 -44 1068 -47 q 975 -39 990 -42 q 900 -3 921 -26 q 706 -81 806 -53 q 506 -110 606 -110 q 372 -95 431 -110 q 272 -57 314 -81 q 200 -2 229 -33 q 151 61 171 29 q 101 232 107 138 q 132 390 101 321 q 209 511 163 458 q 311 602 256 564 q 417 668 367 640 q 536 802 468 739 q 685 913 604 865 q 856 987 765 960 q 1043 1014 947 1014 q 1224 972 1142 1014 q 1354 854 1307 929 q 1529 901 1438 881 q 1708 934 1621 921 q 1874 954 1796 947 q 2010 961 1953 961 q 2138 955 2089 961 q 2188 928 2188 949 q 2176 909 2188 918 q 2147 892 2164 900 q 2113 881 2131 885 q 2082 876 2094 876 q 2076 879 2076 876 q 2078 884 2076 881 q 2079 890 2079 888 q 2075 898 2079 894 q 2058 901 2071 901 q 1807 893 1929 901 q 1576 868 1685 885 q 1375 828 1467 851 q 1217 776 1283 806 q 1115 713 1151 747 q 1078 642 1078 679 q 1097 608 1078 619 q 1142 590 1115 596 q 1196 583 1168 585 q 1242 582 1224 582 q 1346 585 1292 582 q 1453 592 1400 589 q 1555 599 1506 596 q 1646 603 1604 603 q 1744 592 1707 603 q 1781 553 1781 582 q 1753 510 1781 529 q 1690 481 1725 490 q 1522 434 1610 458 q 1349 383 1433 410 q 1190 324 1265 356 q 1056 258 1114 293 q 965 183 999 222 q 931 97 931 143 q 946 61 932 76 q 981 35 957 47 q 1049 24 1004 24 q 1290 26 1175 24 q 1512 32 1404 29 q 1724 38 1619 35 q 1932 40 1828 40 q 2066 40 2006 40 q 2146 38 2126 40 q 2190 24 2179 35 q 2200 1 2200 14 m 1732 529 q 1715 540 1732 538 q 1686 542 1697 542 q 1608 540 1642 542 q 1542 535 1574 538 q 1478 530 1511 533 q 1402 524 1446 526 q 1301 520 1358 522 q 1161 518 1243 518 q 1113 524 1136 518 q 1070 542 1089 531 q 1040 571 1051 554 q 1028 610 1028 588 q 1047 674 1028 643 q 1098 731 1065 704 q 1176 783 1131 758 q 1276 828 1222 807 q 1151 931 1228 894 q 986 967 1075 967 q 828 946 903 967 q 692 889 754 925 q 577 803 629 853 q 485 697 525 754 q 542 715 518 710 q 574 721 567 721 q 586 713 586 721 q 571 701 586 701 q 531 694 560 701 q 465 669 503 686 q 385 498 413 586 q 358 329 358 410 q 359 303 358 313 q 360 286 360 293 q 362 273 361 279 q 363 258 363 267 q 350 241 363 246 q 326 236 338 236 q 310 245 315 236 q 301 269 304 254 q 298 301 299 283 q 297 338 297 319 q 322 484 297 410 q 390 629 346 558 q 313 570 351 604 q 244 490 275 536 q 195 388 214 444 q 176 261 176 331 q 202 124 176 185 q 276 21 228 63 q 392 -43 324 -21 q 544 -65 460 -65 q 713 -42 628 -65 q 882 22 799 -18 q 875 58 875 36 q 906 156 875 111 q 986 240 936 201 q 1101 310 1036 278 q 1237 369 1167 343 q 1377 417 1307 396 q 1506 453 1447 438 q 1609 479 1565 468 q 1671 497 1653 490 q 1732 529 1732 519 z "},"œ":{"ha":585,"x_min":-4,"x_max":628,"o":"m 628 82 q 624 74 628 76 q 513 32 567 50 q 417 3 467 17 q 335 -11 368 -11 q 290 2 307 -11 q 272 36 272 15 q 214 60 235 39 q 129 -4 176 22 q 38 -31 82 -31 q 7 -22 18 -31 q -4 10 -4 -12 q 22 78 -4 38 q 83 156 47 118 q 158 219 119 193 q 221 246 196 246 q 234 241 228 246 q 240 232 240 236 q 236 228 240 229 q 228 228 232 228 q 181 206 211 228 q 122 156 151 185 q 72 94 93 126 q 51 42 51 63 q 82 11 51 11 q 140 29 108 11 q 201 74 172 47 q 188 117 188 92 q 194 156 188 136 q 211 192 200 176 q 238 217 222 207 q 274 226 254 226 q 300 200 300 226 l 300 196 q 365 231 328 214 q 438 260 401 247 q 503 282 474 274 q 544 290 532 290 q 570 284 558 290 q 582 263 582 278 q 575 248 582 256 q 558 234 568 240 q 538 224 549 228 q 518 219 526 219 q 505 222 511 219 q 499 232 499 225 q 506 250 499 240 q 508 256 508 253 q 501 258 508 258 q 493 258 499 258 q 481 256 488 257 q 449 245 469 253 q 407 228 428 238 q 369 210 386 218 q 349 199 353 201 q 343 190 343 194 q 351 181 343 183 q 361 180 353 181 q 379 178 369 179 q 398 178 389 178 q 411 178 407 178 q 429 172 426 176 q 432 158 432 168 q 429 144 432 151 q 411 135 426 138 q 355 111 382 128 q 328 67 328 94 q 349 38 328 47 q 390 29 371 29 q 467 40 426 29 q 542 61 507 50 q 621 92 582 75 q 626 88 624 92 q 628 82 628 85 m 350 132 q 340 136 350 135 q 304 142 329 138 q 283 150 290 144 q 232 79 267 115 q 251 63 240 69 q 275 56 261 57 q 293 84 281 71 q 318 107 306 97 q 340 124 331 117 q 350 132 350 131 m 275 179 q 250 199 275 199 q 224 178 235 199 q 214 133 214 158 q 222 94 214 111 q 260 141 246 118 q 275 179 275 164 z "},"–":{"ha":426,"x_min":131,"x_max":342,"o":"m 342 136 q 338 118 342 122 q 297 125 318 122 q 257 129 279 128 q 211 131 235 131 q 167 127 188 131 q 135 115 147 124 q 131 123 132 118 q 131 132 131 128 q 144 149 131 143 q 178 159 158 156 q 220 164 199 163 q 258 165 242 165 q 302 163 282 165 q 336 157 322 160 q 342 136 342 154 z "},"—":{"ha":635,"x_min":131,"x_max":550,"o":"m 550 136 q 542 118 550 122 q 461 125 503 122 q 381 129 425 128 q 292 131 336 131 q 203 127 244 131 q 138 115 163 124 q 131 123 132 118 q 131 132 131 128 q 158 149 131 143 q 226 159 186 156 q 309 164 265 163 q 385 165 353 165 q 472 163 432 165 q 539 157 513 160 q 550 136 550 154 z "},"“":{"ha":415,"x_min":167,"x_max":436,"o":"m 436 657 q 425 649 436 649 q 413 645 424 649 q 388 634 401 642 q 365 617 375 626 q 354 596 354 607 q 360 590 354 592 q 372 585 365 588 q 385 575 379 582 q 390 553 390 568 q 375 522 390 538 q 346 507 360 507 q 316 519 326 507 q 306 544 306 532 q 316 582 306 563 q 343 618 326 601 q 381 647 360 635 q 422 663 401 660 q 436 657 436 663 m 297 657 q 286 649 297 649 q 274 645 285 649 q 249 634 263 642 q 226 617 236 626 q 215 596 215 607 q 221 590 215 592 q 233 585 226 588 q 246 575 240 582 q 251 553 251 568 q 236 522 251 538 q 207 507 221 507 q 177 519 188 507 q 167 544 167 532 q 177 582 167 563 q 204 618 188 601 q 242 647 221 635 q 283 663 263 660 q 297 657 297 663 z "},"”":{"ha":415,"x_min":167,"x_max":436,"o":"m 436 625 q 426 588 436 607 q 399 551 415 568 q 361 522 382 535 q 319 507 340 510 q 306 513 306 507 q 317 521 306 521 q 329 524 318 521 q 353 535 340 528 q 377 553 367 543 q 388 574 388 563 q 382 580 388 578 q 369 585 376 582 q 357 595 363 588 q 351 617 351 603 q 367 647 351 632 q 396 663 382 663 q 426 650 415 663 q 436 625 436 638 m 297 625 q 287 588 297 607 q 260 551 276 568 q 222 522 243 535 q 181 507 201 510 q 167 513 167 507 q 178 521 167 521 q 190 524 179 521 q 215 535 201 528 q 238 553 228 543 q 249 574 249 563 q 243 580 249 578 q 231 585 238 582 q 218 595 224 588 q 213 617 213 603 q 228 647 213 632 q 257 663 243 663 q 287 650 276 663 q 297 625 297 638 z "},"‘":{"ha":276,"x_min":167,"x_max":297,"o":"m 297 657 q 286 649 297 649 q 274 645 285 649 q 249 634 263 642 q 226 617 236 626 q 215 596 215 607 q 221 590 215 592 q 233 585 226 588 q 246 575 240 582 q 251 553 251 568 q 236 522 251 538 q 207 507 221 507 q 177 519 188 507 q 167 544 167 532 q 177 582 167 563 q 204 618 188 601 q 242 647 221 635 q 283 663 263 660 q 297 657 297 663 z "}}}
